<svg width="253" height="71" viewBox="0 0 253 71" fill="none" xmlns="http://www.w3.org/2000/svg">
<path d="M0 11.36C0 5.08606 5.0879 0 11.3641 0H241.487C247.764 0 252.851 5.08606 252.851 11.36V59.64C252.851 65.914 247.764 71 241.487 71H11.3641C5.0879 71 0 65.914 0 59.64V11.36Z" fill="#FFDD00"/>
<path d="M50.8424 23.3501L50.8112 23.3317L50.7388 23.3097C50.7681 23.3342 50.8043 23.3484 50.8424 23.3501Z" fill="#0D0C22"/>
<path d="M51.2996 26.5964L51.2648 26.6062L51.2996 26.5964Z" fill="#0D0C22"/>
<path d="M50.8555 23.3449C50.8511 23.3444 50.8472 23.3434 50.8433 23.342C50.8428 23.3447 50.8428 23.3474 50.8433 23.3501C50.8477 23.3495 50.8516 23.3477 50.8555 23.3449Z" fill="#0D0C22"/>
<path d="M50.8428 23.3519H50.8498V23.3477L50.8428 23.3519Z" fill="#0D0C22"/>
<path d="M51.2717 26.5904L51.3242 26.5605L51.3437 26.5494L51.3613 26.5305C51.3284 26.5449 51.2977 26.5652 51.2717 26.5904Z" fill="#0D0C22"/>
<path d="M50.9319 23.4214L50.8804 23.3724L50.8456 23.3535C50.8646 23.3866 50.8952 23.4109 50.9319 23.4214Z" fill="#0D0C22"/>
<path d="M38.0104 54.922C37.9693 54.9396 37.9334 54.9675 37.9058 55.0027L37.9382 54.9819C37.9602 54.9619 37.9914 54.9378 38.0104 54.922Z" fill="#0D0C22"/>
<path d="M45.5148 53.4463C45.5148 53.3999 45.4921 53.4082 45.4976 53.5734C45.4976 53.56 45.5032 53.5465 45.5056 53.5335C45.5086 53.5043 45.5111 53.4755 45.5148 53.4463Z" fill="#0D0C22"/>
<path d="M44.7397 54.922C44.6987 54.9396 44.6628 54.9675 44.6352 55.0027L44.6676 54.9819C44.6896 54.9619 44.7208 54.9378 44.7397 54.922Z" fill="#0D0C22"/>
<path d="M32.7222 55.2733C32.6911 55.2464 32.6529 55.2283 32.6122 55.2218C32.6452 55.238 32.6782 55.2538 32.7002 55.2659L32.7222 55.2733Z" fill="#0D0C22"/>
<path d="M31.5347 54.1349C31.5299 54.0867 31.515 54.0403 31.4913 53.998C31.5081 54.0417 31.5222 54.0867 31.5335 54.1326L31.5347 54.1349Z" fill="#0D0C22"/>
<path d="M39.5222 33.7709C37.8894 34.4696 36.0365 35.2618 33.635 35.2618C32.6304 35.2598 31.6307 35.122 30.663 34.8522L32.3239 51.8987C32.3827 52.611 32.7074 53.2756 33.2335 53.7596C33.7596 54.244 34.4486 54.5127 35.1638 54.5123C35.1638 54.5123 37.5188 54.6348 38.3046 54.6348C39.1503 54.6348 41.6864 54.5123 41.6864 54.5123C42.4014 54.5123 43.0903 54.2436 43.6163 53.7596C44.1423 53.2751 44.4669 52.611 44.5257 51.8987L46.3046 33.0617C45.5097 32.7903 44.7073 32.61 43.8029 32.61C42.2386 32.6094 40.9782 33.1479 39.5222 33.7709Z" fill="white"/>
<path d="M25.5249 26.4984L25.553 26.5247L25.5714 26.5357C25.5573 26.5217 25.5417 26.5091 25.5249 26.4984Z" fill="#0D0C22"/>
<path d="M53.9883 24.9251L53.7386 23.664C53.5139 22.5325 53.0047 21.4633 51.8427 21.0543C51.4704 20.9235 51.0475 20.8673 50.762 20.5965C50.4765 20.3257 50.392 19.9051 50.3261 19.5151C50.204 18.7992 50.0889 18.0828 49.9635 17.3682C49.8554 16.7538 49.7695 16.0636 49.4877 15.5C49.121 14.7432 48.3597 14.3007 47.6025 14.0078C47.2144 13.8631 46.8185 13.7406 46.4166 13.6411C44.5252 13.1422 42.5365 12.9588 40.5906 12.8543C38.255 12.7255 35.9131 12.7643 33.5831 12.9704C31.8488 13.1281 30.0222 13.3189 28.3741 13.9186C27.7717 14.1381 27.1511 14.4015 26.693 14.8667C26.131 15.4383 25.9476 16.3223 26.3579 17.035C26.6496 17.5412 27.1437 17.8988 27.6678 18.1354C28.3504 18.4402 29.0633 18.6721 29.7947 18.8273C31.8311 19.2773 33.9402 19.454 36.0206 19.5291C38.3265 19.6222 40.6361 19.5468 42.9309 19.3036C43.4984 19.2412 44.0649 19.1664 44.6304 19.0792C45.2963 18.9771 45.7237 18.1066 45.5275 17.5002C45.2926 16.7752 44.6616 16.494 43.9479 16.6034C43.8427 16.6199 43.7381 16.6352 43.6329 16.6505L43.5571 16.6615C43.3154 16.6921 43.0736 16.7206 42.8318 16.7471C42.3324 16.8009 41.8318 16.8449 41.3299 16.8791C40.206 16.9574 39.0789 16.9935 37.9525 16.9953C36.8456 16.9953 35.7381 16.9641 34.6337 16.8914C34.1298 16.8583 33.6271 16.8164 33.1257 16.7654C32.8976 16.7416 32.6701 16.7165 32.4426 16.6884L32.2261 16.6609L32.179 16.6542L31.9546 16.6218C31.4959 16.5527 31.0373 16.4732 30.5836 16.3772C30.5378 16.3671 30.4968 16.3416 30.4675 16.3051C30.4381 16.2685 30.4221 16.223 30.4221 16.1761C30.4221 16.1293 30.4381 16.0838 30.4675 16.0472C30.4968 16.0106 30.5378 15.9852 30.5836 15.975H30.5921C30.9853 15.8912 31.3816 15.8197 31.7791 15.7574C31.9116 15.7366 32.0445 15.7162 32.1778 15.6962H32.1815C32.4304 15.6797 32.6805 15.6351 32.9282 15.6058C35.083 15.3817 37.2506 15.3053 39.4159 15.3772C40.467 15.4077 41.5177 15.4695 42.564 15.5758C42.789 15.5991 43.0129 15.6235 43.2367 15.651C43.3223 15.6614 43.4085 15.6736 43.4947 15.684L43.6684 15.7091C44.1748 15.7845 44.6784 15.876 45.1795 15.9836C45.9219 16.1449 46.8751 16.1975 47.2056 17.0106C47.3105 17.2685 47.3583 17.5552 47.4164 17.8261L47.4906 18.1714C47.4925 18.1776 47.4939 18.184 47.4948 18.1904C47.6698 19.0055 47.8448 19.8205 48.0199 20.6356C48.0329 20.6958 48.0333 20.758 48.0208 20.8184C48.0087 20.8787 47.9841 20.9359 47.9488 20.9863C47.9136 21.0367 47.8681 21.0793 47.8156 21.1114C47.7631 21.1435 47.7042 21.1645 47.6434 21.1729H47.6383L47.5315 21.1876L47.4257 21.2017C47.0905 21.2453 46.7549 21.286 46.419 21.3239C45.7574 21.3993 45.0947 21.4646 44.431 21.5195C43.1121 21.6292 41.7906 21.7011 40.4664 21.7353C39.7917 21.7533 39.1172 21.7616 38.4429 21.7604C35.7589 21.7583 33.0773 21.6024 30.4111 21.2934C30.1225 21.2591 29.8338 21.2225 29.5452 21.1852C29.769 21.2139 29.3825 21.1632 29.3043 21.1522C29.1208 21.1265 28.9373 21.0998 28.7539 21.0721C28.1381 20.9798 27.5259 20.8661 26.9113 20.7664C26.1683 20.6442 25.4577 20.7053 24.7857 21.0721C24.234 21.3738 23.7875 21.8366 23.5057 22.3986C23.2159 22.9977 23.1297 23.65 23 24.2937C22.8704 24.9374 22.6686 25.63 22.745 26.2908C22.9095 27.717 23.9069 28.876 25.3415 29.1352C26.6912 29.3797 28.0482 29.5778 29.4088 29.7465C34.7537 30.4009 40.1536 30.4792 45.5152 29.9801C45.9519 29.9393 46.3879 29.8949 46.8231 29.8468C46.9591 29.8318 47.097 29.8475 47.226 29.8926C47.3551 29.9377 47.4725 30.0112 47.5696 30.1075C47.6666 30.2039 47.7413 30.3207 47.7873 30.4495C47.8332 30.5783 47.85 30.7157 47.836 30.8518L47.7 32.1709C47.4266 34.8366 47.1532 37.5022 46.8797 40.1674C46.5942 42.9664 46.3069 45.7652 46.0179 48.5635C45.9363 49.352 45.8548 50.1399 45.7733 50.9279C45.695 51.7033 45.684 52.5038 45.5366 53.2704C45.3043 54.4756 44.4878 55.2162 43.2966 55.4867C42.2052 55.735 41.0904 55.8654 39.9711 55.8756C38.7303 55.8821 37.4901 55.8274 36.2494 55.8339C34.9248 55.8413 33.3024 55.7192 32.2799 54.7336C31.3816 53.8681 31.2575 52.5126 31.1351 51.3409C30.9721 49.7896 30.8104 48.2382 30.6502 46.6869L29.7513 38.0621L29.1697 32.4815C29.1599 32.3892 29.1501 32.2981 29.141 32.2052C29.0713 31.5395 28.5998 30.8878 27.8568 30.9214C27.2208 30.9496 26.498 31.4899 26.5726 32.2052L27.0037 36.3425L27.8953 44.9008C28.1493 47.332 28.4027 49.7631 28.6554 52.1948C28.7044 52.6607 28.7502 53.128 28.8016 53.5934C29.081 56.1392 31.0257 57.5109 33.4339 57.897C34.8404 58.1235 36.2812 58.1699 37.7085 58.1931C39.5381 58.2223 41.3862 58.2929 43.1859 57.9615C45.8528 57.4724 47.8537 55.6923 48.1392 52.9307C48.2209 52.134 48.3026 51.3363 48.3838 50.539C48.6549 47.9013 48.9256 45.2635 49.1962 42.6255L50.0801 34.0061L50.4858 30.0558C50.5058 29.86 50.5889 29.6758 50.7216 29.5306C50.8549 29.3854 51.0313 29.2868 51.2244 29.2495C51.9871 29.101 52.7159 28.8473 53.2586 28.2671C54.122 27.3435 54.2938 26.1392 53.9883 24.9251ZM25.3024 25.7773C25.314 25.7718 25.2926 25.8714 25.2835 25.9179C25.2816 25.8476 25.2853 25.7853 25.3024 25.7773ZM25.3764 26.3495C25.3825 26.3452 25.4009 26.3697 25.4198 26.399C25.3911 26.3721 25.3727 26.352 25.3758 26.3495H25.3764ZM25.4492 26.4455C25.4755 26.4901 25.4895 26.5182 25.4492 26.4455V26.4455ZM25.5953 26.5641H25.599C25.599 26.5683 25.6057 26.5726 25.6082 26.5769C25.6041 26.5722 25.5996 26.5679 25.5947 26.5641H25.5953ZM51.1891 26.3868C50.9152 26.6472 50.502 26.7683 50.0945 26.8288C45.5201 27.5073 40.8792 27.8508 36.2548 27.6992C32.9453 27.5862 29.6705 27.2188 26.394 26.756C26.0729 26.7108 25.725 26.6521 25.5042 26.4155C25.0884 25.9693 25.2926 25.0706 25.4009 24.5315C25.4999 24.0375 25.6895 23.3791 26.2772 23.3088C27.1945 23.2013 28.2598 23.5882 29.1673 23.7257C30.2599 23.8924 31.3565 24.0259 32.4573 24.1262C37.155 24.5541 41.9317 24.4874 46.6086 23.8615C47.4609 23.747 48.3105 23.6139 49.1567 23.4623C49.9111 23.3272 50.7467 23.0735 51.2026 23.8541C51.515 24.386 51.5563 25.0975 51.508 25.6984C51.4932 25.9602 51.379 26.2065 51.1882 26.3868H51.1891Z" fill="#0D0C22"/>
<path fill-rule="evenodd" clip-rule="evenodd" d="M78.9341 39.0917C78.6672 39.6013 78.3 40.0451 77.8325 40.4217C77.365 40.7985 76.8201 41.1053 76.1966 41.3416C75.5736 41.5784 74.9465 41.7373 74.316 41.8183C73.6852 41.8996 73.0729 41.8925 72.4801 41.796C71.8863 41.7002 71.3812 41.5044 70.9662 41.2086L71.4342 36.3538C71.864 36.2062 72.4053 36.0546 73.0585 35.8993C73.7112 35.7443 74.3824 35.6332 75.0727 35.5669C75.763 35.5002 76.4152 35.5081 77.0313 35.5891C77.6468 35.6704 78.1329 35.8661 78.4889 36.1766C78.682 36.3538 78.8454 36.5459 78.9787 36.7529C79.1124 36.9599 79.1936 37.1742 79.2238 37.3958C79.2976 38.0165 79.2015 38.5818 78.9341 39.0917ZM72.1458 28.7502C72.4573 28.5581 72.8324 28.3879 73.2697 28.24C73.7075 28.0927 74.1564 27.9889 74.6164 27.9298C75.076 27.871 75.5249 27.8632 75.9631 27.9076C76.4004 27.952 76.7866 28.0738 77.1204 28.2732C77.4542 28.4729 77.7025 28.7612 77.8659 29.1378C78.0289 29.5149 78.0734 29.9916 77.9992 30.5678C77.9402 31.026 77.7578 31.4141 77.4542 31.7316C77.1501 32.0497 76.7787 32.3155 76.3414 32.5298C75.9037 32.7444 75.4399 32.9142 74.9506 33.0394C74.4604 33.1654 73.9892 33.2579 73.5371 33.3167C73.0845 33.376 72.6913 33.4132 72.3575 33.4275C72.0237 33.4424 71.8046 33.4497 71.7006 33.4497L72.1458 28.7502ZM81.3378 35.9547C81.1006 35.4378 80.7817 34.9833 80.3811 34.5913C79.9805 34.1998 79.5051 33.9155 78.9564 33.738C79.1936 33.5459 79.4276 33.243 79.6578 32.829C79.8876 32.4156 80.084 31.9645 80.2474 31.4768C80.4103 30.9889 80.5222 30.4978 80.5812 30.0026C80.6401 29.5076 80.6178 29.0826 80.5148 28.7277C80.2618 27.8412 79.8653 27.1466 79.3236 26.644C78.7818 26.1417 78.1514 25.7944 77.4319 25.602C76.7119 25.4105 75.9185 25.3694 75.0504 25.4802C74.1823 25.591 73.2957 25.809 72.3909 26.1341C72.3909 26.0604 72.3984 25.9828 72.4132 25.9015C72.4276 25.8205 72.435 25.7353 72.435 25.6464C72.435 25.4248 72.3241 25.233 72.1013 25.0702C71.8789 24.9076 71.6231 24.8117 71.3339 24.7819C71.0442 24.7527 70.7624 24.8151 70.4876 24.9703C70.2133 25.1256 70.0239 25.4105 69.9203 25.8236C69.8015 27.1539 69.6827 28.5359 69.5643 29.9691C69.4454 31.4029 69.3192 32.8512 69.1859 34.3145C69.0523 35.7775 68.9186 37.2296 68.7853 38.6704C68.6516 40.1114 68.5179 41.4968 68.3847 42.8268C68.4293 43.2259 68.5402 43.5364 68.7185 43.758C68.8963 43.9799 69.1042 44.1129 69.3415 44.1571C69.5787 44.2015 69.8275 44.1604 70.087 44.035C70.3465 43.9098 70.573 43.6913 70.7661 43.3812C71.3594 43.7063 72.0274 43.9169 72.7693 44.0131C73.5111 44.109 74.2636 44.109 75.0286 44.0131C75.7923 43.9169 76.5452 43.7361 77.2871 43.4697C78.0289 43.2039 78.7043 42.8713 79.3124 42.4724C79.921 42.0734 80.4326 41.6186 80.8486 41.109C81.2636 40.5988 81.5384 40.0484 81.6716 39.4575C81.8053 38.8515 81.8425 38.2457 81.783 37.6396C81.7236 37.0338 81.5751 36.4725 81.3378 35.9547Z" fill="#0D0C23"/>
<path fill-rule="evenodd" clip-rule="evenodd" d="M103.052 47.6592C102.971 48.1469 102.855 48.6606 102.707 49.2003C102.558 49.739 102.384 50.2309 102.184 50.6746C101.984 51.1177 101.761 51.4755 101.517 51.7493C101.272 52.0226 101.008 52.1373 100.726 52.0932C100.504 52.063 100.363 51.9229 100.304 51.6718C100.244 51.4203 100.244 51.1098 100.304 50.7409C100.363 50.3711 100.477 49.9534 100.648 49.488C100.819 49.0225 101.027 48.5603 101.272 48.1028C101.517 47.6443 101.795 47.2048 102.106 46.7835C102.418 46.3627 102.744 46.0114 103.085 45.7307C103.159 45.8193 103.193 46.041 103.185 46.3959C103.178 46.7505 103.133 47.1719 103.052 47.6592ZM110.597 38.0383C110.397 37.8167 110.152 37.6912 109.862 37.6614C109.573 37.6319 109.28 37.7944 108.984 38.1491C108.79 38.5037 108.545 38.8437 108.249 39.1689C107.952 39.4942 107.644 39.7896 107.325 40.0556C107.006 40.3214 106.702 40.5509 106.413 40.7427C106.124 40.935 105.897 41.0754 105.734 41.164C105.675 40.6912 105.641 40.1813 105.634 39.6343C105.626 39.0876 105.637 38.5335 105.667 37.9719C105.711 37.1738 105.804 36.3685 105.945 35.5555C106.086 34.7427 106.29 33.9446 106.558 33.161C106.558 32.7476 106.461 32.4112 106.268 32.1525C106.075 31.8941 105.841 31.7312 105.567 31.6648C105.292 31.5984 105.011 31.6353 104.721 31.7756C104.432 31.9162 104.184 32.1713 103.976 32.5403C103.798 33.0283 103.594 33.575 103.364 34.1808C103.133 34.7869 102.874 35.4039 102.585 36.0319C102.295 36.6605 101.972 37.2699 101.616 37.8608C101.26 38.4523 100.871 38.9771 100.448 39.4349C100.025 39.8931 99.565 40.2516 99.0683 40.5101C98.5707 40.7688 98.0336 40.8833 97.4547 40.8538C97.1873 40.7798 96.9942 40.5804 96.8758 40.255C96.757 39.9302 96.6864 39.5235 96.6646 39.0358C96.6423 38.5481 96.6646 38.0124 96.731 37.4285C96.7978 36.845 96.887 36.2648 96.9984 35.6885C97.1093 35.112 97.2319 34.5652 97.3651 34.048C97.4988 33.5309 97.6246 33.0946 97.7434 32.74C97.9217 32.3116 97.9217 31.9528 97.7434 31.6648C97.5656 31.3765 97.321 31.1847 97.0095 31.0883C96.698 30.9924 96.3712 30.9963 96.03 31.0995C95.6888 31.203 95.4437 31.4319 95.2956 31.7866C95.0431 32.393 94.8128 33.0724 94.6053 33.8261C94.3978 34.5799 94.2307 35.3597 94.1049 36.165C93.9786 36.9707 93.9076 37.7689 93.8932 38.5594C93.8923 38.6109 93.8946 38.6598 93.8946 38.711C93.571 39.5702 93.2628 40.2196 92.9699 40.6541C92.5915 41.216 92.1644 41.4598 91.69 41.3856C91.4816 41.297 91.3451 41.0903 91.2783 40.7649C91.2109 40.44 91.1891 40.041 91.2109 39.5677C91.2337 39.0952 91.2894 38.5594 91.3781 37.9606C91.4677 37.3622 91.5781 36.7415 91.7118 36.0985C91.8455 35.4554 91.9867 34.8094 92.1347 34.1589C92.2833 33.5086 92.4165 32.8952 92.5358 32.3187C92.521 31.8015 92.3687 31.4064 92.079 31.1327C91.7903 30.8596 91.3855 30.7525 90.8665 30.8113C90.5104 30.9592 90.2468 31.1516 90.0764 31.3878C89.9056 31.624 89.7681 31.9272 89.6646 32.2965C89.6047 32.4889 89.5161 32.873 89.3972 33.4496C89.2784 34.0255 89.1266 34.6873 88.9409 35.4334C88.7557 36.1801 88.5366 36.9595 88.2845 37.7722C88.0324 38.585 87.7502 39.3207 87.4392 39.978C87.1272 40.6355 86.786 41.164 86.4151 41.563C86.0442 41.9618 85.6435 42.1247 85.2132 42.0507C84.9755 42.0063 84.8237 41.7624 84.7569 41.3192C84.69 40.8757 84.6794 40.3293 84.7235 39.6788C84.768 39.0285 84.8572 38.3153 84.9904 37.5396C85.1241 36.7637 85.261 36.0285 85.4022 35.3336C85.5433 34.6392 85.6733 34.0255 85.7921 33.4937C85.9105 32.9616 85.9922 32.607 86.0367 32.4298C86.0367 32.0012 85.9397 31.6578 85.7475 31.3988C85.5544 31.1406 85.3209 30.9777 85.0461 30.9111C84.7713 30.8447 84.4895 30.8816 84.2008 31.0219C83.9111 31.1625 83.6627 31.4176 83.4548 31.7866C83.3805 32.1857 83.2839 32.6478 83.1655 33.1723C83.0467 33.6968 82.932 34.2362 82.8206 34.7905C82.7092 35.3448 82.6052 35.8879 82.5091 36.42C82.4126 36.9521 82.342 37.4176 82.2975 37.8167C82.2677 38.1269 82.2343 38.5077 82.1976 38.9582C82.16 39.4093 82.1415 39.8857 82.1415 40.388C82.1415 40.8909 82.1786 41.3895 82.2534 41.8845C82.3272 42.3798 82.4609 42.8343 82.6535 43.2477C82.8462 43.6617 83.1173 44.0014 83.4664 44.2674C83.8145 44.5335 84.256 44.6811 84.7903 44.711C85.339 44.7402 85.8176 44.7 86.2261 44.5889C86.6337 44.4781 87.0046 44.3043 87.3389 44.0678C87.6727 43.8318 87.9767 43.5509 88.2515 43.2255C88.5254 42.9006 88.7965 42.546 89.0635 42.1615C89.316 42.7235 89.6423 43.1591 90.043 43.4696C90.4436 43.7798 90.8665 43.9648 91.3117 44.0236C91.7564 44.0824 92.2095 44.0202 92.6695 43.8352C93.1291 43.6507 93.5446 43.3366 93.9155 42.893C94.1601 42.6211 94.3904 42.312 94.6067 41.9703C94.6986 42.1303 94.7961 42.2847 94.9061 42.4273C95.2696 42.9006 95.7631 43.2255 96.3865 43.4029C97.0541 43.5804 97.7063 43.6102 98.3446 43.4918C98.9824 43.3737 99.591 43.1591 100.169 42.8489C100.748 42.5384 101.286 42.1655 101.784 41.7293C102.28 41.2933 102.714 40.8391 103.085 40.3658C103.07 40.7058 103.063 41.0276 103.063 41.3302C103.063 41.6333 103.056 41.9618 103.041 42.3168C102.299 42.8343 101.598 43.4549 100.938 44.1789C100.277 44.9028 99.6983 45.6751 99.2016 46.4953C98.7044 47.3153 98.3149 48.1469 98.0336 48.9891C97.7513 49.8318 97.6139 50.6189 97.6214 51.3507C97.6288 52.082 97.8029 52.721 98.1445 53.2677C98.4853 53.8148 99.0419 54.206 99.8134 54.4427C100.615 54.6942 101.319 54.7011 101.928 54.4649C102.537 54.2283 103.067 53.8366 103.519 53.29C103.972 52.7433 104.343 52.082 104.632 51.3061C104.922 50.5302 105.151 49.7209 105.322 48.8787C105.493 48.0364 105.6 47.2081 105.645 46.3959C105.689 45.5828 105.689 44.8583 105.645 44.223C106.921 43.6912 107.967 43.0187 108.783 42.2057C109.599 41.3935 110.274 40.536 110.808 39.6343C110.971 39.4127 111.027 39.1466 110.976 38.8364C110.923 38.526 110.797 38.2599 110.597 38.0383Z" fill="#0D0C23"/>
<path fill-rule="evenodd" clip-rule="evenodd" d="M138.674 36.62C138.718 36.2803 138.785 35.9217 138.874 35.5449C138.963 35.168 139.074 34.8021 139.208 34.4475C139.341 34.0928 139.497 33.7863 139.675 33.5275C139.853 33.2691 140.043 33.0843 140.243 32.9732C140.443 32.8627 140.647 32.8736 140.855 33.0064C141.077 33.1397 141.214 33.4204 141.267 33.8487C141.318 34.2779 141.267 34.7357 141.111 35.2234C140.955 35.7114 140.677 36.1692 140.276 36.5978C139.876 37.0267 139.334 37.3071 138.651 37.4401C138.622 37.2337 138.629 36.9601 138.674 36.62ZM146.385 37.5287C146.141 37.4553 145.907 37.4478 145.684 37.5068C145.462 37.5659 145.321 37.7211 145.262 37.9726C145.143 38.4453 144.953 38.9293 144.694 39.4243C144.434 39.9196 144.115 40.3886 143.737 40.8322C143.359 41.2754 142.932 41.6672 142.458 42.0069C141.982 42.3469 141.485 42.5908 140.966 42.7384C140.447 42.9012 140.016 42.9195 139.675 42.7938C139.334 42.6687 139.063 42.4541 138.863 42.1512C138.663 41.8483 138.518 41.4824 138.429 41.0538C138.34 40.6252 138.288 40.182 138.273 39.7235C139.119 39.7829 139.872 39.6316 140.532 39.2691C141.192 38.9074 141.752 38.4267 142.212 37.8282C142.672 37.2298 143.021 36.5573 143.258 35.8109C143.496 35.0648 143.629 34.322 143.659 33.5829C143.674 32.8883 143.57 32.301 143.347 31.8207C143.125 31.3406 142.824 30.9668 142.446 30.7011C142.068 30.435 141.634 30.2798 141.144 30.2356C140.655 30.1912 140.157 30.2578 139.653 30.435C139.044 30.642 138.529 30.9781 138.106 31.4438C137.683 31.9093 137.331 32.449 137.049 33.0621C136.767 33.6755 136.544 34.3367 136.381 35.046C136.218 35.7555 136.099 36.4538 136.025 37.1412C135.958 37.7579 135.923 38.3477 135.91 38.9169C135.878 38.9892 135.848 39.0587 135.814 39.136C135.583 39.6611 135.316 40.1746 135.012 40.6769C134.708 41.1795 134.37 41.6008 134 41.9405C133.629 42.2806 133.243 42.3987 132.843 42.2952C132.605 42.2364 132.475 41.9625 132.453 41.4751C132.431 40.9871 132.456 40.3814 132.531 39.6572C132.605 38.9332 132.69 38.1494 132.787 37.3071C132.883 36.4648 132.931 35.6596 132.931 34.891C132.931 34.2258 132.805 33.5869 132.553 32.9732C132.3 32.3604 131.956 31.8502 131.518 31.4438C131.08 31.0371 130.572 30.7674 129.994 30.6347C129.415 30.5014 128.792 30.5903 128.124 30.9005C127.456 31.211 126.926 31.6469 126.533 32.2085C126.139 32.7704 125.78 33.3613 125.453 33.982C125.334 33.509 125.16 33.0697 124.93 32.663C124.7 32.2566 124.418 31.902 124.085 31.5988C123.75 31.2962 123.375 31.0597 122.961 30.8895C122.545 30.7199 122.107 30.6347 121.647 30.6347C121.202 30.6347 120.791 30.7199 120.412 30.8895C120.034 31.0597 119.689 31.2773 119.377 31.5434C119.066 31.8097 118.784 32.1087 118.531 32.4414C118.279 32.7738 118.056 33.1029 117.864 33.4277C117.833 33.0435 117.801 32.7075 117.764 32.4189C117.726 32.1309 117.659 31.8871 117.563 31.6877C117.467 31.488 117.33 31.3367 117.152 31.2332C116.973 31.13 116.721 31.0779 116.395 31.0779C116.231 31.0779 116.068 31.1111 115.905 31.1775C115.742 31.2442 115.597 31.3367 115.471 31.4548C115.345 31.5735 115.249 31.7172 115.182 31.8871C115.115 32.0569 115.097 32.253 115.126 32.4746C115.141 32.6374 115.182 32.8329 115.249 33.0621C115.315 33.2913 115.378 33.5908 115.438 33.9598C115.497 34.3294 115.545 34.7765 115.582 35.301C115.62 35.8258 115.63 36.4687 115.616 37.2298C115.601 37.9911 115.545 38.8812 115.449 39.901C115.352 40.9208 115.2 42.1031 114.992 43.4477C114.963 43.7582 115.082 44.0096 115.349 44.2017C115.616 44.3935 115.92 44.5043 116.261 44.5341C116.602 44.5637 116.925 44.5043 117.23 44.3569C117.534 44.2087 117.708 43.9503 117.752 43.581C117.797 42.8864 117.882 42.1475 118.008 41.364C118.134 40.581 118.29 39.8051 118.476 39.0364C118.661 38.2681 118.872 37.5366 119.11 36.8417C119.347 36.147 119.611 35.5339 119.9 35.0018C120.19 34.4697 120.49 34.045 120.802 33.7272C121.113 33.4094 121.44 33.2505 121.781 33.2505C122.196 33.2505 122.519 33.4387 122.749 33.8155C122.979 34.1927 123.142 34.6769 123.239 35.2675C123.335 35.859 123.379 36.5059 123.373 37.2076C123.365 37.9095 123.335 38.5856 123.283 39.2358C123.231 39.8863 123.172 40.4663 123.105 40.9762C123.038 41.4861 122.99 41.8373 122.961 42.0291C122.961 42.3692 123.09 42.6386 123.35 42.8383C123.609 43.0376 123.899 43.1561 124.218 43.1929C124.537 43.23 124.837 43.1707 125.119 43.0155C125.401 42.8602 125.565 42.5984 125.609 42.2285C125.757 41.1646 125.961 40.097 126.221 39.0255C126.48 37.954 126.778 36.9935 127.111 36.1436C127.445 35.2937 127.816 34.5991 128.224 34.0597C128.632 33.5205 129.066 33.2505 129.526 33.2505C129.763 33.2505 129.945 33.4133 130.071 33.7382C130.197 34.0633 130.261 34.5065 130.261 35.0682C130.261 35.4822 130.227 35.9071 130.161 36.343C130.094 36.779 130.016 37.2298 129.927 37.6952C129.838 38.161 129.76 38.6374 129.693 39.1251C129.627 39.613 129.593 40.1226 129.593 40.6547C129.593 41.0243 129.63 41.4528 129.705 41.9405C129.778 42.4279 129.919 42.8903 130.127 43.3259C130.335 43.7621 130.62 44.1314 130.984 44.4343C131.348 44.7372 131.811 44.8888 132.375 44.8888C133.221 44.8888 133.97 44.7077 134.623 44.3457C135.276 43.9837 135.836 43.511 136.303 42.9271C136.328 42.8965 136.35 42.8638 136.373 42.8335C136.409 42.9198 136.441 43.0112 136.481 43.0933C136.8 43.7436 137.234 44.2458 137.783 44.6008C138.332 44.9554 138.978 45.1512 139.72 45.1883C140.461 45.2249 141.27 45.0882 142.146 44.778C142.798 44.5414 143.366 44.2458 143.848 43.8912C144.33 43.5366 144.764 43.1043 145.15 42.5944C145.536 42.0845 145.888 41.497 146.208 40.8322C146.527 40.1668 146.849 39.406 147.175 38.5485C147.235 38.3126 147.179 38.1019 147.009 37.9169C146.838 37.7324 146.63 37.603 146.385 37.5287Z" fill="#0D0C23"/>
<path fill-rule="evenodd" clip-rule="evenodd" d="M158.482 35.056C158.407 35.4922 158.307 35.9728 158.181 36.4971C158.055 37.0219 157.896 37.565 157.703 38.1266C157.51 38.6882 157.272 39.1944 156.99 39.645C156.709 40.0961 156.386 40.4541 156.023 40.7202C155.659 40.9862 155.24 41.097 154.765 41.0526C154.527 41.0234 154.345 40.8608 154.22 40.5649C154.093 40.2696 154.027 39.8925 154.019 39.4343C154.012 38.9765 154.052 38.4739 154.142 37.9269C154.231 37.3804 154.368 36.8444 154.554 36.3196C154.739 35.7954 154.965 35.3111 155.232 34.8676C155.499 34.4243 155.807 34.0807 156.156 33.8369C156.504 33.593 156.887 33.4788 157.302 33.4932C157.717 33.5081 158.163 33.7148 158.638 34.1138C158.607 34.3062 158.556 34.6204 158.482 35.056ZM166.394 36.7519C166.163 36.6337 165.926 36.6082 165.682 36.6745C165.437 36.7409 165.262 36.9665 165.159 37.3507C165.099 37.7646 164.966 38.252 164.758 38.8136C164.55 39.3753 164.294 39.9077 163.99 40.4097C163.686 40.9123 163.337 41.3299 162.944 41.6623C162.551 41.995 162.132 42.1466 161.687 42.1165C161.316 42.0873 161.056 41.8988 160.908 41.5515C160.759 41.2042 160.681 40.7685 160.674 40.2435C160.666 39.7192 160.719 39.1281 160.83 38.4703C160.941 37.8127 161.075 37.1588 161.23 36.508C161.386 35.8581 161.546 35.2335 161.709 34.635C161.872 34.0365 162.005 33.5303 162.11 33.1166C162.228 32.747 162.191 32.4332 161.998 32.1742C161.805 31.916 161.564 31.7309 161.275 31.6201C160.986 31.5093 160.692 31.4797 160.396 31.5315C160.099 31.5833 159.906 31.7422 159.817 32.0079C158.942 31.2542 158.1 30.8478 157.291 30.7888C156.482 30.7297 155.737 30.9072 155.054 31.3209C154.371 31.7346 153.767 32.333 153.241 33.1166C152.714 33.9001 152.287 34.7534 151.96 35.677C151.634 36.6006 151.43 37.543 151.348 38.5035C151.267 39.4641 151.33 40.3399 151.538 41.1305C151.746 41.9211 152.112 42.5679 152.639 43.0699C153.166 43.5725 153.882 43.824 154.787 43.824C155.188 43.824 155.574 43.7427 155.945 43.5801C156.315 43.4173 156.657 43.2252 156.968 43.0036C157.28 42.7819 157.554 42.5491 157.792 42.3052C158.029 42.0614 158.215 41.8584 158.348 41.6955C158.452 42.2276 158.623 42.6787 158.86 43.048C159.097 43.4173 159.368 43.7207 159.672 43.9567C159.976 44.1929 160.296 44.3667 160.629 44.4778C160.963 44.5886 161.286 44.644 161.597 44.644C162.295 44.644 162.947 44.4075 163.556 43.9344C164.165 43.462 164.71 42.8815 165.192 42.1944C165.674 41.5071 166.072 40.7832 166.383 40.0218C166.695 39.2608 166.902 38.5847 167.006 37.9933C167.11 37.7716 167.091 37.5391 166.95 37.2952C166.809 37.0514 166.624 36.8705 166.394 36.7519Z" fill="#0D0C23"/>
<path fill-rule="evenodd" clip-rule="evenodd" d="M206.456 48.9905C206.331 49.4926 206.134 49.9182 205.866 50.2653C205.599 50.6124 205.266 50.7934 204.865 50.8087C204.613 50.8231 204.42 50.6899 204.286 50.4096C204.153 50.1284 204.06 49.7664 204.008 49.3232C203.956 48.8796 203.934 48.3845 203.941 47.8378C203.949 47.2912 203.971 46.7515 204.008 46.2195C204.045 45.6877 204.09 45.1921 204.142 44.7343C204.193 44.2758 204.234 43.9218 204.264 43.6703C204.768 43.7294 205.188 43.9471 205.521 44.3242C205.855 44.7011 206.111 45.148 206.289 45.6654C206.467 46.1826 206.571 46.7408 206.601 47.339C206.63 47.9376 206.582 48.488 206.456 48.9905ZM198.399 48.9905C198.274 49.4926 198.077 49.9182 197.81 50.2653C197.543 50.6124 197.209 50.7934 196.808 50.8087C196.556 50.8231 196.363 50.6899 196.23 50.4096C196.096 50.1284 196.003 49.7664 195.952 49.3232C195.899 48.8796 195.877 48.3845 195.885 47.8378C195.892 47.2912 195.914 46.7515 195.952 46.2195C195.988 45.6877 196.033 45.1921 196.085 44.7343C196.137 44.2758 196.177 43.9218 196.207 43.6703C196.711 43.7294 197.131 43.9471 197.464 44.3242C197.799 44.7011 198.054 45.148 198.233 45.6654C198.411 46.1826 198.514 46.7408 198.544 47.339C198.573 47.9376 198.525 48.488 198.399 48.9905ZM190.132 36.3992C190.116 36.7535 190.083 37.0677 190.031 37.341C189.979 37.615 189.909 37.7882 189.82 37.8622C189.656 37.7733 189.456 37.5447 189.218 37.1748C188.981 36.8056 188.796 36.3876 188.662 35.9222C188.529 35.4567 188.487 34.9989 188.54 34.5478C188.591 34.0972 188.825 33.7465 189.241 33.4948C189.404 33.4062 189.545 33.4394 189.664 33.5947C189.782 33.7499 189.879 33.9751 189.953 34.2707C190.027 34.5666 190.079 34.9063 190.109 35.2905C190.139 35.675 190.146 36.0442 190.132 36.3992ZM188.161 40.8217C187.931 41.0652 187.675 41.2758 187.394 41.4533C187.111 41.6308 186.822 41.7638 186.526 41.8524C186.228 41.9413 185.961 41.9632 185.724 41.9188C185.057 41.786 184.545 41.4975 184.189 41.0543C183.833 40.611 183.606 40.0901 183.51 39.4917C183.413 38.8929 183.424 38.2536 183.543 37.5739C183.662 36.8942 183.862 36.2625 184.144 35.6786C184.426 35.0948 184.768 34.5922 185.168 34.1712C185.568 33.7499 186.006 33.4878 186.481 33.384C186.303 34.1377 186.244 34.9176 186.303 35.7228C186.362 36.5283 186.555 37.2856 186.882 37.9949C187.089 38.4241 187.338 38.8153 187.627 39.1699C187.917 39.5249 188.269 39.8278 188.685 40.0789C188.566 40.3303 188.391 40.5778 188.161 40.8217ZM212.788 36.6208C212.833 36.2811 212.899 35.9222 212.989 35.5453C213.078 35.1687 213.189 34.8029 213.322 34.4482C213.456 34.0933 213.612 33.7867 213.79 33.5282C213.968 33.2698 214.157 33.0848 214.357 32.9739C214.558 32.8631 214.762 32.8741 214.969 33.0071C215.192 33.1404 215.329 33.4211 215.381 33.8494C215.433 34.2783 215.381 34.7362 215.225 35.2241C215.069 35.7118 214.791 36.17 214.391 36.5983C213.991 37.0274 213.448 37.3079 212.766 37.4409C212.736 37.2342 212.744 36.9608 212.788 36.6208ZM221.758 36.6208C221.803 36.2811 221.869 35.9222 221.958 35.5453C222.047 35.1687 222.159 34.8029 222.292 34.4482C222.426 34.0933 222.581 33.7867 222.759 33.5282C222.938 33.2698 223.127 33.0848 223.327 32.9739C223.528 32.8631 223.731 32.8741 223.939 33.0071C224.162 33.1404 224.299 33.4211 224.351 33.8494C224.403 34.2783 224.351 34.7362 224.195 35.2241C224.039 35.7118 223.761 36.17 223.36 36.5983C222.96 37.0274 222.418 37.3079 221.736 37.4409C221.706 37.2342 221.713 36.9608 221.758 36.6208ZM230.093 37.9176C229.922 37.7331 229.715 37.6037 229.47 37.5294C229.225 37.4558 228.991 37.4485 228.769 37.5075C228.546 37.5666 228.405 37.7218 228.346 37.973C228.227 38.446 228.038 38.93 227.778 39.4247C227.518 39.9203 227.2 40.3894 226.821 40.8326C226.443 41.2758 226.016 41.6679 225.542 42.0076C225.066 42.3477 224.57 42.5915 224.051 42.7389C223.531 42.902 223.1 42.9203 222.759 42.7945C222.418 42.6691 222.147 42.4548 221.947 42.1519C221.747 41.8488 221.602 41.4831 221.513 41.0543C221.424 40.6259 221.372 40.1827 221.357 39.7243C222.203 39.7836 222.956 39.6323 223.616 39.2698C224.276 38.9078 224.837 38.4272 225.297 37.8287C225.757 37.2305 226.105 36.558 226.343 35.8117C226.58 35.0652 226.714 34.3228 226.744 33.5837C226.758 32.889 226.654 32.3015 226.432 31.8211C226.209 31.3411 225.909 30.9676 225.531 30.7018C225.152 30.4355 224.718 30.2805 224.228 30.2361C223.739 30.1916 223.242 30.2586 222.737 30.4355C222.128 30.6427 221.613 30.9788 221.191 31.4443C220.768 31.91 220.415 32.4497 220.133 33.0625C219.851 33.6762 219.629 34.3371 219.465 35.0467C219.302 35.756 219.183 36.4546 219.11 37.1416C219.037 37.8084 218.998 38.4466 218.989 39.0574C218.933 39.1792 218.873 39.3016 218.809 39.4247C218.549 39.9203 218.23 40.3894 217.852 40.8326C217.474 41.2758 217.047 41.6679 216.572 42.0076C216.097 42.3477 215.6 42.5915 215.081 42.7389C214.561 42.902 214.131 42.9203 213.79 42.7945C213.448 42.6691 213.178 42.4548 212.978 42.1519C212.778 41.8488 212.633 41.4831 212.544 41.0543C212.455 40.6259 212.403 40.1827 212.388 39.7243C213.233 39.7836 213.986 39.6323 214.647 39.2698C215.307 38.9078 215.867 38.4272 216.327 37.8287C216.787 37.2305 217.136 36.558 217.373 35.8117C217.61 35.0652 217.744 34.3228 217.774 33.5837C217.788 32.889 217.685 32.3015 217.463 31.8211C217.24 31.3411 216.939 30.9676 216.561 30.7018C216.182 30.4355 215.749 30.2805 215.259 30.2361C214.769 30.1916 214.272 30.2586 213.768 30.4355C213.159 30.6427 212.643 30.9788 212.221 31.4443C211.798 31.91 211.445 32.4497 211.164 33.0625C210.882 33.6762 210.659 34.3371 210.496 35.0467C210.333 35.756 210.214 36.4546 210.14 37.1416C210.098 37.5292 210.07 37.9049 210.049 38.2739C209.905 38.3954 209.766 38.5177 209.617 38.6378C209.105 39.0518 208.567 39.4247 208.003 39.7575C207.439 40.0901 206.853 40.3635 206.245 40.5778C205.636 40.7921 205.013 40.9215 204.375 40.9657L205.755 26.2458C205.844 25.9353 205.8 25.6623 205.622 25.4258C205.444 25.1892 205.214 25.0267 204.932 24.9381C204.65 24.8492 204.349 24.8568 204.03 24.96C203.711 25.0638 203.448 25.3003 203.24 25.6693C203.136 26.2312 203.029 26.9995 202.918 27.9749C202.806 28.9502 202.695 30.0144 202.584 31.1672C202.472 32.32 202.361 33.5097 202.25 34.7362C202.139 35.9632 202.042 37.1085 201.96 38.1724C201.957 38.2196 201.954 38.2624 201.95 38.3091C201.82 38.4188 201.694 38.5293 201.56 38.6378C201.048 39.0518 200.51 39.4247 199.946 39.7575C199.382 40.0901 198.796 40.3635 198.188 40.5778C197.58 40.7921 196.956 40.9215 196.318 40.9657L197.698 26.2458C197.787 25.9353 197.743 25.6623 197.565 25.4258C197.387 25.1892 197.157 25.0267 196.875 24.9381C196.593 24.8492 196.292 24.8568 195.973 24.96C195.654 25.0638 195.391 25.3003 195.183 25.6693C195.079 26.2312 194.972 26.9995 194.861 27.9749C194.749 28.9502 194.638 30.0144 194.527 31.1672C194.415 32.32 194.304 33.5097 194.193 34.7362C194.082 35.9632 193.985 37.1085 193.904 38.1724C193.902 38.1937 193.901 38.2131 193.899 38.2345C193.666 38.3422 193.412 38.4368 193.136 38.5161C192.854 38.5976 192.535 38.6457 192.179 38.6603C192.238 38.394 192.286 38.0984 192.323 37.7733C192.36 37.4485 192.39 37.1085 192.413 36.7535C192.435 36.3992 192.442 36.0442 192.435 35.6896C192.427 35.3347 192.409 35.0098 192.379 34.7139C192.305 34.0789 192.168 33.4765 191.968 32.9073C191.767 32.3386 191.496 31.8622 191.155 31.4775C190.814 31.0933 190.387 30.8346 189.875 30.7018C189.363 30.5688 188.766 30.6129 188.084 30.8346C187.074 30.7018 186.166 30.7943 185.357 31.1118C184.548 31.4299 183.847 31.8914 183.254 32.4972C182.66 33.1036 182.174 33.8162 181.796 34.6366C181.418 35.4567 181.165 36.2993 181.039 37.1636C180.986 37.53 180.96 37.8948 180.952 38.2587C180.722 38.7273 180.471 39.1367 180.194 39.4804C179.8 39.9681 179.392 40.3672 178.969 40.6774C178.547 40.9878 178.127 41.2244 177.712 41.3869C177.296 41.5498 176.925 41.6606 176.599 41.7194C176.213 41.7933 175.842 41.8009 175.486 41.7416C175.13 41.6828 174.803 41.5126 174.507 41.2317C174.27 41.025 174.088 40.6923 173.962 40.2341C173.836 39.776 173.762 39.2554 173.739 38.6713C173.717 38.0874 173.739 37.4777 173.806 36.8424C173.873 36.2071 173.987 35.6047 174.151 35.0357C174.314 34.4667 174.521 33.9569 174.774 33.5057C175.026 33.0555 175.323 32.7337 175.665 32.5417C175.857 32.5715 175.976 32.6857 176.021 32.8851C176.065 33.0848 176.076 33.3213 176.054 33.5947C176.032 33.8683 175.998 34.149 175.954 34.437C175.909 34.7252 175.887 34.9657 175.887 35.1575C175.961 35.5566 176.106 35.8671 176.321 36.0887C176.536 36.3103 176.777 36.4399 177.044 36.4765C177.311 36.5136 177.574 36.4509 177.835 36.2881C178.094 36.1258 178.305 35.8671 178.469 35.5121C178.483 35.527 178.506 35.5343 178.535 35.5343L178.847 32.7191C178.936 32.3347 178.877 31.9949 178.669 31.6994C178.461 31.4038 178.187 31.2336 177.846 31.1895C177.415 30.5688 176.833 30.24 176.098 30.2029C175.364 30.166 174.611 30.4062 173.839 30.9234C173.364 31.2637 172.945 31.7326 172.582 32.331C172.218 32.9298 171.922 33.5947 171.692 34.3261C171.461 35.0576 171.298 35.8302 171.202 36.643C171.106 37.4558 171.087 38.2466 171.146 39.0147C171.205 39.7836 171.343 40.5078 171.558 41.1872C171.773 41.8673 172.073 42.4362 172.46 42.8941C172.786 43.2932 173.156 43.5854 173.572 43.7702C173.987 43.955 174.421 44.0692 174.874 44.1136C175.327 44.1577 175.776 44.1392 176.221 44.0582C176.666 43.9772 177.089 43.8627 177.489 43.7145C178.008 43.5227 178.543 43.2785 179.092 42.983C179.641 42.6877 180.168 42.3328 180.672 41.9188C180.938 41.7011 181.193 41.4637 181.44 41.2092C181.552 41.4871 181.678 41.7559 181.829 42.0076C182.23 42.6725 182.771 43.2122 183.454 43.6259C184.136 44.0396 184.975 44.2387 185.969 44.2244C187.038 44.2095 188.024 43.9401 188.929 43.4153C189.834 42.891 190.576 42.1182 191.155 41.0987C192.022 41.0987 192.875 40.9564 193.713 40.6737C193.706 40.7632 193.699 40.8574 193.692 40.9437C193.633 41.727 193.603 42.2588 193.603 42.5397C193.589 43.0274 193.555 43.6296 193.503 44.3461C193.451 45.063 193.418 45.8168 193.403 46.6071C193.389 47.3979 193.418 48.1961 193.492 49.0017C193.566 49.8068 193.722 50.5386 193.96 51.1966C194.196 51.8537 194.534 52.412 194.972 52.8705C195.409 53.328 195.984 53.6018 196.697 53.6904C197.454 53.7935 198.106 53.6607 198.656 53.2914C199.204 52.9215 199.649 52.4157 199.991 51.773C200.332 51.1298 200.573 50.3873 200.714 49.5451C200.855 48.7023 200.896 47.8564 200.837 47.0062C200.777 46.1565 200.621 45.3549 200.369 44.6015C200.117 43.8475 199.768 43.2268 199.323 42.7389C199.591 42.6654 199.909 42.5251 200.28 42.3179C200.651 42.1111 201.033 41.8783 201.427 41.6195C201.523 41.556 201.618 41.489 201.715 41.4238C201.679 41.9475 201.66 42.3209 201.66 42.5397C201.646 43.0274 201.612 43.6296 201.56 44.3461C201.508 45.063 201.475 45.8168 201.46 46.6071C201.445 47.3979 201.475 48.1961 201.549 49.0017C201.623 49.8068 201.779 50.5386 202.016 51.1966C202.253 51.8537 202.591 52.412 203.029 52.8705C203.466 53.328 204.041 53.6018 204.754 53.6904C205.51 53.7935 206.163 53.6607 206.712 53.2914C207.261 52.9215 207.706 52.4157 208.048 51.773C208.389 51.1298 208.63 50.3873 208.771 49.5451C208.912 48.7023 208.952 47.8564 208.893 47.0062C208.834 46.1565 208.678 45.3549 208.426 44.6015C208.173 43.8475 207.825 43.2268 207.38 42.7389C207.647 42.6654 207.966 42.5251 208.337 42.3179C208.708 42.1111 209.09 41.8783 209.484 41.6195C209.688 41.4851 209.891 41.3465 210.094 41.2039C210.17 41.9266 210.334 42.5606 210.596 43.0938C210.915 43.7443 211.349 44.2466 211.898 44.6015C212.447 44.9559 213.092 45.1519 213.835 45.1887C214.576 45.2253 215.385 45.0889 216.261 44.7784C216.913 44.5422 217.481 44.2466 217.963 43.8919C218.445 43.537 218.879 43.1048 219.265 42.5951C219.287 42.5656 219.308 42.5336 219.33 42.5038C219.399 42.7107 219.475 42.9096 219.565 43.0938C219.885 43.7443 220.319 44.2466 220.868 44.6015C221.416 44.9559 222.062 45.1519 222.804 45.1887C223.546 45.2253 224.354 45.0889 225.23 44.7784C225.883 44.5422 226.45 44.2466 226.933 43.8919C227.414 43.537 227.849 43.1048 228.235 42.5951C228.621 42.085 228.972 41.4975 229.292 40.8326C229.611 40.1675 229.933 39.4067 230.26 38.5493C230.319 38.313 230.263 38.1024 230.093 37.9176Z" fill="#0D0C23"/>
</svg>
