<svg width="115" height="115" viewBox="0 0 115 115" fill="none" xmlns="http://www.w3.org/2000/svg">
<path d="M82.5876 24.2925H61.9153C59.8593 24.2925 57.8876 25.1093 56.4338 26.5631C54.98 28.0169 54.1632 29.9886 54.1632 32.0446C54.1632 29.9886 53.3465 28.0169 51.8927 26.5631C50.4389 25.1093 48.4671 24.2925 46.4111 24.2925H25.7389C23.6829 24.2925 21.7111 25.1093 20.2573 26.5631C18.8035 28.0169 17.9868 29.9886 17.9868 32.0446V40.9595C17.9744 41.9909 18.3648 42.9865 19.0751 43.7345C19.7854 44.4825 20.7595 44.9239 21.7902 44.9648C22.3053 44.9744 22.8171 44.8813 23.2958 44.6908C23.7745 44.5004 24.2104 44.2164 24.578 43.8555C24.9457 43.4946 25.2377 43.0641 25.4371 42.589C25.6364 42.1139 25.739 41.6039 25.7389 41.0887V68.221H46.4111V41.0887C46.411 41.6039 46.5137 42.1139 46.713 42.589C46.9123 43.0641 47.2043 43.4946 47.572 43.8555C47.9396 44.2164 48.3755 44.5004 48.8542 44.6908C49.3329 44.8813 49.8448 44.9744 50.3599 44.9648C51.3906 44.9239 52.3646 44.4825 53.0749 43.7345C53.7852 42.9865 54.1757 41.9909 54.1632 40.9595C54.1508 41.9909 54.5413 42.9865 55.2516 43.7345C55.9618 44.4825 56.9359 44.9239 57.9666 44.9648C58.4817 44.9744 58.9935 44.8813 59.4722 44.6908C59.9509 44.5004 60.3868 44.2164 60.7545 43.8555C61.1221 43.4946 61.4142 43.0641 61.6135 42.589C61.8128 42.1139 61.9154 41.6039 61.9153 41.0887V68.221H82.5876V41.0887C82.5875 41.6039 82.6901 42.1139 82.8894 42.589C83.0887 43.0641 83.3808 43.4946 83.7484 43.8555C84.1161 44.2164 84.552 44.5004 85.0307 44.6908C85.5093 44.8813 86.0212 44.9744 86.5363 44.9648C87.567 44.9239 88.5411 44.4825 89.2513 43.7345C89.9616 42.9865 90.3521 41.9909 90.3397 40.9595V32.0446C90.3397 29.9886 89.5229 28.0169 88.0691 26.5631C86.6153 25.1093 84.6436 24.2925 82.5876 24.2925Z" fill="#FF9692"/>
<path d="M72.2515 24.2925C77.96 24.2925 82.5877 19.6649 82.5877 13.9564C82.5877 8.24792 77.96 3.62028 72.2515 3.62028C66.543 3.62028 61.9154 8.24792 61.9154 13.9564C61.9154 19.6649 66.543 24.2925 72.2515 24.2925Z" fill="#FF9692"/>
<path d="M36.0751 24.2925C41.7836 24.2925 46.4112 19.6649 46.4112 13.9564C46.4112 8.24792 41.7836 3.62028 36.0751 3.62028C30.3666 3.62028 25.739 8.24792 25.739 13.9564C25.739 19.6649 30.3666 24.2925 36.0751 24.2925Z" fill="#FF9692"/>
<path d="M82.5876 68.2211H61.9153C59.8593 68.2211 57.8876 69.0378 56.4338 70.4916C54.98 71.9454 54.1632 73.9172 54.1632 75.9731C54.1632 73.9172 53.3465 71.9454 51.8927 70.4916C50.4389 69.0378 48.4671 68.2211 46.4111 68.2211H25.7389C23.6829 68.2211 21.7111 69.0378 20.2573 70.4916C18.8035 71.9454 17.9868 73.9172 17.9868 75.9731V84.8881C17.9744 85.9195 18.3648 86.9151 19.0751 87.663C19.7854 88.411 20.7595 88.8524 21.7902 88.8933C22.3053 88.903 22.8171 88.8098 23.2958 88.6194C23.7745 88.4289 24.2104 88.1449 24.578 87.7841C24.9457 87.4232 25.2377 86.9926 25.4371 86.5175C25.6364 86.0425 25.739 85.5324 25.7389 85.0173V112.15H46.4111V85.0173C46.411 85.5324 46.5137 86.0425 46.713 86.5175C46.9123 86.9926 47.2043 87.4232 47.572 87.7841C47.9396 88.1449 48.3755 88.4289 48.8542 88.6194C49.3329 88.8098 49.8448 88.903 50.3599 88.8933C51.3906 88.8524 52.3646 88.411 53.0749 87.663C53.7852 86.9151 54.1757 85.9195 54.1632 84.8881C54.1508 85.9195 54.5413 86.9151 55.2516 87.663C55.9618 88.411 56.9359 88.8524 57.9666 88.8933C58.4817 88.903 58.9935 88.8098 59.4722 88.6194C59.9509 88.4289 60.3868 88.1449 60.7545 87.7841C61.1221 87.4232 61.4142 86.9926 61.6135 86.5175C61.8128 86.0425 61.9154 85.5324 61.9153 85.0173V112.15H82.5876V85.0173C82.5875 85.5324 82.6901 86.0425 82.8894 86.5175C83.0887 86.9926 83.3808 87.4232 83.7484 87.7841C84.1161 88.1449 84.552 88.4289 85.0307 88.6194C85.5093 88.8098 86.0212 88.903 86.5363 88.8933C87.567 88.8524 88.5411 88.411 89.2513 87.663C89.9616 86.9151 90.3521 85.9195 90.3397 84.8881V75.9731C90.3397 73.9172 89.5229 71.9454 88.0691 70.4916C86.6153 69.0378 84.6436 68.2211 82.5876 68.2211Z" fill="#FF9692"/>
<path d="M72.2515 68.2211C77.96 68.2211 82.5877 63.5934 82.5877 57.8849C82.5877 52.1764 77.96 47.5488 72.2515 47.5488C66.543 47.5488 61.9154 52.1764 61.9154 57.8849C61.9154 63.5934 66.543 68.2211 72.2515 68.2211Z" fill="#FF9692"/>
<path d="M36.0751 68.2211C41.7836 68.2211 46.4112 63.5934 46.4112 57.8849C46.4112 52.1764 41.7836 47.5488 36.0751 47.5488C30.3666 47.5488 25.739 52.1764 25.739 57.8849C25.739 63.5934 30.3666 68.2211 36.0751 68.2211Z" fill="#FF9692"/>
<path d="M61.9154 32.0446V41.0887C61.9159 41.8902 61.6676 42.6721 61.2047 43.3265C60.7419 43.9808 60.0873 44.4754 59.3314 44.7419V32.0446H61.9154Z" fill="#FF9692"/>
<path d="M85.1716 32.0446V44.7419C84.4157 44.4754 83.7612 43.9808 83.2983 43.3265C82.8355 42.6721 82.5871 41.8902 82.5876 41.0887V32.0446H85.1716Z" fill="#FF9692"/>
<path d="M74.8356 91.4773H69.6675V112.15H74.8356V91.4773Z" fill="#FF9692"/>
<path d="M61.9154 32.0446V41.0887C61.9159 41.8902 61.6676 42.6721 61.2047 43.3265C60.7419 43.9808 60.0873 44.4754 59.3314 44.7419V32.0446H61.9154Z" fill="#FF9692"/>
<path d="M85.1716 32.0446V44.7419C84.4157 44.4754 83.7612 43.9808 83.2983 43.3265C82.8355 42.6721 82.5871 41.8902 82.5876 41.0887V32.0446H85.1716Z" fill="#FF9692"/>
<path d="M61.9154 75.9732V85.0173C61.9159 85.8188 61.6676 86.6007 61.2047 87.255C60.7419 87.9094 60.0873 88.4039 59.3314 88.6704V75.9732H61.9154Z" fill="#FF9692"/>
<path d="M85.1716 75.9732V88.6704C84.4157 88.4039 83.7612 87.9094 83.2983 87.255C82.8355 86.6007 82.5871 85.8188 82.5876 85.0173V75.9732H85.1716Z" fill="#FF9692"/>
<path d="M25.739 32.0446V41.0887C25.7395 41.8902 25.4911 42.6721 25.0283 43.3265C24.5654 43.9808 23.9109 44.4754 23.155 44.7419V32.0446H25.739Z" fill="#FF9692"/>
<path d="M48.9953 32.0446V44.7419C48.2394 44.4754 47.5848 43.9808 47.122 43.3265C46.6591 42.6721 46.4108 41.8902 46.4113 41.0887V32.0446H48.9953Z" fill="#FF9692"/>
<path d="M38.6592 91.4773H33.4911V112.15H38.6592V91.4773Z" fill="#FF9692"/>
<path d="M25.739 32.0446V41.0887C25.7395 41.8902 25.4911 42.6721 25.0283 43.3265C24.5654 43.9808 23.9109 44.4754 23.155 44.7419V32.0446H25.739Z" fill="#FF9692"/>
<path d="M48.9953 32.0446V44.7419C48.2394 44.4754 47.5848 43.9808 47.122 43.3265C46.6591 42.6721 46.4108 41.8902 46.4113 41.0887V32.0446H48.9953Z" fill="#FF9692"/>
<path d="M25.739 75.9732V85.0173C25.7395 85.8188 25.4911 86.6007 25.0283 87.255C24.5654 87.9094 23.9109 88.4039 23.155 88.6704V75.9732H25.739Z" fill="#FF9692"/>
<path d="M48.9953 75.9732V88.6704C48.2394 88.4039 47.5848 87.9094 47.122 87.255C46.6591 86.6007 46.4108 85.8188 46.4113 85.0173V75.9732H48.9953Z" fill="#FF9692"/>
<path d="M82.5877 21.7085H82.5805C84.0226 19.7895 84.9015 17.5067 85.1187 15.1161C85.3359 12.7255 84.8828 10.3217 83.8103 8.17417C82.7378 6.02667 81.0882 4.22041 79.0466 2.95796C77.0049 1.69551 74.652 1.02679 72.2515 1.02679C69.8511 1.02679 67.4981 1.69551 65.4565 2.95796C63.4148 4.22041 61.7653 6.02667 60.6927 8.17417C59.6202 10.3217 59.1672 12.7255 59.3844 15.1161C59.6016 17.5067 60.4805 19.7895 61.9225 21.7085H61.9154C60.4479 21.7083 58.9972 22.0213 57.6603 22.6267C56.3235 23.2321 55.1312 24.1158 54.1633 25.2189C53.1954 24.1158 52.0032 23.2321 50.6663 22.6267C49.3294 22.0213 47.8788 21.7083 46.4112 21.7085H46.4041C47.8461 19.7895 48.725 17.5067 48.9422 15.1161C49.1595 12.7255 48.7064 10.3217 47.6339 8.17417C46.5614 6.02667 44.9118 4.22041 42.8701 2.95796C40.8285 1.69551 38.4755 1.02679 36.0751 1.02679C33.6747 1.02679 31.3217 1.69551 29.28 2.95796C27.2384 4.22041 25.5888 6.02667 24.5163 8.17417C23.4438 10.3217 22.9907 12.7255 23.2079 15.1161C23.4252 17.5067 24.3041 19.7895 25.7461 21.7085H25.739C22.9986 21.7116 20.3714 22.8016 18.4336 24.7393C16.4959 26.677 15.4059 29.3043 15.4029 32.0446V40.9595C15.3935 42.6672 16.0508 44.3112 17.2348 45.5418C18.4189 46.7723 20.0363 47.4924 21.7431 47.5488C22.217 47.5562 22.6903 47.5129 23.1549 47.4196V65.9629C20.9374 66.5388 18.9735 67.8338 17.5707 69.6452C16.1679 71.4566 15.4055 73.6821 15.4029 75.9732V84.8881C15.3854 85.8563 15.5854 86.8161 15.9882 87.6968C16.391 88.5774 16.9863 89.3565 17.7303 89.9764C18.4742 90.5964 19.3479 91.0415 20.2867 91.2789C21.2256 91.5163 22.2057 91.54 23.1549 91.3482V112.15C23.1549 112.835 23.4272 113.492 23.9118 113.977C24.3964 114.461 25.0536 114.734 25.739 114.734H46.4112C47.0965 114.734 47.7538 114.461 48.2384 113.977C48.723 113.492 48.9953 112.835 48.9953 112.15V91.3482C49.4599 91.4411 49.9333 91.4836 50.4071 91.4751C51.7707 91.4462 53.0884 90.977 54.1633 90.1375C55.238 90.9778 56.5557 91.4478 57.9195 91.4773C58.3934 91.4851 58.8668 91.4417 59.3314 91.3482V112.15C59.3314 112.835 59.6036 113.492 60.0882 113.977C60.5728 114.461 61.2301 114.734 61.9154 114.734H82.5877C83.273 114.734 83.9302 114.461 84.4148 113.977C84.8994 113.492 85.1717 112.835 85.1717 112.15V91.3482C86.1209 91.54 87.1011 91.5163 88.0399 91.2789C88.9788 91.0415 89.8524 90.5964 90.5963 89.9764C91.3403 89.3565 91.9356 88.5774 92.3384 87.6968C92.7412 86.8161 92.9413 85.8563 92.9238 84.8881V75.9732C92.9208 73.6823 92.1583 71.4571 90.7555 69.646C89.3528 67.8348 87.389 66.54 85.1717 65.9642V47.4196C86.1209 47.6114 87.1011 47.5878 88.0399 47.3504C88.9788 47.1129 89.8524 46.6679 90.5963 46.0479C91.3403 45.4279 91.9356 44.6489 92.3384 43.7683C92.7412 42.8876 92.9413 41.9278 92.9238 40.9595V32.0446C92.9207 29.3043 91.8307 26.677 89.893 24.7393C87.9553 22.8016 85.328 21.7116 82.5877 21.7085ZM64.4994 13.9564C64.4994 12.4232 64.9541 10.9244 65.8059 9.64958C66.6577 8.37476 67.8684 7.38115 69.2849 6.79441C70.7014 6.20768 72.2601 6.05416 73.7639 6.35327C75.2676 6.65239 76.6489 7.39071 77.7331 8.47486C78.8172 9.559 79.5555 10.9403 79.8547 12.4441C80.1538 13.9478 80.0003 15.5065 79.4135 16.923C78.8268 18.3395 77.8332 19.5502 76.5584 20.402C75.2835 21.2539 73.7847 21.7085 72.2515 21.7085C70.1963 21.7061 68.2259 20.8886 66.7726 19.4353C65.3193 17.982 64.5018 16.0117 64.4994 13.9564ZM72.2515 65.637C70.7183 65.637 69.2195 65.1824 67.9447 64.3306C66.6699 63.4788 65.6763 62.268 65.0895 60.8515C64.5028 59.435 64.3493 57.8763 64.6484 56.3726C64.9475 54.8688 65.6858 53.4875 66.77 52.4034C67.8541 51.3192 69.2354 50.5809 70.7392 50.2818C72.2429 49.9827 73.8016 50.1362 75.2181 50.7229C76.6346 51.3097 77.8453 52.3033 78.6972 53.5781C79.549 54.8529 80.0036 56.3517 80.0036 57.8849C80.0012 59.9402 79.1837 61.9106 77.7304 63.3639C76.2772 64.8171 74.3068 65.6346 72.2515 65.637ZM59.3314 65.9642C57.3292 66.4849 55.5291 67.5936 54.1633 69.1474C52.7975 67.5936 50.9974 66.4849 48.9953 65.9642V47.4196C49.46 47.5124 49.9333 47.5549 50.4071 47.5466C51.7707 47.5177 53.0884 47.0485 54.1633 46.209C55.238 47.0493 56.5557 47.5193 57.9195 47.5488C58.3934 47.5562 58.8667 47.5129 59.3314 47.4196V65.9642ZM28.323 57.8849C28.323 56.3517 28.7777 54.8529 29.6295 53.5781C30.4813 52.3033 31.692 51.3097 33.1085 50.7229C34.525 50.1362 36.0837 49.9827 37.5875 50.2818C39.0912 50.5809 40.4725 51.3192 41.5567 52.4034C42.6408 53.4875 43.3791 54.8688 43.6782 56.3726C43.9774 57.8763 43.8238 59.435 43.2371 60.8515C42.6504 62.268 41.6568 63.4788 40.3819 64.3306C39.1071 65.1824 37.6083 65.637 36.0751 65.637C34.0198 65.6346 32.0495 64.8171 30.5962 63.3639C29.1429 61.9106 28.3254 59.9402 28.323 57.8849ZM28.323 13.9564C28.323 12.4232 28.7777 10.9244 29.6295 9.64958C30.4813 8.37476 31.692 7.38115 33.1085 6.79441C34.525 6.20768 36.0837 6.05416 37.5875 6.35327C39.0912 6.65239 40.4725 7.39071 41.5567 8.47486C42.6408 9.559 43.3791 10.9403 43.6782 12.4441C43.9774 13.9478 43.8238 15.5065 43.2371 16.923C42.6504 18.3395 41.6568 19.5502 40.3819 20.402C39.1071 21.2539 37.6083 21.7085 36.0751 21.7085C34.0198 21.7061 32.0495 20.8886 30.5962 19.4353C29.1429 17.982 28.3254 16.0117 28.323 13.9564ZM22.7673 42.0106C22.5263 42.2482 22.2014 42.3812 21.8629 42.3808H21.8377C21.4849 42.3507 21.157 42.1866 20.9214 41.9223C20.6858 41.658 20.5604 41.3135 20.5709 40.9595V32.0446C20.5725 30.6745 21.1175 29.3609 22.0864 28.3921C23.0552 27.4232 24.3688 26.8782 25.739 26.8766H46.4112C47.7814 26.8782 49.095 27.4232 50.0638 28.3921C51.0326 29.3609 51.5777 30.6745 51.5793 32.0446V40.9595C51.5898 41.3135 51.4644 41.658 51.2288 41.9223C50.9932 42.1866 50.6653 42.3507 50.3125 42.3808C50.1407 42.3836 49.97 42.3524 49.8103 42.2889C49.6507 42.2255 49.5051 42.131 49.3822 42.0109C49.2593 41.8909 49.1618 41.7474 49.0953 41.589C49.0288 41.4306 48.9948 41.2605 48.9953 41.0887V32.0446H43.8272V47.5559C41.5926 45.8742 38.8718 44.9648 36.0751 44.9648C33.2784 44.9648 30.5576 45.8742 28.323 47.5559V32.0446H23.1549V41.0887C23.1553 41.2605 23.1211 41.4306 23.0546 41.5889C22.988 41.7473 22.8903 41.8907 22.7673 42.0106ZM50.3125 86.3093C50.1402 86.316 49.9684 86.2865 49.8082 86.2228C49.648 86.1591 49.5029 86.0626 49.3822 85.9395C49.2593 85.8194 49.1618 85.676 49.0953 85.5176C49.0288 85.3592 48.9948 85.189 48.9953 85.0173V75.9732H43.8272V109.566H38.6591V91.4773H33.4911V109.566H28.323V75.9732H23.1549V85.0173C23.1553 85.189 23.1211 85.3591 23.0546 85.5175C22.988 85.6758 22.8903 85.8192 22.7673 85.9391C22.6454 86.0606 22.5001 86.156 22.3402 86.2195C22.1803 86.2831 22.0091 86.3135 21.8371 86.309C21.4845 86.2787 21.1568 86.1147 20.9213 85.8504C20.6858 85.5862 20.5605 85.2418 20.5709 84.8881V75.9732C20.5725 74.603 21.1175 73.2894 22.0864 72.3206C23.0552 71.3517 24.3688 70.8067 25.739 70.8051H46.4112C47.7814 70.8067 49.095 71.3517 50.0638 72.3206C51.0326 73.2894 51.5777 74.603 51.5793 75.9732V84.8881C51.5898 85.242 51.4644 85.5865 51.2288 85.8508C50.9932 86.1152 50.6653 86.2792 50.3125 86.3093ZM87.7557 75.9732V84.8881C87.7662 85.242 87.6408 85.5865 87.4052 85.8508C87.1696 86.1152 86.8417 86.2792 86.4889 86.3093C86.3166 86.3159 86.1449 86.2863 85.9847 86.2227C85.8245 86.159 85.6794 86.0625 85.5586 85.9395C85.4357 85.8194 85.3382 85.676 85.2717 85.5176C85.2052 85.3592 85.1712 85.189 85.1717 85.0173V75.9732H80.0036V109.566H74.8356V91.4773H69.6675V109.566H64.4994V75.9732H59.3314V85.0173C59.3314 85.1891 59.2972 85.3592 59.2307 85.5176C59.1642 85.676 59.0667 85.8196 58.9441 85.9399C58.8214 86.0602 58.676 86.1548 58.5163 86.2183C58.3567 86.2817 58.1859 86.3126 58.0142 86.3093C57.6614 86.2792 57.3335 86.1152 57.0978 85.8508C56.8622 85.5865 56.7368 85.242 56.7473 84.8881V75.9732C56.749 74.603 57.294 73.2894 58.2628 72.3206C59.2317 71.3517 60.5452 70.8067 61.9154 70.8051H82.5877C83.9578 70.8067 85.2714 71.3517 86.2402 72.3206C87.2091 73.2894 87.7541 74.603 87.7557 75.9732ZM87.7557 40.9595C87.7662 41.3135 87.6408 41.658 87.4052 41.9223C87.1696 42.1866 86.8417 42.3507 86.4889 42.3808C86.3171 42.3835 86.1465 42.3523 85.9868 42.2888C85.8272 42.2253 85.6816 42.1309 85.5586 42.0109C85.4357 41.8909 85.3382 41.7474 85.2717 41.589C85.2052 41.4306 85.1712 41.2605 85.1717 41.0887V32.0446H80.0036V47.5559C77.7691 45.8742 75.0482 44.9648 72.2515 44.9648C69.4548 44.9648 66.734 45.8742 64.4994 47.5559V32.0446H59.3314V41.0887C59.3314 41.4314 59.1953 41.76 58.953 42.0023C58.7107 42.2446 58.382 42.3808 58.0394 42.3808H58.0142C57.6614 42.3507 57.3335 42.1866 57.0978 41.9223C56.8622 41.658 56.7368 41.3135 56.7473 40.9595V32.0446C56.749 30.6745 57.294 29.3609 58.2628 28.3921C59.2317 27.4232 60.5452 26.8782 61.9154 26.8766H82.5877C83.9578 26.8782 85.2714 27.4232 86.2402 28.3921C87.2091 29.3609 87.7541 30.6745 87.7557 32.0446V40.9595Z" fill="black"/>
</svg>
