<svg width="244" height="244" viewBox="0 0 244 244" fill="none" xmlns="http://www.w3.org/2000/svg">
<path d="M110.581 229.494C110.581 235.789 115.705 240.913 122 240.913C128.295 240.913 133.419 235.789 133.419 229.494C133.419 224.736 130.491 220.637 126.355 218.953V200.324H117.681V218.953C113.509 220.637 110.581 224.736 110.581 229.494Z" fill="#4BE080"/>
<path d="M126.319 200.324H117.645V208.083H126.319V200.324Z" fill="#4ACC8A"/>
<path d="M110.581 229.494C110.581 235.789 115.705 240.913 122 240.913C128.295 240.913 133.419 235.789 133.419 229.494C133.419 224.736 130.491 220.637 126.355 218.953V200.324H117.681V218.953C113.509 220.637 110.581 224.736 110.581 229.494Z" stroke="#441A36" stroke-width="6" stroke-miterlimit="10" stroke-linecap="round" stroke-linejoin="round"/>
<path d="M121.158 237.144C123.422 237.144 125.257 236.128 125.257 234.874C125.257 233.621 123.422 232.605 121.158 232.605C118.894 232.605 117.059 233.621 117.059 234.874C117.059 236.128 118.894 237.144 121.158 237.144Z" fill="#9DEDB8"/>
<path d="M133.419 14.5058C133.419 8.21061 128.295 3.08661 122 3.08661C115.705 3.08661 110.581 8.21061 110.581 14.5058C110.581 19.2638 113.509 23.363 117.645 25.0466V43.676H126.319V25.0466C130.491 23.363 133.419 19.2638 133.419 14.5058Z" fill="#4BE080"/>
<path d="M126.319 35.9168H117.645V43.676H126.319V35.9168Z" fill="#4ACC8A"/>
<path d="M133.419 14.5058C133.419 8.21061 128.295 3.08661 122 3.08661C115.705 3.08661 110.581 8.21061 110.581 14.5058C110.581 19.2638 113.509 23.363 117.645 25.0466V43.676H126.319V25.0466C130.491 23.363 133.419 19.2638 133.419 14.5058Z" stroke="#441A36" stroke-width="6" stroke-miterlimit="10" stroke-linecap="round" stroke-linejoin="round"/>
<path d="M122.842 11.3948C125.106 11.3948 126.941 10.3788 126.941 9.12558C126.941 7.87234 125.106 6.85638 122.842 6.85638C120.578 6.85638 118.743 7.87234 118.743 9.12558C118.743 10.3788 120.578 11.3948 122.842 11.3948Z" fill="#9DEDB8"/>
<path d="M165.885 220.783C169.032 226.237 176.023 228.103 181.476 224.956C186.93 221.808 188.796 214.818 185.649 209.364C183.27 205.228 178.695 203.179 174.266 203.764L164.97 187.624L157.43 191.979L166.726 208.12C163.981 211.67 163.469 216.684 165.885 220.783Z" fill="#4BE080"/>
<path d="M164.891 187.665L157.379 192.002L161.259 198.722L168.771 194.385L164.891 187.665Z" fill="#4ACC8A"/>
<path d="M165.885 220.783C169.032 226.237 176.023 228.103 181.476 224.956C186.93 221.808 188.796 214.818 185.649 209.364C183.27 205.228 178.695 203.179 174.266 203.764L164.97 187.624L157.43 191.979L166.726 208.12C163.981 211.67 163.469 216.684 165.885 220.783Z" stroke="#441A36" stroke-width="6" stroke-miterlimit="10" stroke-linecap="round" stroke-linejoin="round"/>
<path d="M178.833 222.125C180.794 220.993 181.875 219.195 181.248 218.11C180.622 217.025 178.524 217.062 176.564 218.194C174.603 219.326 173.522 221.124 174.148 222.209C174.775 223.295 176.872 223.257 178.833 222.125Z" fill="#9DEDB8"/>
<path d="M78.1166 23.2166C74.969 17.7632 67.9784 15.8966 62.525 19.0442C57.0716 22.1918 55.205 29.1824 58.3526 34.6358C60.7316 38.7716 65.3066 40.8212 69.7352 40.2356L79.0316 56.3762L86.5712 52.0208L77.2748 35.8802C80.0198 32.33 80.5322 27.3158 78.1166 23.2166Z" fill="#4BE080"/>
<path d="M82.6818 45.2554L75.1699 49.5925L79.0495 56.3119L86.5614 51.9748L82.6818 45.2554Z" fill="#4ACC8A"/>
<path d="M78.1166 23.2166C74.969 17.7632 67.9784 15.8966 62.525 19.0442C57.0716 22.1918 55.205 29.1824 58.3526 34.6358C60.7316 38.7716 65.3066 40.8212 69.7352 40.2356L79.0316 56.3762L86.5712 52.0208L77.2748 35.8802C80.0198 32.33 80.5322 27.3158 78.1166 23.2166Z" stroke="#441A36" stroke-width="6" stroke-miterlimit="10" stroke-linecap="round" stroke-linejoin="round"/>
<path d="M67.4269 25.7961C69.3875 24.6641 70.4689 22.8666 69.8422 21.7813C69.2156 20.696 67.1183 20.7338 65.1577 21.8658C63.1972 22.9978 62.1158 24.7952 62.7424 25.8805C63.3691 26.9658 65.4664 26.928 67.4269 25.7961Z" fill="#9DEDB8"/>
<path d="M209.401 185.648C214.854 188.795 221.845 186.929 224.992 181.475C228.14 176.022 226.273 169.031 220.82 165.884C216.684 163.505 211.707 163.981 208.156 166.726L192.016 157.429L187.66 164.969L203.801 174.265C203.179 178.694 205.265 183.232 209.401 185.648Z" fill="#4BE080"/>
<path d="M192.001 157.409L187.664 164.921L194.383 168.801L198.72 161.289L192.001 157.409Z" fill="#4ACC8A"/>
<path d="M209.401 185.648C214.854 188.795 221.845 186.929 224.992 181.475C228.14 176.022 226.273 169.031 220.82 165.884C216.684 163.505 211.707 163.981 208.156 166.726L192.016 157.429L187.66 164.969L203.801 174.265C203.179 178.694 205.265 183.232 209.401 185.648Z" stroke="#441A36" stroke-width="6" stroke-miterlimit="10" stroke-linecap="round" stroke-linejoin="round"/>
<path d="M221.297 180.317C222.429 178.356 222.467 176.259 221.381 175.632C220.296 175.006 218.499 176.087 217.367 178.047C216.235 180.008 216.197 182.105 217.282 182.732C218.367 183.359 220.165 182.277 221.297 180.317Z" fill="#9DEDB8"/>
<path d="M34.5992 58.3527C29.1458 55.2051 22.1552 57.0717 19.0076 62.525C15.86 67.9784 17.7266 74.969 23.18 78.1166C27.3158 80.4956 32.2934 80.0198 35.8436 77.2748L51.9842 86.5712L56.3396 79.0316L40.199 69.7352C40.8212 65.3066 38.735 60.7682 34.5992 58.3527Z" fill="#4BE080"/>
<path d="M49.6074 75.2086L45.2702 82.7205L51.9897 86.6001L56.3268 79.0882L49.6074 75.2086Z" fill="#4ACC8A"/>
<path d="M34.5992 58.3527C29.1458 55.2051 22.1552 57.0717 19.0076 62.525C15.86 67.9784 17.7266 74.969 23.18 78.1166C27.3158 80.4956 32.2934 80.0198 35.8436 77.2748L51.9842 86.5712L56.3396 79.0316L40.199 69.7352C40.8212 65.3066 38.735 60.7683 34.5992 58.3527Z" stroke="#441A36" stroke-width="6" stroke-miterlimit="10" stroke-linecap="round" stroke-linejoin="round"/>
<path d="M26.6241 65.9618C27.7561 64.0013 27.7939 61.904 26.7086 61.2773C25.6233 60.6507 23.8258 61.7321 22.6938 63.6927C21.5619 65.6532 21.5241 67.7505 22.6094 68.3771C23.6947 69.0038 25.4921 67.9224 26.6241 65.9618Z" fill="#9DEDB8"/>
<path d="M229.494 133.419C235.789 133.419 240.913 128.295 240.913 122C240.913 115.705 235.789 110.581 229.494 110.581C224.736 110.581 220.637 113.509 218.953 117.645H200.324V126.319H218.953C220.637 130.491 224.736 133.419 229.494 133.419Z" fill="#4BE080"/>
<path d="M208.083 117.645H200.324V126.319H208.083V117.645Z" fill="#4ACC8A"/>
<path d="M229.494 133.419C235.789 133.419 240.913 128.295 240.913 122C240.913 115.705 235.789 110.581 229.494 110.581C224.736 110.581 220.637 113.509 218.953 117.645H200.324V126.319H218.953C220.637 130.491 224.736 133.419 229.494 133.419Z" stroke="#441A36" stroke-width="6" stroke-miterlimit="10" stroke-linecap="round" stroke-linejoin="round"/>
<path d="M234.874 126.941C236.128 126.941 237.144 125.106 237.144 122.842C237.144 120.578 236.128 118.743 234.874 118.743C233.621 118.743 232.605 120.578 232.605 122.842C232.605 125.106 233.621 126.941 234.874 126.941Z" fill="#9DEDB8"/>
<path d="M14.5058 110.581C8.21059 110.581 3.08659 115.705 3.08659 122C3.08659 128.295 8.21059 133.419 14.5058 133.419C19.2638 133.419 23.363 130.491 25.0466 126.355H43.676V117.681H25.0466C23.363 113.509 19.2638 110.581 14.5058 110.581Z" fill="#4BE080"/>
<path d="M43.676 117.645H35.9168V126.319H43.676V117.645Z" fill="#4ACC8A"/>
<path d="M14.5058 110.581C8.21059 110.581 3.08659 115.705 3.08659 122C3.08659 128.295 8.21059 133.419 14.5058 133.419C19.2638 133.419 23.363 130.491 25.0466 126.355H43.676V117.681H25.0466C23.363 113.509 19.2638 110.581 14.5058 110.581Z" stroke="#441A36" stroke-width="6" stroke-miterlimit="10" stroke-linecap="round" stroke-linejoin="round"/>
<path d="M9.12561 125.257C10.3789 125.257 11.3948 123.422 11.3948 121.158C11.3948 118.894 10.3789 117.059 9.12561 117.059C7.87237 117.059 6.85641 118.894 6.85641 121.158C6.85641 123.422 7.87237 125.257 9.12561 125.257Z" fill="#9DEDB8"/>
<path d="M220.783 78.1166C226.237 74.969 228.103 67.9784 224.956 62.525C221.808 57.0717 214.818 55.2051 209.364 58.3527C205.228 60.7317 203.179 65.3066 203.764 69.7352L187.624 79.0316L191.979 86.5712L208.12 77.2748C211.67 80.0198 216.684 80.5322 220.783 78.1166Z" fill="#4BE080"/>
<path d="M194.367 75.1883L187.647 79.0679L191.984 86.5797L198.704 82.7001L194.367 75.1883Z" fill="#4ACC8A"/>
<path d="M220.783 78.1166C226.237 74.969 228.103 67.9784 224.956 62.525C221.808 57.0717 214.818 55.2051 209.364 58.3527C205.228 60.7317 203.179 65.3066 203.764 69.7352L187.624 79.0316L191.979 86.5712L208.12 77.2748C211.67 80.0198 216.684 80.5322 220.783 78.1166Z" stroke="#441A36" stroke-width="6" stroke-miterlimit="10" stroke-linecap="round" stroke-linejoin="round"/>
<path d="M222.209 69.8423C223.295 69.2157 223.257 67.1183 222.125 65.1578C220.993 63.1972 219.195 62.1159 218.11 62.7425C217.025 63.3691 217.063 65.4664 218.195 67.427C219.327 69.3875 221.124 70.4689 222.209 69.8423Z" fill="#9DEDB8"/>
<path d="M23.2166 165.884C17.7632 169.032 15.8966 176.022 19.0442 181.476C22.1918 186.929 29.1824 188.796 34.6358 185.648C38.7716 183.269 40.8212 178.694 40.2356 174.265L56.3762 164.969L52.0208 157.429L35.8802 166.726C32.33 163.981 27.3158 163.468 23.2166 165.884Z" fill="#4BE080"/>
<path d="M51.9565 157.398L45.2371 161.277L49.5742 168.789L56.2936 164.91L51.9565 157.398Z" fill="#4ACC8A"/>
<path d="M23.2166 165.884C17.7632 169.032 15.8966 176.022 19.0442 181.476C22.1918 186.929 29.1824 188.796 34.6358 185.648C38.7716 183.269 40.8212 178.694 40.2356 174.265L56.3762 164.969L52.0208 157.429L35.8802 166.726C32.33 163.981 27.3158 163.468 23.2166 165.884Z" stroke="#441A36" stroke-width="6" stroke-miterlimit="10" stroke-linecap="round" stroke-linejoin="round"/>
<path d="M25.8806 181.248C26.9659 180.622 26.9281 178.524 25.7961 176.564C24.6642 174.603 22.8667 173.522 21.7814 174.148C20.6961 174.775 20.7339 176.872 21.8659 178.833C22.9978 180.794 24.7953 181.875 25.8806 181.248Z" fill="#9DEDB8"/>
<path d="M185.648 34.5992C188.795 29.1458 186.929 22.1552 181.475 19.0076C176.022 15.86 169.031 17.7266 165.884 23.18C163.505 27.3158 163.981 32.2934 166.726 35.8436L157.429 51.9842L164.969 56.3396L174.265 40.199C178.694 40.8212 183.232 38.735 185.648 34.5992Z" fill="#4BE080"/>
<path d="M161.28 45.2796L157.4 51.999L164.912 56.3361L168.791 49.6166L161.28 45.2796Z" fill="#4ACC8A"/>
<path d="M185.648 34.5992C188.795 29.1458 186.929 22.1552 181.475 19.0076C176.022 15.86 169.031 17.7266 165.884 23.18C163.505 27.3158 163.981 32.2934 166.726 35.8436L157.429 51.9842L164.969 56.3396L174.265 40.199C178.694 40.8212 183.232 38.735 185.648 34.5992Z" stroke="#441A36" stroke-width="6" stroke-miterlimit="10" stroke-linecap="round" stroke-linejoin="round"/>
<path d="M182.723 26.7179C183.349 25.6326 182.268 23.8351 180.307 22.7031C178.347 21.5712 176.249 21.5334 175.623 22.6187C174.996 23.704 176.078 25.5014 178.038 26.6334C179.999 27.7654 182.096 27.8032 182.723 26.7179Z" fill="#9DEDB8"/>
<path d="M58.3526 209.401C55.205 214.854 57.0716 221.845 62.525 224.992C67.9784 228.14 74.969 226.273 78.1166 220.82C80.4956 216.684 80.0198 211.707 77.2748 208.156L86.5712 192.016L79.0316 187.66L69.7352 203.801C65.3066 203.179 60.7682 205.265 58.3526 209.401Z" fill="#4BE080"/>
<path d="M79.0789 187.673L75.1993 194.393L82.7112 198.73L86.5907 192.01L79.0789 187.673Z" fill="#4ACC8A"/>
<path d="M58.3526 209.401C55.205 214.854 57.0716 221.845 62.525 224.992C67.9784 228.14 74.969 226.273 78.1166 220.82C80.4956 216.684 80.0198 211.707 77.2748 208.156L86.5712 192.016L79.0316 187.66L69.7352 203.801C65.3066 203.179 60.7682 205.265 58.3526 209.401Z" stroke="#441A36" stroke-width="6" stroke-miterlimit="10" stroke-linecap="round" stroke-linejoin="round"/>
<path d="M68.3678 221.391C68.9944 220.305 67.9131 218.508 65.9525 217.376C63.992 216.244 61.8946 216.206 61.268 217.291C60.6414 218.377 61.7228 220.174 63.6833 221.306C65.6439 222.438 67.7412 222.476 68.3678 221.391Z" fill="#9DEDB8"/>
<path d="M122 203.032C166.753 203.032 203.032 166.753 203.032 122C203.032 77.247 166.753 40.9676 122 40.9676C77.247 40.9676 40.9676 77.247 40.9676 122C40.9676 166.753 77.247 203.032 122 203.032Z" fill="#4BE080"/>
<path d="M175.436 61.0976C188.063 75.3716 195.712 94.1474 195.712 114.717C195.712 159.478 159.442 195.749 114.68 195.749C94.2206 195.749 75.518 188.136 61.244 175.619C76.1036 192.418 97.8074 202.996 121.963 202.996C166.725 202.996 202.996 166.725 202.996 121.963C203.032 97.7342 192.345 75.9572 175.436 61.0976Z" fill="#4ACC8A"/>
<path d="M122 203.032C166.753 203.032 203.032 166.753 203.032 122C203.032 77.247 166.753 40.9676 122 40.9676C77.247 40.9676 40.9676 77.247 40.9676 122C40.9676 166.753 77.247 203.032 122 203.032Z" stroke="#441A36" stroke-width="6" stroke-miterlimit="10" stroke-linecap="round" stroke-linejoin="round"/>
<path d="M68.0882 119.401C60.0728 126.319 57.2912 148.718 81.3008 167.347C107.287 187.514 152.927 184.732 170.751 160.869C179.755 148.791 180.597 129.393 174.448 125.038C162.114 116.254 148.755 129.869 145.68 130.821C138.214 133.126 127.929 133.383 113.143 127.344C95.1722 120.024 79.4708 109.593 68.0882 119.401Z" fill="#441A36"/>
<path d="M113.143 127.38C108.458 125.477 103.956 123.354 99.6374 121.451C99.0884 122.842 98.9054 124.855 99.0884 127.819C99.4178 132.651 103.151 137.775 109.263 137.775C114.021 137.775 116.913 133.419 118.157 129.283C116.583 128.698 114.9 128.076 113.143 127.38Z" fill="#FFC417"/>
<path d="M89.609 129.723C95.0258 129.723 99.1982 125.843 100.369 121.744C92.7566 118.377 85.7294 115.522 79.4708 115.412C79.3244 116.583 79.2878 118.011 79.3976 119.767C79.727 124.599 83.4602 129.723 89.609 129.723Z" fill="#FFC417"/>
<path d="M155.709 140.007C160.979 138.141 160.613 128.991 160.613 123.574C160.613 123.318 160.613 123.061 160.613 122.842C154.537 124.525 149.377 128.734 146.815 130.308C147.144 135.579 150.841 141.727 155.709 140.007Z" fill="#FFC417"/>
<path d="M171.813 123.501C168.006 121.744 164.163 121.854 160.65 122.805C160.65 123.025 160.613 123.281 160.613 123.574C160.357 131.809 162.114 135.322 164.749 135.322C168.153 135.286 171.813 128.149 171.813 123.501Z" fill="#FFC417"/>
<path d="M113.143 127.38C108.458 125.477 103.956 123.354 99.6374 121.451C99.0884 122.842 98.9054 124.855 99.0884 127.819C99.4178 132.651 103.151 137.775 109.263 137.775C114.021 137.775 116.913 133.419 118.157 129.283C116.583 128.698 114.9 128.076 113.143 127.38Z" stroke="#441A36" stroke-width="6" stroke-miterlimit="10" stroke-linecap="round" stroke-linejoin="round"/>
<path d="M89.609 129.723C95.0258 129.723 99.1982 125.843 100.369 121.744C92.7566 118.377 85.7294 115.522 79.4708 115.412C79.3244 116.583 79.2878 118.011 79.3976 119.767C79.727 124.599 83.4602 129.723 89.609 129.723Z" stroke="#441A36" stroke-width="6" stroke-miterlimit="10" stroke-linecap="round" stroke-linejoin="round"/>
<path d="M155.709 140.007C160.979 138.141 160.613 128.991 160.613 123.574C160.613 123.318 160.613 123.061 160.613 122.842C154.537 124.525 149.377 128.734 146.815 130.308C147.144 135.579 150.841 141.727 155.709 140.007Z" stroke="#441A36" stroke-width="6" stroke-miterlimit="10" stroke-linecap="round" stroke-linejoin="round"/>
<path d="M171.813 123.501C168.006 121.744 164.163 121.854 160.65 122.805C160.65 123.025 160.613 123.281 160.613 123.574C160.357 131.809 162.114 135.322 164.749 135.322C168.153 135.286 171.813 128.149 171.813 123.501Z" stroke="#441A36" stroke-width="6" stroke-miterlimit="10" stroke-linecap="round" stroke-linejoin="round"/>
<path d="M68.0882 119.401C60.0728 126.319 57.2912 148.718 81.3008 167.347C107.287 187.514 152.927 184.732 170.751 160.869C179.755 148.791 180.597 129.393 174.448 125.038C162.114 116.254 148.755 129.869 145.68 130.821C138.214 133.126 127.929 133.383 113.143 127.344C95.1722 120.024 79.4708 109.593 68.0882 119.401Z" stroke="#441A36" stroke-width="6" stroke-miterlimit="10" stroke-linecap="round" stroke-linejoin="round"/>
<path d="M119.621 151.353C117.242 151.353 114.936 151.719 112.777 152.451C108.421 146.412 101.65 142.533 94.0376 142.533C84.119 142.533 75.5912 149.157 72.0044 158.563C74.4932 161.528 77.5676 164.493 81.2642 167.384C85.6196 170.788 90.5606 173.533 95.831 175.619C96.1604 175.729 96.4898 175.875 96.7826 175.985C96.929 176.058 97.0754 176.095 97.2218 176.168C97.8074 176.388 98.4296 176.607 99.0152 176.79C99.1982 176.863 99.4178 176.937 99.6374 177.01C100.186 177.193 100.772 177.376 101.321 177.559C101.431 177.595 101.504 177.632 101.614 177.632C102.236 177.815 102.858 177.998 103.48 178.144C103.663 178.181 103.846 178.254 104.029 178.291C104.688 178.474 105.347 178.62 106.006 178.767C106.042 178.767 106.116 178.803 106.152 178.803C106.774 178.95 107.433 179.096 108.055 179.206C108.202 179.242 108.385 179.279 108.531 179.316C109.19 179.462 109.885 179.572 110.581 179.682C110.654 179.682 110.691 179.718 110.764 179.718C111.386 179.828 112.045 179.938 112.704 180.011C112.85 180.048 112.996 180.048 113.143 180.084C113.838 180.194 114.534 180.267 115.229 180.34C115.266 180.34 115.266 180.34 115.302 180.34C124.855 181.365 134.627 180.67 143.484 178.218C143.484 177.925 143.521 177.595 143.521 177.303C143.448 162.955 132.797 151.353 119.621 151.353Z" fill="#FF4F7C"/>
<path d="M119.621 151.353C117.242 151.353 114.936 151.719 112.777 152.451C108.421 146.412 101.65 142.533 94.0376 142.533C84.119 142.533 75.5912 149.157 72.0044 158.563C74.4932 161.528 77.5676 164.493 81.2642 167.384C85.6196 170.788 90.5606 173.533 95.831 175.619C96.1604 175.729 96.4898 175.875 96.7826 175.985C96.929 176.058 97.0754 176.095 97.2218 176.168C97.8074 176.388 98.4296 176.607 99.0152 176.79C99.1982 176.863 99.4178 176.937 99.6374 177.01C100.186 177.193 100.772 177.376 101.321 177.559C101.431 177.595 101.504 177.632 101.614 177.632C102.236 177.815 102.858 177.998 103.48 178.144C103.663 178.181 103.846 178.254 104.029 178.291C104.688 178.474 105.347 178.62 106.006 178.767C106.042 178.767 106.116 178.803 106.152 178.803C106.774 178.95 107.433 179.096 108.055 179.206C108.202 179.242 108.385 179.279 108.531 179.316C109.19 179.462 109.885 179.572 110.581 179.682C110.654 179.682 110.691 179.718 110.764 179.718C111.386 179.828 112.045 179.938 112.704 180.011C112.85 180.048 112.996 180.048 113.143 180.084C113.838 180.194 114.534 180.267 115.229 180.34C115.266 180.34 115.266 180.34 115.302 180.34C124.855 181.365 134.627 180.67 143.484 178.218C143.484 177.925 143.521 177.595 143.521 177.303C143.448 162.955 132.797 151.353 119.621 151.353Z" stroke="#441A36" stroke-width="6" stroke-miterlimit="10" stroke-linecap="round" stroke-linejoin="round"/>
<path d="M96.6362 77.897C94.0376 81.6668 92.537 86.2418 92.537 91.1828C92.537 104.212 103.078 114.753 116.107 114.753C125.038 114.753 132.834 109.776 136.823 102.456L96.6362 77.897Z" fill="#F2F2F2"/>
<path d="M96.6362 77.897C94.0376 81.6668 92.537 86.2418 92.537 91.1828C92.537 104.212 103.078 114.753 116.107 114.753C125.038 114.753 132.834 109.776 136.823 102.456L96.6362 77.897Z" stroke="#441A36" stroke-width="6" stroke-miterlimit="10" stroke-linecap="round" stroke-linejoin="round"/>
<path d="M107.214 84.3386C105.933 86.2052 105.201 88.4744 105.201 90.89C105.201 97.3316 110.398 102.529 116.839 102.529C121.268 102.529 125.111 100.077 127.051 96.4532L107.214 84.3386Z" stroke="#441A36" stroke-width="6" stroke-miterlimit="10" stroke-linecap="round" stroke-linejoin="round"/>
<path d="M155.782 89.8652C155.123 88.877 154.391 87.962 153.586 87.1202L137.006 102.529C142.057 109.995 150.328 113.179 155.489 109.702C160.65 106.225 160.796 97.3316 155.782 89.8652Z" fill="white"/>
<path d="M155.782 89.8652C155.123 88.877 154.391 87.962 153.586 87.1202L137.006 102.529C142.057 109.995 150.328 113.179 155.489 109.702C160.65 106.225 160.796 97.3316 155.782 89.8652Z" stroke="#441A36" stroke-width="6" stroke-miterlimit="10" stroke-linecap="round" stroke-linejoin="round"/>
<path d="M107.214 84.3386C105.933 86.2052 105.201 88.4744 105.201 90.89C105.201 97.3316 110.398 102.529 116.839 102.529C121.268 102.529 125.111 100.077 127.051 96.4532L107.214 84.3386Z" fill="#441A36"/>
<path d="M141.508 107.47C145.204 107.25 148.132 104.212 148.132 100.443C148.132 98.1367 147.034 96.0872 145.314 94.8062L137.006 102.529C138.324 104.505 139.861 106.152 141.508 107.47Z" fill="#441A36"/>
<path d="M141.508 107.47C145.204 107.25 148.132 104.212 148.132 100.443C148.132 98.1367 147.034 96.0872 145.314 94.8062L137.006 102.529C138.324 104.505 139.861 106.152 141.508 107.47Z" stroke="#441A36" stroke-width="6" stroke-miterlimit="10" stroke-linecap="round" stroke-linejoin="round"/>
<path d="M118.816 66.2582C122.313 66.2582 125.148 63.4233 125.148 59.9264C125.148 56.4294 122.313 53.5946 118.816 53.5946C115.319 53.5946 112.484 56.4294 112.484 59.9264C112.484 63.4233 115.319 66.2582 118.816 66.2582Z" fill="#9DEDB8"/>
<path d="M157.392 68.6738C160.889 68.6738 163.724 65.8389 163.724 62.342C163.724 58.845 160.889 56.0102 157.392 56.0102C153.895 56.0102 151.06 58.845 151.06 62.342C151.06 65.8389 153.895 68.6738 157.392 68.6738Z" fill="#9DEDB8"/>
<path d="M92.5736 70.6502C94.8173 70.6502 96.6362 68.8313 96.6362 66.5876C96.6362 64.3439 94.8173 62.525 92.5736 62.525C90.3299 62.525 88.511 64.3439 88.511 66.5876C88.511 68.8313 90.3299 70.6502 92.5736 70.6502Z" fill="#9DEDB8"/>
<path d="M70.3574 97.478C72.6011 97.478 74.42 95.6591 74.42 93.4154C74.42 91.1717 72.6011 89.3528 70.3574 89.3528C68.1137 89.3528 66.2948 91.1717 66.2948 93.4154C66.2948 95.6591 68.1137 97.478 70.3574 97.478Z" fill="#9DEDB8"/>
<path d="M179.169 101.138C180.301 101.138 181.219 100.22 181.219 99.0884C181.219 97.9565 180.301 97.0388 179.169 97.0388C178.037 97.0388 177.12 97.9565 177.12 99.0884C177.12 100.22 178.037 101.138 179.169 101.138Z" fill="#9DEDB8"/>
<path d="M141.435 77.348C142.567 77.348 143.484 76.4303 143.484 75.2984C143.484 74.1664 142.567 73.2488 141.435 73.2488C140.303 73.2488 139.385 74.1664 139.385 75.2984C139.385 76.4303 140.303 77.348 141.435 77.348Z" fill="#9DEDB8"/>
</svg>
