<svg width="31" height="31" viewBox="0 0 31 31" fill="none" xmlns="http://www.w3.org/2000/svg">
<g clip-path="url(#clip0)">
<path d="M15.4914 24.4771C20.4462 24.4771 24.463 20.4579 24.463 15.4999C24.463 10.5419 20.4462 6.52271 15.4914 6.52271C10.5365 6.52271 6.51978 10.5419 6.51978 15.4999C6.51978 20.4579 10.5365 24.4771 15.4914 24.4771Z" fill="white"/>
<path d="M19.6654 7.5625C21.5013 9.19159 22.679 11.6006 22.679 14.2694C22.679 19.2259 18.6608 23.2467 13.7074 23.2467C12.2006 23.2467 10.7977 22.8827 9.55075 22.2242C11.1268 23.628 13.2224 24.4944 15.5087 24.4944C20.4621 24.4944 24.4803 20.4738 24.4803 15.5172C24.4629 12.0511 22.5231 9.05295 19.6654 7.5625Z" fill="#4ACC8A"/>
<path d="M15.4914 24.4771C20.4462 24.4771 24.463 20.4579 24.463 15.4999C24.463 10.5419 20.4462 6.52271 15.4914 6.52271C10.5365 6.52271 6.51978 10.5419 6.51978 15.4999C6.51978 20.4579 10.5365 24.4771 15.4914 24.4771Z" stroke="#4BE080" stroke-width="6" stroke-miterlimit="10" stroke-linecap="round" stroke-linejoin="round"/>
<path d="M15.4394 2.96997V6.14145" stroke="#4BE080" stroke-width="6" stroke-miterlimit="10" stroke-linecap="round" stroke-linejoin="round"/>
<path d="M15.4913 4.21776C16.18 4.21776 16.7384 3.65911 16.7384 2.96997C16.7384 2.28082 16.18 1.72217 15.4913 1.72217C14.8026 1.72217 14.2443 2.28082 14.2443 2.96997C14.2443 3.65911 14.8026 4.21776 15.4913 4.21776Z" fill="white"/>
<path d="M15.5606 28.0299V24.8584" stroke="#4BE080" stroke-width="6" stroke-miterlimit="10" stroke-linecap="round" stroke-linejoin="round"/>
<path d="M15.4913 29.2779C16.18 29.2779 16.7384 28.7192 16.7384 28.0301C16.7384 27.3409 16.18 26.7822 15.4913 26.7822C14.8026 26.7822 14.2443 27.3409 14.2443 28.0301C14.2443 28.7192 14.8026 29.2779 15.4913 29.2779Z" fill="white"/>
<path d="M9.18694 4.68579L10.763 7.42401" stroke="#4BE080" stroke-width="6" stroke-miterlimit="10" stroke-linecap="round" stroke-linejoin="round"/>
<path d="M9.23894 5.89891C9.92766 5.89891 10.4859 5.34026 10.4859 4.65112C10.4859 3.96197 9.92766 3.40332 9.23894 3.40332C8.55022 3.40332 7.99191 3.96197 7.99191 4.65112C7.99191 5.34026 8.55022 5.89891 9.23894 5.89891Z" fill="white"/>
<path d="M21.8131 26.3317L20.2196 23.5762" stroke="#4BE080" stroke-width="6" stroke-miterlimit="10" stroke-linecap="round" stroke-linejoin="round"/>
<path d="M21.761 27.614C22.4498 27.614 23.008 27.0553 23.008 26.3662C23.008 25.6771 22.4498 25.1184 21.761 25.1184C21.0723 25.1184 20.5141 25.6771 20.5141 26.3662C20.5141 27.0553 21.0723 27.614 21.761 27.614Z" fill="white"/>
<path d="M4.63194 9.29565L7.36843 10.8728" stroke="#4BE080" stroke-width="6" stroke-miterlimit="10" stroke-linecap="round" stroke-linejoin="round"/>
<path d="M4.64925 10.4914C5.33796 10.4914 5.89626 9.93282 5.89626 9.24367C5.89626 8.55451 5.33796 7.99585 4.64925 7.99585C3.96055 7.99585 3.40224 8.55451 3.40224 9.24367C3.40224 9.93282 3.96055 10.4914 4.64925 10.4914Z" fill="white"/>
<path d="M26.3681 21.7218L23.6316 20.1274" stroke="#4BE080" stroke-width="6" stroke-miterlimit="10" stroke-linecap="round" stroke-linejoin="round"/>
<path d="M26.3508 23.0215C27.0395 23.0215 27.5978 22.4629 27.5978 21.7737C27.5978 21.0846 27.0395 20.5259 26.3508 20.5259C25.6621 20.5259 25.1038 21.0846 25.1038 21.7737C25.1038 22.4629 25.6621 23.0215 26.3508 23.0215Z" fill="white"/>
<path d="M2.96921 15.5693H6.13871" stroke="#4BE080" stroke-width="6" stroke-miterlimit="10" stroke-linecap="round" stroke-linejoin="round"/>
<path d="M2.96924 16.7478C3.65795 16.7478 4.21626 16.1892 4.21626 15.5C4.21626 14.8109 3.65795 14.2522 2.96924 14.2522C2.28054 14.2522 1.72223 14.8109 1.72223 15.5C1.72223 16.1892 2.28054 16.7478 2.96924 16.7478Z" fill="white"/>
<path d="M28.0308 15.448H24.844" stroke="#4BE080" stroke-width="6" stroke-miterlimit="10" stroke-linecap="round" stroke-linejoin="round"/>
<path d="M28.0308 16.7478C28.7195 16.7478 29.2778 16.1892 29.2778 15.5C29.2778 14.8109 28.7195 14.2522 28.0308 14.2522C27.3421 14.2522 26.7837 14.8109 26.7837 15.5C26.7837 16.1892 27.3421 16.7478 28.0308 16.7478Z" fill="white"/>
<path d="M4.6839 21.8256L7.43771 20.2312" stroke="#4BE080" stroke-width="6" stroke-miterlimit="10" stroke-linecap="round" stroke-linejoin="round"/>
<path d="M4.64925 23.0215C5.33796 23.0215 5.89626 22.4629 5.89626 21.7737C5.89626 21.0846 5.33796 20.5259 4.64925 20.5259C3.96055 20.5259 3.40224 21.0846 3.40224 21.7737C3.40224 22.4629 3.96055 23.0215 4.64925 23.0215Z" fill="white"/>
<path d="M26.3162 9.19165L23.5623 10.7687" stroke="#4BE080" stroke-width="6" stroke-miterlimit="10" stroke-linecap="round" stroke-linejoin="round"/>
<path d="M26.3508 10.4914C27.0395 10.4914 27.5978 9.93282 27.5978 9.24367C27.5978 8.55451 27.0395 7.99585 26.3508 7.99585C25.6621 7.99585 25.1038 8.55451 25.1038 9.24367C25.1038 9.93282 25.6621 10.4914 26.3508 10.4914Z" fill="white"/>
<path d="M9.29088 26.3835L10.867 23.6453" stroke="#4BE080" stroke-width="6" stroke-miterlimit="10" stroke-linecap="round" stroke-linejoin="round"/>
<path d="M9.23894 27.614C9.92766 27.614 10.4859 27.0553 10.4859 26.3662C10.4859 25.6771 9.92766 25.1184 9.23894 25.1184C8.55022 25.1184 7.99191 25.6771 7.99191 26.3662C7.99191 27.0553 8.55022 27.614 9.23894 27.614Z" fill="white"/>
<path d="M21.7091 4.61646L20.1156 7.37201" stroke="#4BE080" stroke-width="6" stroke-miterlimit="10" stroke-linecap="round" stroke-linejoin="round"/>
<path d="M21.761 5.89891C22.4498 5.89891 23.008 5.34026 23.008 4.65112C23.008 3.96197 22.4498 3.40332 21.761 3.40332C21.0723 3.40332 20.5141 3.96197 20.5141 4.65112C20.5141 5.34026 21.0723 5.89891 21.761 5.89891Z" fill="white"/>
<path d="M12.5124 21.531C13.4784 21.531 14.2616 20.7473 14.2616 19.7807C14.2616 18.8139 13.4784 18.0303 12.5124 18.0303C11.5463 18.0303 10.7631 18.8139 10.7631 19.7807C10.7631 20.7473 11.5463 21.531 12.5124 21.531Z" fill="#9DEDB8"/>
<path d="M13.7074 15.1359C14.1857 15.1359 14.5734 14.7479 14.5734 14.2694C14.5734 13.7908 14.1857 13.4028 13.7074 13.4028C13.2292 13.4028 12.8415 13.7908 12.8415 14.2694C12.8415 14.7479 13.2292 15.1359 13.7074 15.1359Z" fill="#9DEDB8"/>
<path d="M17.2926 14.7374C17.9048 14.7374 18.4011 14.2408 18.4011 13.6282C18.4011 13.0156 17.9048 12.519 17.2926 12.519C16.6804 12.519 16.1842 13.0156 16.1842 13.6282C16.1842 14.2408 16.6804 14.7374 17.2926 14.7374Z" fill="white"/>
</g>
<defs>
<clipPath id="clip0">
<rect width="31" height="31" fill="white"/>
</clipPath>
</defs>
</svg>
