<svg width="206" height="207" viewBox="0 0 206 207" fill="none" xmlns="http://www.w3.org/2000/svg">
<g clip-path="url(#clip0)">
<path d="M178.359 45.6417L178.364 45.6446C202.634 58.0355 205.208 91.9492 183.319 108.346C181.368 109.801 179.331 111.136 177.219 112.346L177.214 112.348C159.905 122.312 147.141 132.638 138.69 140.492C134.465 144.419 131.316 147.729 129.215 150.068C128.765 150.57 128.362 151.027 128.008 151.436C127.653 151.027 127.251 150.57 126.801 150.069C124.7 147.729 121.551 144.419 117.326 140.492C108.875 132.638 96.1115 122.312 78.8023 112.348L78.7975 112.346C76.6852 111.136 74.6479 109.8 72.6966 108.345C50.8082 91.9481 53.3827 58.0355 77.6564 45.6447L77.6624 45.6417C79.8476 44.5188 82.1488 43.6378 84.5253 43.0143C92.9237 40.8329 102.009 42.0756 109.651 45.6198C117.321 49.1764 123.256 54.9113 125.666 61.4105L128.01 67.729L130.354 61.4106C132.765 54.9119 138.7 49.1773 146.369 45.6207C154.011 42.0765 163.096 40.8334 171.496 43.0145C173.872 43.6379 176.174 44.5188 178.359 45.6417Z" fill="url(#paint0_linear)" stroke="#464965" stroke-width="5"/>
<path d="M151.158 98.1546C153.454 98.1546 155.315 96.2933 155.315 93.9971C155.315 91.701 153.454 89.8396 151.158 89.8396C148.861 89.8396 147 91.701 147 93.9971C147 96.2933 148.861 98.1546 151.158 98.1546Z" fill="#464965"/>
<path d="M50.5775 111.221C50.3558 111.221 50.1321 111.212 49.9064 111.194C48.2008 111.084 46.579 110.427 45.2898 109.323C44.0006 108.219 43.1151 106.729 42.7693 105.082L37.4845 81.5054C37.3389 80.8564 36.998 80.2655 36.5064 79.8096C36.0147 79.3537 35.395 79.0539 34.7278 78.9492C34.0607 78.8444 33.3769 78.9397 32.7655 79.2224C32.154 79.5052 31.6432 79.9624 31.2995 80.5347L24.8394 91.2925C23.896 92.8557 22.5562 94.1511 20.9512 95.0519C19.3461 95.9528 17.5309 96.4282 15.683 96.4318H0.29173C-0.316075 96.4318 -0.898984 96.1942 -1.32877 95.7714C-1.75855 95.3486 -2 94.7751 -2 94.1771C-2 93.5792 -1.75855 93.0057 -1.32877 92.5829C-0.898984 92.16 -0.316075 91.9225 0.29173 91.9225H15.683C16.7342 91.9202 17.7669 91.6495 18.6799 91.1369C19.593 90.6243 20.3551 89.8872 20.8918 88.9979L27.3518 78.2401C28.1636 76.8884 29.37 75.8084 30.8142 75.1405C32.2584 74.4726 33.8734 74.2477 35.4493 74.4952C37.0251 74.7426 38.4888 75.451 39.6498 76.528C40.8109 77.605 41.6156 79.0009 41.9593 80.534L47.244 104.111C47.3995 104.804 47.7771 105.43 48.3213 105.896C48.8655 106.362 49.5475 106.643 50.2667 106.699C50.9859 106.755 51.7043 106.582 52.3159 106.206C52.9276 105.829 53.4003 105.27 53.6642 104.609L59.1486 90.8789C59.6649 89.5863 60.527 88.4552 61.6437 87.6055C62.7603 86.7558 64.0898 86.2192 65.4912 86.0525C66.8927 85.8857 68.3139 86.0951 69.6042 86.6585C70.8945 87.2218 72.0058 88.1181 72.8204 89.2524C73.3797 90.0296 74.1201 90.6637 74.9796 91.1015C75.8391 91.5394 76.7928 91.7684 77.7607 91.7692H90.7372C91.345 91.7692 91.9279 92.0067 92.3577 92.4295C92.7874 92.8524 93.0289 93.4258 93.0289 94.0238C93.0289 94.6218 92.7874 95.1953 92.3577 95.6181C91.9279 96.0409 91.345 96.2784 90.7372 96.2784H77.7607C76.0593 96.2773 74.3829 95.8751 72.872 95.1053C71.3611 94.3355 70.0598 93.2207 69.077 91.8542C68.7396 91.3845 68.2792 91.0133 67.7448 90.78C67.2103 90.5467 66.6217 90.4601 66.0412 90.5292C65.4608 90.5984 64.9101 90.8207 64.4477 91.1727C63.9853 91.5247 63.6282 91.9933 63.4145 92.5287L57.9294 106.258C57.3673 107.726 56.361 108.989 55.0463 109.876C53.7316 110.764 52.1719 111.233 50.5775 111.221Z" fill="#464965"/>
<path d="M88 94H150" stroke="#464965" stroke-width="4.5" stroke-linejoin="round"/>
</g>
<defs>
<linearGradient id="paint0_linear" x1="128.008" y1="41.0832" x2="128.008" y2="165.038" gradientUnits="userSpaceOnUse">
<stop offset="0.9999" stop-color="#FFE3E3"/>
<stop offset="1" stop-color="#E2407A"/>
</linearGradient>
<clipPath id="clip0">
<rect width="205.5" height="205.5" fill="white" transform="translate(0.25 0.75)"/>
</clipPath>
</defs>
</svg>
