<svg width="43" height="43" viewBox="0 0 43 43" fill="none" xmlns="http://www.w3.org/2000/svg">
<path d="M21.4346 34.0982C28.4285 34.0982 34.0981 28.4285 34.0981 21.4346C34.0981 14.4407 28.4285 8.771 21.4346 8.771C14.4407 8.771 8.771 14.4407 8.771 21.4346C8.771 28.4285 14.4407 34.0982 21.4346 34.0982Z" fill="#4BE080"/>
<path d="M27.3272 10.1984C29.9258 12.5042 31.5728 15.908 31.5728 19.6778C31.5728 26.6684 25.8998 32.3414 18.9092 32.3414C16.7864 32.3414 14.81 31.829 13.0532 30.914C15.2858 32.8904 18.2138 34.0982 21.4712 34.0982C28.4618 34.0982 34.1348 28.4252 34.1348 21.4346C34.0982 16.5302 31.3532 12.3212 27.3272 10.1984Z" fill="#4ACC8A"/>
<path d="M21.4346 34.0982C28.4285 34.0982 34.0981 28.4285 34.0981 21.4346C34.0981 14.4407 28.4285 8.771 21.4346 8.771C14.4407 8.771 8.771 14.4407 8.771 21.4346C8.771 28.4285 14.4407 34.0982 21.4346 34.0982Z" stroke="#441A36" stroke-width="6" stroke-miterlimit="10" stroke-linecap="round" stroke-linejoin="round"/>
<path d="M21.3615 3.75677V8.22199" stroke="#441A36" stroke-width="6" stroke-miterlimit="10" stroke-linecap="round" stroke-linejoin="round"/>
<path d="M21.4346 5.51361C22.4049 5.51361 23.1914 4.72705 23.1914 3.75679C23.1914 2.78652 22.4049 1.99994 21.4346 1.99994C20.4644 1.99994 19.6779 2.78652 19.6779 3.75679C19.6779 4.72705 20.4644 5.51361 21.4346 5.51361Z" fill="#441A36"/>
<path d="M21.5078 39.1124V34.6106" stroke="#441A36" stroke-width="6" stroke-miterlimit="10" stroke-linecap="round" stroke-linejoin="round"/>
<path d="M21.4346 40.8692C22.4049 40.8692 23.1914 40.0827 23.1914 39.1124C23.1914 38.1422 22.4049 37.3557 21.4346 37.3557C20.4644 37.3557 19.6779 38.1422 19.6779 39.1124C19.6779 40.0827 20.4644 40.8692 21.4346 40.8692Z" fill="#441A36"/>
<path d="M12.5408 6.1358L14.7734 10.0154" stroke="#441A36" stroke-width="6" stroke-miterlimit="10" stroke-linecap="round" stroke-linejoin="round"/>
<path d="M12.614 7.85598C13.5843 7.85598 14.3708 7.06944 14.3708 6.09919C14.3708 5.12895 13.5843 4.34241 12.614 4.34241C11.6437 4.34241 10.8572 5.12895 10.8572 6.09919C10.8572 7.06944 11.6437 7.85598 12.614 7.85598Z" fill="#441A36"/>
<path d="M30.365 36.6968L28.1324 32.8172" stroke="#441A36" stroke-width="6" stroke-miterlimit="10" stroke-linecap="round" stroke-linejoin="round"/>
<path d="M30.2918 38.4902C31.262 38.4902 32.0486 37.7036 32.0486 36.7334C32.0486 35.7631 31.262 34.9766 30.2918 34.9766C29.3216 34.9766 28.535 35.7631 28.535 36.7334C28.535 37.7036 29.3216 38.4902 30.2918 38.4902Z" fill="#441A36"/>
<path d="M6.09924 12.6506L9.97876 14.8832" stroke="#441A36" stroke-width="6" stroke-miterlimit="10" stroke-linecap="round" stroke-linejoin="round"/>
<path d="M6.1358 14.3342C7.10604 14.3342 7.89258 13.5477 7.89258 12.5774C7.89258 11.6072 7.10604 10.8206 6.1358 10.8206C5.16556 10.8206 4.37903 11.6072 4.37903 12.5774C4.37903 13.5477 5.16556 14.3342 6.1358 14.3342Z" fill="#441A36"/>
<path d="M36.8066 30.182L32.927 27.9494" stroke="#441A36" stroke-width="6" stroke-miterlimit="10" stroke-linecap="round" stroke-linejoin="round"/>
<path d="M36.7334 32.012C37.7037 32.012 38.4902 31.2255 38.4902 30.2552C38.4902 29.285 37.7037 28.4984 36.7334 28.4984C35.7631 28.4984 34.9766 29.285 34.9766 30.2552C34.9766 31.2255 35.7631 32.012 36.7334 32.012Z" fill="#441A36"/>
<path d="M3.75684 21.5078H8.22205" stroke="#441A36" stroke-width="6" stroke-miterlimit="10" stroke-linecap="round" stroke-linejoin="round"/>
<path d="M3.75678 23.1914C4.72702 23.1914 5.51355 22.4048 5.51355 21.4346C5.51355 20.4643 4.72702 19.6777 3.75678 19.6777C2.78654 19.6777 2 20.4643 2 21.4346C2 22.4048 2.78654 23.1914 3.75678 23.1914Z" fill="#441A36"/>
<path d="M39.1124 21.3248H34.6472" stroke="#441A36" stroke-width="6" stroke-miterlimit="10" stroke-linecap="round" stroke-linejoin="round"/>
<path d="M39.1124 23.1914C40.0826 23.1914 40.8691 22.4048 40.8691 21.4346C40.8691 20.4643 40.0826 19.6777 39.1124 19.6777C38.1421 19.6777 37.3556 20.4643 37.3556 21.4346C37.3556 22.4048 38.1421 23.1914 39.1124 23.1914Z" fill="#441A36"/>
<path d="M6.17236 30.3284L10.052 28.0958" stroke="#441A36" stroke-width="6" stroke-miterlimit="10" stroke-linecap="round" stroke-linejoin="round"/>
<path d="M6.1358 32.012C7.10604 32.012 7.89258 31.2255 7.89258 30.2552C7.89258 29.285 7.10604 28.4984 6.1358 28.4984C5.16556 28.4984 4.37903 29.285 4.37903 30.2552C4.37903 31.2255 5.16556 32.012 6.1358 32.012Z" fill="#441A36"/>
<path d="M36.6968 12.5042L32.8171 14.7368" stroke="#441A36" stroke-width="6" stroke-miterlimit="10" stroke-linecap="round" stroke-linejoin="round"/>
<path d="M36.7334 14.3342C37.7037 14.3342 38.4902 13.5477 38.4902 12.5774C38.4902 11.6072 37.7037 10.8206 36.7334 10.8206C35.7631 10.8206 34.9766 11.6072 34.9766 12.5774C34.9766 13.5477 35.7631 14.3342 36.7334 14.3342Z" fill="#441A36"/>
<path d="M12.6873 36.77L14.9198 32.8904" stroke="#441A36" stroke-width="6" stroke-miterlimit="10" stroke-linecap="round" stroke-linejoin="round"/>
<path d="M12.614 38.4902C13.5843 38.4902 14.3708 37.7037 14.3708 36.7334C14.3708 35.7632 13.5843 34.9766 12.614 34.9766C11.6437 34.9766 10.8572 35.7632 10.8572 36.7334C10.8572 37.7037 11.6437 38.4902 12.614 38.4902Z" fill="#441A36"/>
<path d="M30.2186 6.06262L27.986 9.94223" stroke="#441A36" stroke-width="6" stroke-miterlimit="10" stroke-linecap="round" stroke-linejoin="round"/>
<path d="M30.2918 7.85598C31.262 7.85598 32.0486 7.06944 32.0486 6.09919C32.0486 5.12895 31.262 4.34241 30.2918 4.34241C29.3216 4.34241 28.535 5.12895 28.535 6.09919C28.535 7.06944 29.3216 7.85598 30.2918 7.85598Z" fill="#441A36"/>
<path d="M17.2256 29.9258C18.58 29.9258 19.6779 28.8279 19.6779 27.4736C19.6779 26.1193 18.58 25.0214 17.2256 25.0214C15.8713 25.0214 14.7734 26.1193 14.7734 27.4736C14.7734 28.8279 15.8713 29.9258 17.2256 29.9258Z" fill="#9DEDB8"/>
<path d="M18.9092 20.9222C19.5964 20.9222 20.1536 20.3651 20.1536 19.6778C20.1536 18.9906 19.5964 18.4334 18.9092 18.4334C18.2219 18.4334 17.6648 18.9906 17.6648 19.6778C17.6648 20.3651 18.2219 20.9222 18.9092 20.9222Z" fill="#9DEDB8"/>
<path d="M23.96 20.3366C24.8292 20.3366 25.5338 19.632 25.5338 18.7628C25.5338 17.8936 24.8292 17.189 23.96 17.189C23.0908 17.189 22.3862 17.8936 22.3862 18.7628C22.3862 19.632 23.0908 20.3366 23.96 20.3366Z" fill="#4ACC8A"/>
</svg>
