<svg width="106" height="106" viewBox="0 0 106 106" fill="none" xmlns="http://www.w3.org/2000/svg">
<path d="M66.1237 66.8887L69.7437 72.3187C70.1974 72.9993 70.8121 73.5574 71.5333 73.9433C72.2545 74.3293 73.0599 74.5312 73.8779 74.5312H86.125C87.4428 74.5312 88.7066 74.0078 89.6384 73.0759C90.5703 72.1441 91.0938 70.8803 91.0938 69.5625V53.3646C91.0937 52.0335 90.802 50.7186 90.2391 49.5124L82.734 33.43C81.7677 31.3592 80.2305 29.6071 78.303 28.3796C76.3756 27.152 74.1378 26.5 71.8527 26.5H71.6328C69.7659 26.5 67.9755 27.2416 66.6554 28.5617C65.3354 29.8818 64.5938 31.6722 64.5938 33.5391V61.8357C64.5938 63.6341 65.1261 65.3923 66.1237 66.8887Z" fill="#FFF4CC"/>
<path d="M85.8468 53.7374L77.3357 40.9127C77.2151 40.7317 77.06 40.5763 76.8792 40.4552C76.6985 40.3342 76.4957 40.25 76.2825 40.2073C76.0692 40.1646 75.8496 40.1644 75.6362 40.2066C75.4229 40.2488 75.2199 40.3326 75.0389 40.4533C74.2779 40.9605 75.9583 44.8765 76.4658 45.6376L81.8879 53.7706L78.9762 54.7411C78.6464 54.8511 78.3596 55.062 78.1564 55.344C77.9531 55.626 77.8437 55.9649 77.8438 56.3125V61.2812C77.8438 61.7205 78.0183 62.1418 78.3289 62.4524C78.6395 62.763 79.0608 62.9375 79.5 62.9375C79.9393 62.9375 80.3606 62.763 80.6712 62.4524C80.9818 62.1418 81.1563 61.7205 81.1563 61.2812V57.5062L82.8125 56.9541V61.2812C82.8125 61.7205 82.987 62.1418 83.2976 62.4524C83.6082 62.763 84.0295 62.9375 84.4688 62.9375C84.908 62.9375 85.3293 62.763 85.6399 62.4524C85.9505 62.1418 86.125 61.7205 86.125 61.2812V54.6562C86.125 54.3292 86.0282 54.0095 85.8468 53.7374Z" fill="#FFF4CC"/>
<path d="M74.5312 62.2516V51.3438C74.5312 50.9045 74.3567 50.4832 74.0461 50.1726C73.7355 49.862 73.3143 49.6875 72.875 49.6875C72.4357 49.6875 72.0144 49.862 71.7038 50.1726C71.3932 50.4832 71.2187 50.9045 71.2187 51.3438V55.6264L68.3913 58.4538C68.0807 58.7644 67.9062 59.1857 67.9062 59.625C67.9062 60.0643 68.0807 60.4856 68.3913 60.7962C68.7019 61.1068 69.1232 61.2813 69.5625 61.2813C70.0018 61.2813 70.423 61.1068 70.7337 60.7962L71.2187 60.3111V62.9375C71.2187 63.155 71.2616 63.3704 71.3448 63.5713C71.428 63.7723 71.55 63.9549 71.7038 64.1087L75.0163 67.4212C75.3269 67.7318 75.7482 67.9063 76.1875 67.9063C76.6268 67.9063 77.0481 67.7318 77.3587 67.4212C77.6693 67.1106 77.8438 66.6893 77.8438 66.25C77.8438 65.8107 77.6693 65.3894 77.3587 65.0788L74.5312 62.2516Z" fill="#FFF4CC"/>
<path d="M81.1562 101.031C91.2182 101.031 99.375 92.8744 99.375 82.8125C99.375 72.7506 91.2182 64.5938 81.1562 64.5938C71.0943 64.5938 62.9375 72.7506 62.9375 82.8125C62.9375 92.8744 71.0943 101.031 81.1562 101.031Z" fill="#4BE080"/>
<path d="M78.1868 80.5559C77.9123 80.5562 77.6421 80.4883 77.4004 80.3582C77.1587 80.2281 76.9532 80.0399 76.8024 79.8105L74.0679 75.6618C73.9482 75.4802 73.8654 75.2768 73.8244 75.0632C73.7833 74.8496 73.7847 74.63 73.8285 74.417C73.8722 74.2039 73.9576 74.0016 74.0795 73.8215C74.2015 73.6414 74.3578 73.4871 74.5394 73.3674C74.721 73.2477 74.9244 73.165 75.138 73.1239C75.3516 73.0828 75.5712 73.0842 75.7843 73.128C75.9973 73.1718 76.1997 73.2571 76.3798 73.3791C76.5598 73.5011 76.7141 73.6573 76.8338 73.8389L79.5681 77.9887C79.7325 78.2382 79.8262 78.5276 79.8395 78.8262C79.8527 79.1247 79.785 79.4212 79.6434 79.6844C79.5018 79.9475 79.2916 80.1675 79.0352 80.3209C78.7788 80.4743 78.4856 80.5555 78.1868 80.5559Z" fill="#C75B93"/>
<path d="M76.0541 83.7056C75.9416 83.7057 75.8294 83.6942 75.7192 83.6713L70.8521 82.6711C70.6366 82.6298 70.4316 82.5461 70.2488 82.4249C70.0659 82.3037 69.909 82.1474 69.7871 81.965C69.6652 81.7827 69.5807 81.5779 69.5386 81.3626C69.4965 81.1474 69.4975 80.9259 69.5417 80.711C69.5858 80.4962 69.6722 80.2922 69.7958 80.111C69.9195 79.9298 70.0779 79.775 70.2618 79.6555C70.4458 79.536 70.6516 79.4543 70.8674 79.415C71.0832 79.3757 71.3047 79.3797 71.5189 79.4267L76.3858 80.4269C76.7877 80.5093 77.1446 80.7378 77.3876 81.0683C77.6306 81.3988 77.7423 81.8077 77.701 82.2159C77.6598 82.624 77.4686 83.0023 77.1644 83.2775C76.8602 83.5527 76.4648 83.7053 76.0546 83.7056H76.0541Z" fill="#C75B93"/>
<path d="M72.6239 90.1743C72.2674 90.1747 71.9204 90.0602 71.6342 89.8476C71.3481 89.6351 71.1382 89.3359 71.0357 88.9946C70.9331 88.6532 70.9434 88.2879 71.0651 87.9528C71.1867 87.6178 71.4132 87.331 71.7109 87.1349L75.8596 84.4006C76.0411 84.2759 76.2456 84.1887 76.4613 84.144C76.6769 84.0993 76.8993 84.098 77.1154 84.1403C77.3315 84.1826 77.537 84.2675 77.7199 84.3902C77.9028 84.5128 78.0594 84.6707 78.1806 84.8546C78.3017 85.0385 78.385 85.2448 78.4255 85.4612C78.4659 85.6777 78.4629 85.9001 78.4164 86.1153C78.3699 86.3306 78.281 86.5344 78.1548 86.7149C78.0286 86.8953 77.8677 87.0488 77.6814 87.1664L73.5329 89.9006C73.2633 90.079 72.9472 90.1742 72.6239 90.1743Z" fill="#C75B93"/>
<path d="M78.9203 94.4398C78.6745 94.4397 78.4317 94.3849 78.2096 94.2795C77.9875 94.174 77.7917 94.0205 77.6362 93.83C77.4808 93.6396 77.3696 93.4169 77.3108 93.1782C77.252 92.9395 77.247 92.6907 77.2961 92.4498L78.2963 87.5827C78.3401 87.3697 78.4254 87.1673 78.5474 86.9872C78.6694 86.8071 78.8257 86.6529 79.0073 86.5332C79.1889 86.4135 79.3923 86.3307 79.6059 86.2896C79.8195 86.2486 80.0391 86.2499 80.2521 86.2937C80.4652 86.3375 80.6675 86.4228 80.8476 86.5448C81.0277 86.6668 81.182 86.8231 81.3017 87.0047C81.4214 87.1863 81.5041 87.3897 81.5452 87.6033C81.5863 87.8169 81.5849 88.0365 81.5411 88.2496L80.541 93.1167C80.4643 93.49 80.2612 93.8255 79.966 94.0665C79.6708 94.3075 79.3014 94.4394 78.9203 94.4398Z" fill="#C75B93"/>
<path d="M86.3898 93.003C86.1153 93.0032 85.8451 92.9352 85.6035 92.8051C85.3618 92.675 85.1563 92.4869 85.0054 92.2577L82.2711 88.109C82.0325 87.7422 81.9487 87.2959 82.038 86.8676C82.1274 86.4393 82.3826 86.0637 82.7479 85.8229C83.1133 85.5821 83.559 85.4956 83.9879 85.5824C84.4168 85.6692 84.7939 85.9222 85.0368 86.2861L87.7713 90.4348C87.9357 90.6844 88.0294 90.9738 88.0427 91.2723C88.0559 91.5709 87.9882 91.8674 87.8465 92.1306C87.7049 92.3937 87.4947 92.6137 87.2383 92.7671C86.9818 92.9205 86.6886 93.0017 86.3898 93.002V93.003Z" fill="#C75B93"/>
<path d="M90.6554 86.7059C90.5429 86.7059 90.4307 86.6944 90.3205 86.6716L85.4534 85.6716C85.2387 85.6295 85.0346 85.5453 84.8526 85.4238C84.6707 85.3023 84.5147 85.146 84.3935 84.9639C84.2723 84.7818 84.1884 84.5775 84.1466 84.3628C84.1048 84.1481 84.106 83.9273 84.15 83.713C84.194 83.4988 84.28 83.2953 84.4031 83.1145C84.5262 82.9337 84.6838 82.779 84.867 82.6595C85.0501 82.5399 85.2552 82.4578 85.4702 82.4179C85.6853 82.378 85.9061 82.3811 86.12 82.427L90.9871 83.427C91.3892 83.5091 91.7464 83.7376 91.9896 84.0682C92.2328 84.3988 92.3446 84.8078 92.3033 85.2162C92.2621 85.6245 92.0707 86.0029 91.7663 86.2782C91.462 86.5534 91.0662 86.7058 90.6559 86.7059H90.6554Z" fill="#C75B93"/>
<path d="M85.0691 81.9713C84.7127 81.9718 84.3656 81.8572 84.0795 81.6446C83.7934 81.4321 83.5834 81.1329 83.4809 80.7916C83.3784 80.4502 83.3887 80.0849 83.5103 79.7498C83.632 79.4148 83.8584 79.128 84.1561 78.9319L88.3048 76.1974C88.4864 76.0777 88.6898 75.995 88.9034 75.9539C89.117 75.9128 89.3366 75.9141 89.5496 75.9579C89.7627 76.0017 89.965 76.087 90.1451 76.2089C90.3252 76.3309 90.4795 76.4871 90.5992 76.6687C90.7189 76.8503 90.8017 77.0537 90.8428 77.2673C90.8839 77.4809 90.8825 77.7005 90.8388 77.9136C90.795 78.1266 90.7097 78.329 90.5877 78.5091C90.4658 78.6892 90.3095 78.8435 90.1279 78.9632L85.98 81.6976C85.7099 81.8764 85.3931 81.9716 85.0691 81.9713Z" fill="#C75B93"/>
<path d="M81.9223 79.8387C81.6764 79.8386 81.4336 79.7839 81.2115 79.6784C80.9894 79.5729 80.7935 79.4194 80.6381 79.2289C80.4826 79.0384 80.3715 78.8157 80.3127 78.577C80.2539 78.3382 80.2489 78.0894 80.2981 77.8485L81.2983 72.9816C81.3867 72.5513 81.6424 72.1738 82.0092 71.932C82.3759 71.6903 82.8237 71.6042 83.254 71.6926C83.6843 71.781 84.0618 72.0367 84.3036 72.4034C84.5453 72.7702 84.6315 73.218 84.5431 73.6483L83.5429 78.5154C83.4663 78.8887 83.2632 79.2243 82.968 79.4654C82.6728 79.7064 82.3034 79.8383 81.9223 79.8387Z" fill="#C75B93"/>
<path d="M39.8763 66.8887L36.2563 72.3187C35.8026 72.9993 35.1879 73.5574 34.4667 73.9433C33.7455 74.3293 32.9401 74.5312 32.1221 74.5312H19.875C18.5572 74.5312 17.2934 74.0078 16.3616 73.0759C15.4297 72.1441 14.9062 70.8803 14.9062 69.5625V53.3646C14.9063 52.0335 15.198 50.7186 15.7609 49.5124L23.266 33.43C24.2323 31.3592 25.7695 29.6071 27.697 28.3796C29.6244 27.152 31.8622 26.5 34.1473 26.5H34.3672C36.2341 26.5 38.0245 27.2416 39.3446 28.5617C40.6646 29.8818 41.4062 31.6722 41.4062 33.5391V61.8357C41.4062 63.6341 40.8739 65.3923 39.8763 66.8887Z" fill="#FFF4CC"/>
<path d="M57.9688 4.96875H48.0312V51.3438H57.9688V4.96875Z" fill="#FFF4CC"/>
<path d="M57.9688 4.96875H48.0312V11.5938H57.9688V4.96875Z" fill="#FFF4CC"/>
<path d="M57.9688 18.2188H48.0312V24.8438H57.9688V18.2188Z" fill="#FFF4CC"/>
<path d="M57.9688 31.4688H48.0312V38.0938H57.9688V31.4688Z" fill="#FFF4CC"/>
<path d="M57.9688 44.7188H48.0312V51.3438H57.9688V44.7188Z" fill="#FFF4CC"/>
<path d="M48.0312 29.4765L30.4452 38.2695C29.7574 38.6134 29.1789 39.142 28.7746 39.7962C28.3704 40.4503 28.1562 41.2041 28.1563 41.9731V51.0077H34.7812V42.7265L48.0312 36.1015V29.4765Z" fill="#FFF4CC"/>
<path d="M28.1562 56.3125C28.1563 55.9649 28.0469 55.626 27.8437 55.344C27.6404 55.062 27.3536 54.8511 27.0238 54.7411L24.1121 53.7706L29.5342 45.6376C29.7779 45.2721 29.8664 44.8248 29.7803 44.3941C29.6942 43.9633 29.4405 43.5844 29.0751 43.3408C28.314 42.8335 30.3199 38.9887 29.8125 39.75L20.1533 53.7374C19.9718 54.0095 19.875 54.3292 19.875 54.6563V61.2812C19.875 61.7205 20.0495 62.1418 20.3601 62.4524C20.6707 62.763 21.092 62.9375 21.5312 62.9375C21.9705 62.9375 22.3918 62.763 22.7024 62.4524C23.013 62.1418 23.1875 61.7205 23.1875 61.2812V56.9543L24.8437 57.5065V61.2812C24.8437 61.7205 25.0182 62.1418 25.3289 62.4524C25.6395 62.763 26.0607 62.9375 26.5 62.9375C26.9393 62.9375 27.3605 62.763 27.6711 62.4524C27.9818 62.1418 28.1562 61.7205 28.1562 61.2812V56.3125Z" fill="#FFF4CC"/>
<path d="M37.6087 58.4538L34.7813 55.6264V51.3438C34.7813 50.9045 34.6068 50.4832 34.2961 50.1726C33.9855 49.862 33.5643 49.6875 33.125 49.6875C32.6857 49.6875 32.2645 49.862 31.9539 50.1726C31.6432 50.4832 31.4688 50.9045 31.4688 51.3438V62.2516L28.6413 65.0788C28.4875 65.2326 28.3655 65.4152 28.2823 65.6162C28.1991 65.8171 28.1562 66.0325 28.1563 66.25V69.5625C28.1563 70.0018 28.3307 70.423 28.6414 70.7336C28.952 71.0443 29.3732 71.2188 29.8125 71.2188C30.2518 71.2188 30.673 71.0443 30.9836 70.7336C31.2943 70.423 31.4688 70.0018 31.4688 69.5625V66.9359L34.2962 64.1087C34.45 63.9549 34.572 63.7723 34.6552 63.5713C34.7384 63.3704 34.7813 63.155 34.7813 62.9375V60.3111L35.2663 60.7962C35.4201 60.95 35.6027 61.072 35.8037 61.1552C36.0046 61.2385 36.22 61.2813 36.4375 61.2813C36.655 61.2813 36.8704 61.2385 37.0713 61.1552C37.2723 61.072 37.4549 60.95 37.6087 60.7962C37.7625 60.6424 37.8845 60.4598 37.9677 60.2588C38.051 60.0579 38.0938 59.8425 38.0938 59.625C38.0938 59.4075 38.051 59.1921 37.9677 58.9912C37.8845 58.7902 37.7625 58.6076 37.6087 58.4538Z" fill="#FFF4CC"/>
<path d="M57.9688 29.4765L75.5548 38.2695C76.2426 38.6134 76.8211 39.142 77.2254 39.7962C77.6296 40.4503 77.8438 41.2041 77.8438 41.9731V51.0077H71.2188V42.7265L57.9688 36.1015V29.4765Z" fill="#FFF4CC"/>
<path d="M80.9196 88.0179C83.6638 88.0179 85.8884 85.7933 85.8884 83.0491C85.8884 80.305 83.6638 78.0804 80.9196 78.0804C78.1755 78.0804 75.9509 80.305 75.9509 83.0491C75.9509 85.7933 78.1755 88.0179 80.9196 88.0179Z" fill="#E46CA5"/>
<path d="M74.5395 76.6813C76.369 76.6813 77.852 75.1982 77.852 73.3688C77.852 71.5393 76.369 70.0563 74.5395 70.0563C72.7101 70.0563 71.227 71.5393 71.227 73.3688C71.227 75.1982 72.7101 76.6813 74.5395 76.6813Z" fill="#E46CA5"/>
<path d="M69.5631 84.028C71.3926 84.028 72.8756 82.5449 72.8756 80.7155C72.8756 78.886 71.3926 77.403 69.5631 77.403C67.7337 77.403 66.2506 78.886 66.2506 80.7155C66.2506 82.5449 67.7337 84.028 69.5631 84.028Z" fill="#E46CA5"/>
<path d="M71.2393 92.7417C73.0687 92.7417 74.5518 91.2587 74.5518 89.4292C74.5518 87.5998 73.0687 86.1167 71.2393 86.1167C69.4098 86.1167 67.9268 87.5998 67.9268 89.4292C67.9268 91.2587 69.4098 92.7417 71.2393 92.7417Z" fill="#E46CA5"/>
<path d="M78.5862 97.7181C80.4156 97.7181 81.8987 96.2351 81.8987 94.4056C81.8987 92.5762 80.4156 91.0931 78.5862 91.0931C76.7567 91.0931 75.2737 92.5762 75.2737 94.4056C75.2737 96.2351 76.7567 97.7181 78.5862 97.7181Z" fill="#E46CA5"/>
<path d="M87.2999 96.042C89.1293 96.042 90.6124 94.5589 90.6124 92.7295C90.6124 90.9001 89.1293 89.417 87.2999 89.417C85.4705 89.417 83.9874 90.9001 83.9874 92.7295C83.9874 94.5589 85.4705 96.042 87.2999 96.042Z" fill="#E46CA5"/>
<path d="M92.2761 88.6951C94.1056 88.6951 95.5886 87.212 95.5886 85.3826C95.5886 83.5531 94.1056 82.0701 92.2761 82.0701C90.4467 82.0701 88.9636 83.5531 88.9636 85.3826C88.9636 87.212 90.4467 88.6951 92.2761 88.6951Z" fill="#E46CA5"/>
<path d="M90.6 79.9814C92.4294 79.9814 93.9125 78.4983 93.9125 76.6689C93.9125 74.8394 92.4294 73.3564 90.6 73.3564C88.7705 73.3564 87.2875 74.8394 87.2875 76.6689C87.2875 78.4983 88.7705 79.9814 90.6 79.9814Z" fill="#E46CA5"/>
<path d="M83.2532 75.0051C85.0827 75.0051 86.5657 73.5221 86.5657 71.6926C86.5657 69.8632 85.0827 68.3801 83.2532 68.3801C81.4238 68.3801 79.9407 69.8632 79.9407 71.6926C79.9407 73.5221 81.4238 75.0051 83.2532 75.0051Z" fill="#E46CA5"/>
<path d="M92.75 66.6792V53.3648C92.7477 51.7919 92.4031 50.2383 91.7401 48.812L84.2348 32.7296C83.1304 30.3768 81.3801 28.3864 79.1878 26.9902C76.9956 25.5941 74.4517 24.8497 71.8527 24.8438H71.6328C69.8271 24.8461 68.0668 25.4096 66.5955 26.4564C65.1242 27.5032 64.0147 28.9815 63.4205 30.6866L59.625 28.7889V4.96875C59.625 4.52949 59.4505 4.10821 59.1399 3.7976C58.8293 3.487 58.408 3.3125 57.9688 3.3125H48.0313C47.592 3.3125 47.1707 3.487 46.8601 3.7976C46.5495 4.10821 46.375 4.52949 46.375 4.96875V28.7889L42.5814 30.6858C41.9873 28.9802 40.8776 27.5017 39.4058 26.4549C37.9341 25.4082 36.1732 24.8451 34.3672 24.8438H34.1473C31.5483 24.8497 29.0044 25.5941 26.8122 26.9902C24.6199 28.3864 22.8696 30.3768 21.7652 32.7296L14.2599 48.812C13.5969 50.2383 13.2523 51.7919 13.25 53.3648V69.5625C13.252 71.319 13.9506 73.0029 15.1926 74.2449C16.4346 75.4869 18.1185 76.1855 19.875 76.1875H32.1221C33.213 76.1887 34.2872 75.9199 35.249 75.4051C36.2108 74.8904 37.0302 74.1456 37.6343 73.2373L41.2545 67.8073C42.4352 66.0397 43.0645 63.9613 43.0625 61.8357V40.7736L46.375 39.1173V51.3438C46.375 51.783 46.5495 52.2043 46.8601 52.5149C47.1707 52.8255 47.592 53 48.0313 53H57.9688C58.408 53 58.8293 52.8255 59.1399 52.5149C59.4505 52.2043 59.625 51.783 59.625 51.3438V39.1173L62.9375 40.7736V61.8357C62.9355 63.9613 63.5648 66.0397 64.7455 67.8073L66.1053 69.8467C63.4902 72.8808 61.853 76.6343 61.4084 80.615C60.9637 84.5957 61.7323 88.6179 63.6134 92.1542C65.4945 95.6905 68.4004 98.5758 71.9499 100.432C75.4994 102.288 79.527 103.028 83.5044 102.555C87.4819 102.082 91.2237 100.419 94.2392 97.7821C97.2546 95.1456 99.403 91.6594 100.403 87.7807C101.402 83.9019 101.206 79.8116 99.8408 76.0461C98.4753 72.2806 96.0037 69.0156 92.7502 66.6792H92.75ZM39.75 61.8357C39.7514 63.3073 39.3157 64.7462 38.4983 65.9699L34.8783 71.3999C34.5763 71.854 34.1665 72.2264 33.6856 72.4838C33.2047 72.7411 32.6676 72.8755 32.1221 72.875H19.875C18.9968 72.874 18.1548 72.5246 17.5339 71.9036C16.9129 71.2827 16.5635 70.4407 16.5625 69.5625V53.3648C16.5641 52.2758 16.8027 51.2003 17.2616 50.2127L24.7669 34.1301C25.6036 32.3478 26.9296 30.8399 28.5904 29.7823C30.2512 28.7246 32.1784 28.1607 34.1473 28.1562H34.3672C35.5594 28.1568 36.7178 28.5528 37.6609 29.2822C38.604 30.0115 39.2785 31.033 39.579 32.1867L29.7036 37.124C28.7386 37.6028 27.9271 38.3423 27.3609 39.2587C26.7946 40.175 26.4964 41.2317 26.5 42.3089V44.2173L20.1533 53.7374C19.9718 54.0095 19.875 54.3292 19.875 54.6562V61.2812C19.875 61.7205 20.0495 62.1418 20.3601 62.4524C20.6707 62.763 21.092 62.9375 21.5313 62.9375C21.9705 62.9375 22.3918 62.763 22.7024 62.4524C23.013 62.1418 23.1875 61.7205 23.1875 61.2812V56.9543L24.8438 57.5065V61.2812C24.8438 61.7205 25.0182 62.1418 25.3289 62.4524C25.6395 62.763 26.0607 62.9375 26.5 62.9375C26.9393 62.9375 27.3605 62.763 27.6711 62.4524C27.9818 62.1418 28.1563 61.7205 28.1563 61.2812V56.3125C28.1563 55.9649 28.0469 55.626 27.8437 55.344C27.6404 55.062 27.3536 54.8511 27.0238 54.7411L24.1121 53.7706L26.5 50.1889V51.3438C26.5 51.783 26.6745 52.2043 26.9851 52.5149C27.2957 52.8255 27.717 53 28.1563 53H31.4688V62.2516L28.6413 65.0788C28.4875 65.2326 28.3655 65.4152 28.2823 65.6162C28.1991 65.8171 28.1562 66.0325 28.1563 66.25V69.5625C28.1563 70.0018 28.3307 70.423 28.6414 70.7337C28.952 71.0443 29.3732 71.2188 29.8125 71.2188C30.2518 71.2188 30.673 71.0443 30.9836 70.7337C31.2943 70.423 31.4688 70.0018 31.4688 69.5625V66.9359L34.2962 64.1087C34.45 63.9549 34.572 63.7723 34.6552 63.5713C34.7384 63.3704 34.7813 63.155 34.7813 62.9375V60.3111L35.2663 60.7962C35.4201 60.95 35.6027 61.072 35.8037 61.1552C36.0046 61.2385 36.22 61.2813 36.4375 61.2813C36.655 61.2813 36.8704 61.2385 37.0713 61.1552C37.2723 61.072 37.4549 60.95 37.6087 60.7962C37.7625 60.6424 37.8845 60.4598 37.9677 60.2588C38.051 60.0579 38.0938 59.8425 38.0938 59.625C38.0938 59.4075 38.051 59.1921 37.9677 58.9912C37.8845 58.7902 37.7625 58.6076 37.6087 58.4538L34.7813 55.6264V53C35.2205 53 35.6418 52.8255 35.9524 52.5149C36.263 52.2043 36.4375 51.783 36.4375 51.3438V44.0861L39.75 42.4298V61.8357ZM46.375 35.4139L34.0405 41.5812C33.7654 41.7188 33.5341 41.9302 33.3724 42.1918C33.2107 42.4534 33.125 42.7549 33.125 43.0625V49.6875H29.8125V42.3089C29.811 41.8472 29.9388 41.3943 30.1815 41.0016C30.4242 40.6089 30.7721 40.292 31.1857 40.0868L46.375 32.4923V35.4139ZM56.3125 49.6875H49.6875V46.375H56.3125V49.6875ZM56.3125 43.0625H49.6875V39.75H56.3125V43.0625ZM56.3125 36.4375H49.6875V33.125H56.3125V36.4375ZM56.3125 29.8125H49.6875V26.5H56.3125V29.8125ZM56.3125 23.1875H49.6875V19.875H56.3125V23.1875ZM56.3125 16.5625H49.6875V13.25H56.3125V16.5625ZM56.3125 9.9375H49.6875V6.625H56.3125V9.9375ZM71.6328 28.1562H71.8527C73.8216 28.1607 75.7488 28.7246 77.4096 29.7823C79.0704 30.8399 80.3964 32.3478 81.2331 34.1301L88.7384 50.2127C89.1973 51.2003 89.4359 52.2758 89.4375 53.3648V64.7472C85.191 62.7991 80.3939 62.4097 75.8888 63.6474C75.8335 63.5671 75.7711 63.4918 75.7024 63.4226L74.5313 62.2516V56.8982V53H77.8438C78.283 53 78.7043 52.8255 79.0149 52.5149C79.3255 52.2043 79.5 51.783 79.5 51.3438V50.1889L81.8879 53.7706L78.9762 54.7411C78.6464 54.8511 78.3596 55.062 78.1563 55.344C77.9531 55.626 77.8437 55.9649 77.8438 56.3125V61.2812C77.8438 61.7205 78.0182 62.1418 78.3289 62.4524C78.6395 62.763 79.0607 62.9375 79.5 62.9375C79.9393 62.9375 80.3605 62.763 80.6712 62.4524C80.9818 62.1418 81.1563 61.7205 81.1563 61.2812V57.5062L82.8125 56.9541V61.2812C82.8125 61.7205 82.987 62.1418 83.2976 62.4524C83.6082 62.763 84.0295 62.9375 84.4688 62.9375C84.908 62.9375 85.3293 62.763 85.6399 62.4524C85.9505 62.1418 86.125 61.7205 86.125 61.2812V54.6562C86.125 54.3292 86.0282 54.0095 85.8468 53.7374L79.5 44.2173V42.3089C79.5035 41.2316 79.2052 40.1749 78.6388 39.2585C78.0725 38.3421 77.2607 37.6026 76.2956 37.124L66.422 32.1874C66.7229 31.034 67.3975 30.0129 68.3403 29.2835C69.283 28.5542 70.4409 28.1578 71.6328 28.1562ZM59.625 35.4139V32.4923L74.8141 40.0868C75.2277 40.2919 75.5757 40.6088 75.8184 41.0015C76.0612 41.3943 76.189 41.8472 76.1875 42.3089V49.6875H72.875V43.0625C72.875 42.7549 72.7893 42.4534 72.6276 42.1918C72.466 41.9302 72.2346 41.7188 71.9595 41.5812L59.625 35.4139ZM71.2188 53V55.6264L68.3913 58.4538C68.0807 58.7644 67.9062 59.1857 67.9062 59.625C67.9062 60.0643 68.0807 60.4856 68.3913 60.7962C68.7019 61.1068 69.1232 61.2813 69.5625 61.2813C70.0018 61.2813 70.4231 61.1068 70.7337 60.7962L71.2188 60.3111V62.9375C71.2187 63.155 71.2616 63.3704 71.3448 63.5713C71.428 63.7723 71.55 63.9549 71.7038 64.1087L72.5127 64.9175C71.082 65.6118 69.7394 66.4747 68.5137 67.4878L67.5017 65.9699C66.6843 64.7462 66.2486 63.3073 66.25 61.8357V42.4298L69.5625 44.0861V51.3438C69.5625 51.783 69.737 52.2043 70.0476 52.5149C70.3582 52.8255 70.7795 53 71.2188 53ZM81.1563 99.375C77.8805 99.375 74.6783 98.4036 71.9546 96.5837C69.2309 94.7638 67.1081 92.1771 65.8545 89.1507C64.6009 86.1243 64.2729 82.7941 64.912 79.5813C65.5511 76.3685 67.1285 73.4174 69.4448 71.101C71.7611 68.7847 74.7123 67.2073 77.9251 66.5682C81.1379 65.9292 84.468 66.2572 87.4945 67.5107C90.5209 68.7643 93.1076 70.8872 94.9275 73.6109C96.7474 76.3346 97.7188 79.5368 97.7188 82.8125C97.7138 87.2036 95.9672 91.4135 92.8622 94.5184C89.7572 97.6234 85.5474 99.37 81.1563 99.375Z" fill="black"/>
<path d="M92.9427 82.138C92.3736 82.0211 91.7836 82.0562 91.2323 82.2397C90.681 82.4233 90.1878 82.7488 89.8023 83.1835L87.5382 82.7183C87.5084 82.099 87.3907 81.4871 87.1887 80.901L89.1187 79.629C89.7706 79.9556 90.5121 80.058 91.2282 79.9203C91.9442 79.7825 92.5948 79.4124 93.0791 78.8672C93.5633 78.322 93.8541 77.6323 93.9064 76.905C93.9587 76.1776 93.7696 75.4534 93.3683 74.8446C92.967 74.2357 92.3761 73.7763 91.6871 73.5375C90.9981 73.2987 90.2496 73.294 89.5576 73.524C88.8656 73.754 88.2689 74.2059 87.86 74.8096C87.451 75.4133 87.2527 76.1351 87.2957 76.863L85.3646 78.1357C84.905 77.7208 84.3892 77.3728 83.8325 77.102L84.2988 74.8331C84.9907 74.6031 85.5874 74.1512 85.9964 73.5474C86.4053 72.9437 86.6036 72.2219 86.5606 71.494C86.5175 70.7661 86.2354 70.0727 85.7581 69.5215C85.2808 68.9702 84.6349 68.5918 83.9207 68.445C83.2064 68.2983 82.4637 68.3913 81.8076 68.7096C81.1516 69.028 80.619 69.5539 80.2923 70.2058C79.9657 70.8577 79.8632 71.5992 80.0009 72.3153C80.1387 73.0314 80.5088 73.682 81.054 74.1663L80.5877 76.4353C79.9693 76.4648 79.3581 76.5812 78.7721 76.7811L77.4994 74.8501C77.8261 74.1981 77.9285 73.4566 77.7907 72.7405C77.653 72.0245 77.2828 71.3739 76.7376 70.8896C76.1924 70.4054 75.5026 70.1146 74.7753 70.0623C74.048 70.01 73.3238 70.1992 72.7149 70.6005C72.1061 71.0018 71.6467 71.5928 71.4079 72.2818C71.1692 72.9708 71.1645 73.7193 71.3945 74.4113C71.6246 75.1033 72.0765 75.7 72.6802 76.1089C73.284 76.5178 74.0058 76.7161 74.7337 76.673L76.0063 78.604C75.5914 79.0635 75.2433 79.5793 74.9724 80.136L72.7036 79.6698C72.4736 78.9778 72.0217 78.381 71.4179 77.9721C70.8142 77.5631 70.0924 77.3648 69.3644 77.4078C68.6365 77.4509 67.9431 77.733 67.3919 78.2103C66.8406 78.6877 66.4622 79.3336 66.3154 80.0478C66.1687 80.7621 66.2617 81.5049 66.5801 82.1609C66.8985 82.8169 67.4245 83.3496 68.0765 83.6762C68.7284 84.0028 69.47 84.1052 70.186 83.9674C70.9021 83.8296 71.5527 83.4594 72.0369 82.9141L74.3058 83.3806C74.3352 83.999 74.4515 84.6103 74.6515 85.1963L72.7205 86.4689C72.0686 86.1422 71.3271 86.0399 70.611 86.1776C69.8949 86.3153 69.2443 86.6855 68.7601 87.2307C68.2759 87.7759 67.9851 88.4657 67.9328 89.193C67.8805 89.9203 68.0697 90.6446 68.471 91.2534C68.8723 91.8622 69.4632 92.3217 70.1523 92.5604C70.8413 92.7991 71.5898 92.8038 72.2818 92.5738C72.9737 92.3438 73.5704 91.8918 73.9794 91.2881C74.3883 90.6843 74.5866 89.9625 74.5435 89.2346L76.4734 87.9628C76.9324 88.3795 77.4482 88.729 78.0054 89.0007L77.5402 91.2647C76.8483 91.4948 76.2516 91.9468 75.8427 92.5505C75.4338 93.1543 75.2355 93.8761 75.2786 94.604C75.3217 95.3319 75.6039 96.0252 76.0812 96.5765C76.5585 97.1277 77.2044 97.506 77.9187 97.6528C78.633 97.7995 79.3757 97.7065 80.0317 97.3881C80.6877 97.0697 81.2203 96.5437 81.5469 95.8918C81.8736 95.2398 81.9759 94.4983 81.8382 93.7823C81.7004 93.0662 81.3302 92.4156 80.785 91.9314L81.2509 89.6642C81.8693 89.6342 82.4803 89.5165 83.0657 89.3147L84.3398 91.2476C84.0131 91.8995 83.9107 92.641 84.0485 93.3571C84.1862 94.0732 84.5564 94.7238 85.1016 95.208C85.6468 95.6923 86.3366 95.9831 87.0639 96.0353C87.7912 96.0876 88.5154 95.8984 89.1243 95.4971C89.7331 95.0958 90.1925 94.5049 90.4313 93.8159C90.67 93.1268 90.6747 92.3783 90.4447 91.6864C90.2146 90.9944 89.7627 90.3977 89.159 89.9888C88.5552 89.5798 87.8334 89.3815 87.1055 89.4247L85.8335 87.4947C86.2504 87.0359 86.5998 86.52 86.8713 85.9627L89.1354 86.4279C89.3191 86.9794 89.6446 87.4728 90.0794 87.8586C90.5142 88.2444 91.0429 88.509 91.6123 88.6257C92.1817 88.7425 92.7718 88.7073 93.3233 88.5237C93.8749 88.34 94.3683 88.0145 94.7541 87.5797C95.1399 87.1449 95.4045 86.6163 95.5213 86.0469C95.638 85.4774 95.6028 84.8873 95.4192 84.3358C95.2356 83.7843 94.9101 83.2908 94.4754 82.905C94.0406 82.5191 93.5119 82.2545 92.9425 82.1378L92.9427 82.138ZM84.1646 83.7149C84.1644 84.5604 83.8283 85.3712 83.2303 85.969C82.6323 86.5667 81.8214 86.9024 80.9759 86.9023C80.1304 86.9022 79.3195 86.5662 78.7217 85.9683C78.1239 85.3704 77.788 84.5595 77.788 83.714C77.788 82.8685 78.1239 82.0576 78.7217 81.4597C79.3195 80.8618 80.1304 80.5259 80.9759 80.5257C81.8214 80.5256 82.6323 80.8613 83.2303 81.4591C83.8283 82.0568 84.1644 82.8676 84.1646 83.7131V83.7149Z" fill="black"/>
</svg>
