<svg width="255" height="255" viewBox="0 0 255 255" fill="none" xmlns="http://www.w3.org/2000/svg">
<path d="M103.594 165.87C97.0433 162.567 91.3022 157.86 86.7798 152.084L87.6563 151.406V119.531C87.6563 119.531 99.6095 115.547 127.5 115.547C155.391 115.547 167.344 119.531 167.344 119.531V151.406L168.22 152.084C163.698 157.86 157.957 162.567 151.406 165.87C143.949 169.462 135.778 171.328 127.5 171.328C119.222 171.328 111.051 169.462 103.594 165.87Z" fill="#F5F5F5"/>
<path d="M99.6094 111.562C104.01 111.562 107.578 106.211 107.578 99.6094C107.578 93.0078 104.01 87.6562 99.6094 87.6562C95.2084 87.6562 91.6406 93.0078 91.6406 99.6094C91.6406 106.211 95.2084 111.562 99.6094 111.562Z" fill="#5E3616"/>
<path d="M155.391 111.562C159.792 111.562 163.359 106.211 163.359 99.6094C163.359 93.0078 159.792 87.6562 155.391 87.6562C150.99 87.6562 147.422 93.0078 147.422 99.6094C147.422 106.211 150.99 111.562 155.391 111.562Z" fill="#5E3616"/>
<path d="M143.398 47.8923C142.202 49.5259 122.639 75.7032 95.625 75.7032V51.797L71.7188 71.7188V91.6407H63.75C61.6385 91.647 59.6153 92.4886 58.1222 93.9817C56.6291 95.4747 55.7876 97.498 55.7812 99.6095V103.594C55.883 107.869 57.2563 112.016 59.7258 115.507C58.5305 115.029 39.8438 106.941 39.8438 87.6563C40.0694 81.5132 41.6085 75.4897 44.3577 69.9914C47.1068 64.4932 51.0021 59.6477 55.7812 55.7813C49.1062 55.9213 42.5353 54.1111 36.8736 50.5726C31.212 47.034 26.7055 41.9208 23.9063 35.8595C23.9062 35.8595 55.7812 31.8751 71.7188 23.9063C87.6562 15.9376 95.625 3.98447 127.5 3.98447C135.271 3.7468 142.98 5.44264 149.935 8.91979C156.889 12.3969 162.871 17.5465 167.344 23.9063C169.025 21.2544 171.397 19.1111 174.205 17.7069C177.013 16.3028 180.151 15.6911 183.281 15.9376C195.234 15.9376 215.156 23.9063 215.156 47.8126V82.0782C215.157 85.7011 213.92 89.2155 211.65 92.0392L199.219 107.578L198.78 107.618C199.066 106.296 199.213 104.947 199.219 103.594V99.6095C199.212 97.498 198.371 95.4747 196.878 93.9817C195.385 92.4886 193.362 91.647 191.25 91.6407H183.281V75.7032C163.359 75.7032 163.359 43.8282 163.359 43.8282C163.359 43.8282 151.406 63.7501 139.453 63.7501L143.398 47.8923Z" fill="#5E3616"/>
<path d="M191.25 91.6406H183.281V75.7031C163.359 75.7031 163.359 43.8281 163.359 43.8281C163.359 43.8281 151.406 63.75 139.453 63.75L143.398 47.8922C142.202 49.5258 122.639 75.7031 95.625 75.7031V51.7969L71.7188 71.7188V91.6406H63.75C61.6385 91.6469 59.6153 92.4885 58.1222 93.9816C56.6291 95.4746 55.7876 97.4979 55.7812 99.6094V103.594C55.883 107.869 57.2563 112.016 59.7258 115.507L59.7656 115.547C63.6092 121.185 69.2144 125.389 75.7031 127.5C77.3984 136.455 81.1945 144.881 86.7797 152.084L87.6562 151.406V119.531C87.6562 119.531 99.6094 115.547 127.5 115.547C155.391 115.547 167.344 119.531 167.344 119.531V151.406L168.22 152.084C173.805 144.881 177.602 136.455 179.297 127.5C183.929 126.043 188.13 123.467 191.529 119.999C194.927 116.531 197.418 112.278 198.78 107.618C199.066 106.295 199.213 104.947 199.219 103.594V99.6094C199.212 97.4979 198.371 95.4746 196.878 93.9816C195.385 92.4885 193.362 91.6469 191.25 91.6406ZM99.6094 111.562C95.2266 111.562 91.6406 106.223 91.6406 99.6094C91.6406 92.9953 95.2266 87.6562 99.6094 87.6562C103.992 87.6562 107.578 92.9953 107.578 99.6094C107.578 106.223 103.992 111.562 99.6094 111.562ZM155.391 111.562C151.008 111.562 147.422 106.223 147.422 99.6094C147.422 92.9953 151.008 87.6562 155.391 87.6562C159.773 87.6562 163.359 92.9953 163.359 99.6094C163.359 106.223 159.773 111.562 155.391 111.562Z" fill="#F2C4B2"/>
<path d="M151.406 184.955C151.405 186.289 151.741 187.601 152.381 188.771C153.022 189.941 153.947 190.931 155.072 191.649C153.518 193.72 145.23 203.203 127.5 203.203C109.77 203.203 101.482 193.72 99.9282 191.649C101.053 190.931 101.978 189.941 102.619 188.771C103.26 187.601 103.595 186.289 103.594 184.955V165.87C111.051 169.462 119.222 171.328 127.5 171.328C135.778 171.328 143.949 169.462 151.406 165.87V184.955Z" fill="#F2B59D"/>
<path d="M235.078 230.058V247.031H19.9219V230.058C19.926 224.68 21.7403 219.46 25.0723 215.239C28.4043 211.018 33.0601 208.042 38.2898 206.789L97.4578 192.724C98.3359 192.507 99.1711 192.144 99.9281 191.648C101.482 193.72 109.77 203.203 127.5 203.203C145.23 203.203 153.518 193.72 155.072 191.648C155.829 192.144 156.664 192.507 157.542 192.724L216.71 206.789C221.94 208.042 226.596 211.018 229.928 215.239C233.26 219.46 235.074 224.68 235.078 230.058Z" fill="#34C1AD"/>
<path d="M59.7656 237.891C59.7627 235.923 60.3951 234.007 61.5689 232.428C62.7427 230.848 64.395 229.69 66.2801 229.126L174.348 196.705L157.542 192.72C156.664 192.503 155.829 192.14 155.072 191.645C153.518 193.716 145.23 203.199 127.5 203.199C109.77 203.199 101.482 193.716 99.9281 191.645C99.1711 192.14 98.3359 192.503 97.4578 192.72L38.2898 206.789C33.0601 208.042 28.4043 211.018 25.0723 215.239C21.7403 219.46 19.926 224.68 19.9219 230.058V247.031H68.9058C66.4817 247.031 64.1568 246.068 62.4427 244.354C60.7286 242.64 59.7656 240.315 59.7656 237.891Z" fill="#21ABAB"/>
<path d="M151.406 165.87C143.949 169.462 135.778 171.328 127.5 171.328C119.222 171.328 111.051 169.462 103.594 165.87V184.955C103.595 186.289 103.26 187.601 102.619 188.771C101.978 189.941 101.053 190.931 99.9282 191.649C102.408 194.647 105.478 197.102 108.949 198.86L151.406 172.324V165.87Z" fill="#ED9776"/>
<path d="M157.542 192.724C156.45 192.454 155.426 191.96 154.535 191.275C153.643 190.589 152.904 189.726 152.362 188.74C152.287 188.828 152.187 188.887 152.119 188.983C152.052 189.079 151.956 189.174 151.88 189.274C151.115 190.294 143.943 199.235 127.496 199.235C111.048 199.235 103.877 190.294 103.112 189.274C103.036 189.174 102.956 189.079 102.873 188.983C102.789 188.887 102.705 188.828 102.629 188.74C102.088 189.726 101.348 190.589 100.457 191.275C99.5655 191.96 98.5416 192.454 97.4498 192.724L96.0552 193.055C96.2727 193.49 96.5503 193.893 96.88 194.25C98.8961 196.828 108.144 207.188 127.5 207.188C146.856 207.188 156.104 196.828 158.112 194.238C158.442 193.881 158.719 193.478 158.937 193.043L157.542 192.724Z" fill="#E3E3E3"/>
<path d="M71.7188 99.6094H67.7344C66.6777 99.6094 65.6642 100.029 64.917 100.776C64.1698 101.524 63.75 102.537 63.75 103.594V107.578C63.75 111.981 67.316 119.531 71.7188 119.531V99.6094Z" fill="#F2A283"/>
<path d="M183.281 99.6094H187.266C188.322 99.6094 189.336 100.029 190.083 100.776C190.83 101.524 191.25 102.537 191.25 103.594V107.578C191.25 111.981 187.664 119.531 183.281 119.531V99.6094Z" fill="#F2A283"/>
<path d="M55.7812 55.7812C51.0021 59.6476 47.1068 64.4931 44.3577 69.9913C41.6085 75.4896 40.0694 81.5131 39.8438 87.6562C39.8438 106.941 58.5305 115.029 59.7258 115.507C57.2563 112.016 55.883 107.869 55.7812 103.594V99.6094C55.7876 97.4979 56.6291 95.4746 58.1222 93.9816C59.6153 92.4885 61.6385 91.6469 63.75 91.6406H71.7188V71.7187L47.8125 79.6875C47.3991 71.0045 50.2407 62.4796 55.7812 55.7812Z" fill="#3B220E"/>
<path d="M183.281 75.7031V91.6406H191.25C193.362 91.6469 195.385 92.4885 196.878 93.9816C198.371 95.4746 199.212 97.4979 199.219 99.6094V83.6719L183.281 75.7031Z" fill="#3B220E"/>
<path d="M95.625 51.7969L71.7188 71.7188V75.7031V79.6875L95.625 59.7656V51.7969Z" fill="#D9896D"/>
<path d="M163.359 51.7969C163.359 51.7969 163.359 83.6719 183.281 83.6719V75.7031C163.359 75.7031 163.359 43.8281 163.359 43.8281C163.359 43.8281 152.725 61.5347 141.485 63.5468L139.453 71.7188C151.406 71.7188 163.359 51.7969 163.359 51.7969Z" fill="#D9896D"/>
<path d="M140.533 59.4072L143.398 47.8923C142.202 49.5259 122.639 75.7033 95.625 75.7033V83.672C117.236 83.672 134.05 66.9376 140.533 59.4072Z" fill="#D9896D"/>
<path d="M131.484 115.583V115.547C131.484 111.144 129.699 107.578 127.5 107.578C125.301 107.578 123.516 111.144 123.516 115.547V115.583C124.819 115.583 126.125 115.547 127.5 115.547C128.875 115.547 130.181 115.547 131.484 115.583Z" fill="#D9896D"/>
<path d="M127.5 163.359C124.627 163.382 121.761 163.095 118.95 162.503C114.563 161.5 110.649 159.03 107.857 155.501C105.065 151.972 103.561 147.595 103.594 143.095V116.71C98.2047 117.149 92.8687 118.094 87.6563 119.531V151.406L86.7798 152.084C91.3022 157.86 97.0433 162.567 103.594 165.87C111.051 169.462 119.222 171.328 127.5 171.328C135.778 171.328 143.949 169.462 151.406 165.87C157.957 162.567 163.698 157.86 168.22 152.084L167.344 151.406C167.344 151.406 147.422 163.359 127.5 163.359Z" fill="#D4D4D4"/>
<path d="M99.6094 137.461C99.1372 137.46 98.6806 137.291 98.3212 136.985C97.9619 136.678 97.7231 136.254 97.6475 135.788C97.5719 135.322 97.6643 134.844 97.9084 134.439C98.1524 134.035 98.5322 133.731 98.9799 133.58C117.603 128.13 137.397 128.13 156.02 133.58C156.269 133.663 156.498 133.794 156.696 133.965C156.894 134.136 157.056 134.345 157.173 134.579C157.29 134.813 157.36 135.068 157.378 135.329C157.397 135.59 157.364 135.852 157.281 136.1C157.199 136.349 157.068 136.578 156.896 136.776C156.725 136.974 156.516 137.136 156.282 137.253C156.048 137.37 155.794 137.44 155.533 137.458C155.272 137.477 155.009 137.444 154.761 137.361C136.956 132.184 118.044 132.184 100.239 137.361C100.036 137.429 99.8234 137.463 99.6094 137.461Z" fill="#D4D4D4"/>
<path d="M99.6094 153.398C99.1372 153.397 98.6806 153.229 98.3212 152.922C97.9619 152.616 97.7231 152.191 97.6475 151.725C97.5719 151.259 97.6643 150.781 97.9084 150.377C98.1524 149.973 98.5322 149.668 98.9799 149.518C117.603 144.067 137.397 144.067 156.02 149.518C156.269 149.6 156.498 149.731 156.696 149.903C156.894 150.074 157.056 150.283 157.173 150.517C157.29 150.751 157.36 151.005 157.378 151.266C157.397 151.527 157.364 151.79 157.281 152.038C157.199 152.286 157.068 152.516 156.896 152.713C156.725 152.911 156.516 153.073 156.282 153.19C156.048 153.307 155.794 153.377 155.533 153.396C155.272 153.414 155.009 153.382 154.761 153.299C136.956 148.122 118.044 148.122 100.239 153.299C100.036 153.367 99.8234 153.4 99.6094 153.398Z" fill="#D4D4D4"/>
<path d="M219.141 167.344H211.172V159.375C211.172 158.318 210.752 157.305 210.005 156.558C209.258 155.81 208.244 155.391 207.188 155.391C206.131 155.391 205.117 155.81 204.37 156.558C203.623 157.305 203.203 158.318 203.203 159.375V167.344H195.234C194.178 167.344 193.164 167.764 192.417 168.511C191.67 169.258 191.25 170.271 191.25 171.328C191.25 172.385 191.67 173.398 192.417 174.146C193.164 174.893 194.178 175.312 195.234 175.312H203.203V183.281C203.203 184.338 203.623 185.351 204.37 186.099C205.117 186.846 206.131 187.266 207.188 187.266C208.244 187.266 209.258 186.846 210.005 186.099C210.752 185.351 211.172 184.338 211.172 183.281V175.312H219.141C220.197 175.312 221.211 174.893 221.958 174.146C222.705 173.398 223.125 172.385 223.125 171.328C223.125 170.271 222.705 169.258 221.958 168.511C221.211 167.764 220.197 167.344 219.141 167.344Z" fill="#34C1AD"/>
<path d="M59.7656 135.469H51.7969V127.5C51.7969 126.443 51.3771 125.43 50.6299 124.683C49.8827 123.935 48.8692 123.516 47.8125 123.516C46.7558 123.516 45.7423 123.935 44.9951 124.683C44.2479 125.43 43.8281 126.443 43.8281 127.5V135.469H35.8594C34.8027 135.469 33.7892 135.889 33.042 136.636C32.2948 137.383 31.875 138.396 31.875 139.453C31.875 140.51 32.2948 141.523 33.042 142.271C33.7892 143.018 34.8027 143.438 35.8594 143.438H43.8281V151.406C43.8281 152.463 44.2479 153.476 44.9951 154.224C45.7423 154.971 46.7558 155.391 47.8125 155.391C48.8692 155.391 49.8827 154.971 50.6299 154.224C51.3771 153.476 51.7969 152.463 51.7969 151.406V143.438H59.7656C60.8223 143.438 61.8358 143.018 62.583 142.271C63.3302 141.523 63.75 140.51 63.75 139.453C63.75 138.396 63.3302 137.383 62.583 136.636C61.8358 135.889 60.8223 135.469 59.7656 135.469Z" fill="#34C1AD"/>
<path d="M184.269 89.9114C184.042 89.7811 183.791 89.6969 183.532 89.6636C183.272 89.6303 183.008 89.6486 182.755 89.7175C182.502 89.7863 182.266 89.9043 182.058 90.0648C181.851 90.2252 181.678 90.4249 181.548 90.6525L166.407 117.188C153.634 114.402 140.569 113.181 127.5 113.555C114.438 113.183 101.38 114.403 88.6126 117.188L73.4719 90.6525C73.2078 90.1928 72.7718 89.8569 72.26 89.7187C71.7481 89.5804 71.2023 89.6512 70.7426 89.9154C70.283 90.1796 69.9471 90.6155 69.8088 91.1274C69.6706 91.6392 69.7414 92.185 70.0055 92.6447L85.6641 120.065V151.406C85.6641 151.935 85.874 152.441 86.2476 152.815C86.6212 153.189 87.128 153.398 87.6563 153.398C87.7358 153.389 87.8144 153.373 87.8914 153.351C87.5288 152.92 87.1304 152.526 86.7798 152.084L87.6563 151.406V119.531C87.6563 119.531 99.6094 115.547 127.5 115.547C155.391 115.547 167.344 119.531 167.344 119.531V151.406L168.22 152.084C167.87 152.526 167.471 152.92 167.109 153.351C167.186 153.373 167.264 153.389 167.344 153.398C167.872 153.398 168.379 153.189 168.752 152.815C169.126 152.441 169.336 151.935 169.336 151.406V120.065L185.015 92.6287C185.144 92.4014 185.228 92.1508 185.26 91.8912C185.293 91.6316 185.274 91.3681 185.205 91.1157C185.136 90.8634 185.017 90.6272 184.857 90.4205C184.696 90.2139 184.497 90.0409 184.269 89.9114Z" fill="#BFBFBF"/>
<path d="M92.0152 85.5884C91.9315 85.6123 91.8518 85.6322 91.7681 85.6481C90.5728 85.8633 89.6564 83.9627 89.6564 82.6758C89.6564 82.3132 89.7919 73.7109 101.61 73.7109C113.427 73.7109 113.563 82.3132 113.563 82.6758C113.581 83.2005 113.468 83.7214 113.233 84.1912C112.999 84.6609 112.65 85.0645 112.22 85.3652C111.347 85.8952 110.507 85.4011 109.829 84.5684C109.499 84.1699 109.244 83.6599 108.889 83.2774C108.541 82.9299 108.137 82.6431 107.694 82.4288C106.649 81.816 105.543 81.3126 104.395 80.9266C102.868 80.4876 101.257 80.4367 99.7059 80.7783C98.155 81.1199 96.7139 81.8433 95.5135 82.883C94.515 83.9829 93.3309 84.8986 92.0152 85.5884Z" fill="#3B220E"/>
<path d="M162.993 85.5884C163.076 85.6123 163.156 85.6322 163.24 85.6481C164.435 85.8633 165.352 83.9627 165.352 82.6758C165.352 82.3132 165.216 73.7109 153.398 73.7109C141.581 73.7109 141.445 82.3132 141.445 82.6758C141.427 83.2005 141.54 83.7214 141.775 84.1912C142.009 84.6609 142.358 85.0645 142.788 85.3652C143.657 85.8952 144.501 85.4011 145.179 84.5684C145.509 84.1699 145.764 83.6599 146.115 83.2774C146.464 82.9308 146.868 82.6441 147.31 82.4288C148.357 81.8166 149.464 81.3133 150.613 80.9266C152.139 80.4876 153.751 80.4367 155.302 80.7783C156.853 81.1199 158.294 81.8433 159.494 82.883C160.492 83.9837 161.676 84.8996 162.993 85.5884Z" fill="#3B220E"/>
</svg>
