<svg width="142" height="143" viewBox="0 0 142 143" fill="none" xmlns="http://www.w3.org/2000/svg">
<g clip-path="url(#clip0)">
<path d="M101.978 30.496H76.452C73.9133 30.496 71.4786 31.5045 69.6835 33.2996C67.8883 35.0947 66.8798 37.5294 66.8798 40.0681C66.8798 37.5294 65.8713 35.0947 64.0762 33.2996C62.2811 31.5045 59.8464 30.496 57.3077 30.496H31.7819C29.2433 30.496 26.8085 31.5045 25.0134 33.2996C23.2183 35.0947 22.2098 37.5294 22.2098 40.0681V51.0761C22.1945 52.3497 22.6766 53.579 23.5536 54.5026C24.4307 55.4262 25.6335 55.9712 26.9061 56.0217C27.5422 56.0336 28.1742 55.9186 28.7653 55.6835C29.3563 55.4483 29.8946 55.0976 30.3486 54.652C30.8025 54.2064 31.1631 53.6747 31.4092 53.0881C31.6554 52.5015 31.7821 51.8718 31.7819 51.2356V84.7381H57.3077V51.2356C57.3076 51.8718 57.4343 52.5015 57.6804 53.0881C57.9265 53.6747 58.2871 54.2064 58.7411 54.652C59.195 55.0976 59.7333 55.4483 60.3244 55.6835C60.9154 55.9186 61.5475 56.0336 62.1835 56.0217C63.4562 55.9712 64.6589 55.4262 65.536 54.5026C66.413 53.579 66.8952 52.3497 66.8798 51.0761C66.8645 52.3497 67.3466 53.579 68.2237 54.5026C69.1007 55.4262 70.3035 55.9712 71.5762 56.0217C72.2122 56.0336 72.8442 55.9186 73.4353 55.6835C74.0264 55.4483 74.5646 55.0976 75.0186 54.652C75.4726 54.2064 75.8332 53.6747 76.0793 53.0881C76.3254 52.5015 76.4521 51.8718 76.452 51.2356V84.7381H101.978V51.2356C101.978 51.8718 102.104 52.5015 102.35 53.0881C102.597 53.6747 102.957 54.2064 103.411 54.652C103.865 55.0976 104.403 55.4483 104.994 55.6835C105.585 55.9186 106.217 56.0336 106.854 56.0217C108.126 55.9712 109.329 55.4262 110.206 54.5026C111.083 53.579 111.565 52.3497 111.55 51.0761V40.0681C111.55 37.5294 110.541 35.0947 108.746 33.2996C106.951 31.5045 104.516 30.496 101.978 30.496Z" fill="#0082D8"/>
<path d="M89.215 30.496C96.2637 30.496 101.978 24.7818 101.978 17.7331C101.978 10.6844 96.2637 4.97025 89.215 4.97025C82.1662 4.97025 76.4521 10.6844 76.4521 17.7331C76.4521 24.7818 82.1662 30.496 89.215 30.496Z" fill="#0082D8"/>
<path d="M44.5449 30.496C51.5936 30.496 57.3077 24.7818 57.3077 17.7331C57.3077 10.6844 51.5936 4.97025 44.5449 4.97025C37.4961 4.97025 31.782 10.6844 31.782 17.7331C31.782 24.7818 37.4961 30.496 44.5449 30.496Z" fill="#0082D8"/>
<path d="M101.978 84.7382H76.452C73.9133 84.7382 71.4786 85.7467 69.6835 87.5418C67.8883 89.3369 66.8798 91.7716 66.8798 94.3103C66.8798 91.7716 65.8713 89.3369 64.0762 87.5418C62.2811 85.7467 59.8464 84.7382 57.3077 84.7382H31.7819C29.2433 84.7382 26.8085 85.7467 25.0134 87.5418C23.2183 89.3369 22.2098 91.7716 22.2098 94.3103V105.318C22.1945 106.592 22.6766 107.821 23.5536 108.745C24.4307 109.668 25.6335 110.213 26.9061 110.264C27.5422 110.276 28.1742 110.161 28.7653 109.926C29.3563 109.69 29.8946 109.34 30.3486 108.894C30.8025 108.449 31.1631 107.917 31.4092 107.33C31.6554 106.744 31.7821 106.114 31.7819 105.478V138.98H57.3077V105.478C57.3076 106.114 57.4343 106.744 57.6804 107.33C57.9265 107.917 58.2871 108.449 58.7411 108.894C59.195 109.34 59.7333 109.69 60.3244 109.926C60.9154 110.161 61.5475 110.276 62.1835 110.264C63.4562 110.213 64.6589 109.668 65.536 108.745C66.413 107.821 66.8952 106.592 66.8798 105.318C66.8645 106.592 67.3466 107.821 68.2237 108.745C69.1007 109.668 70.3035 110.213 71.5762 110.264C72.2122 110.276 72.8442 110.161 73.4353 109.926C74.0264 109.69 74.5646 109.34 75.0186 108.894C75.4726 108.449 75.8332 107.917 76.0793 107.33C76.3254 106.744 76.4521 106.114 76.452 105.478V138.98H101.978V105.478C101.978 106.114 102.104 106.744 102.35 107.33C102.597 107.917 102.957 108.449 103.411 108.894C103.865 109.34 104.403 109.69 104.994 109.926C105.585 110.161 106.217 110.276 106.854 110.264C108.126 110.213 109.329 109.668 110.206 108.745C111.083 107.821 111.565 106.592 111.55 105.318V94.3103C111.55 91.7716 110.541 89.3369 108.746 87.5418C106.951 85.7467 104.516 84.7382 101.978 84.7382Z" fill="#FF9692"/>
<path d="M89.215 84.7382C96.2637 84.7382 101.978 79.024 101.978 71.9753C101.978 64.9266 96.2637 59.2124 89.215 59.2124C82.1662 59.2124 76.4521 64.9266 76.4521 71.9753C76.4521 79.024 82.1662 84.7382 89.215 84.7382Z" fill="#FF9692"/>
<path d="M44.5449 84.7382C51.5936 84.7382 57.3077 79.024 57.3077 71.9753C57.3077 64.9266 51.5936 59.2124 44.5449 59.2124C37.4961 59.2124 31.782 64.9266 31.782 71.9753C31.782 79.024 37.4961 84.7382 44.5449 84.7382Z" fill="#FF9692"/>
<path d="M76.4521 40.0681V51.2357C76.4526 52.2253 76.146 53.1908 75.5745 53.9988C75.003 54.8068 74.1947 55.4175 73.2614 55.7465V40.0681H76.4521Z" fill="#0082D8"/>
<path d="M105.168 40.0681V55.7465C104.235 55.4175 103.427 54.8068 102.855 53.9988C102.284 53.1908 101.977 52.2253 101.978 51.2357V40.0681H105.168Z" fill="#0082D8"/>
<path d="M92.4057 113.455H86.0242V138.98H92.4057V113.455Z" fill="#FF9692"/>
<path d="M76.4521 40.0681V51.2357C76.4526 52.2253 76.146 53.1908 75.5745 53.9988C75.003 54.8068 74.1947 55.4175 73.2614 55.7465V40.0681H76.4521Z" fill="#FF9692"/>
<path d="M105.168 40.0681V55.7465C104.235 55.4175 103.427 54.8068 102.855 53.9988C102.284 53.1908 101.977 52.2253 101.978 51.2357V40.0681H105.168Z" fill="#FF9692"/>
<path d="M76.4521 94.3103V105.478C76.4526 106.468 76.146 107.433 75.5745 108.241C75.003 109.049 74.1947 109.66 73.2614 109.989V94.3103H76.4521Z" fill="#FF9692"/>
<path d="M105.168 94.3103V109.989C104.235 109.66 103.427 109.049 102.855 108.241C102.284 107.433 101.977 106.468 101.978 105.478V94.3103H105.168Z" fill="#FF9692"/>
<path d="M31.7821 40.0681V51.2357C31.7826 52.2253 31.476 53.1908 30.9045 53.9988C30.3329 54.8068 29.5247 55.4175 28.5913 55.7465V40.0681H31.7821Z" fill="#0082D8"/>
<path d="M60.4985 40.0681V55.7465C59.5651 55.4175 58.7569 54.8068 58.1854 53.9988C57.6139 53.1908 57.3072 52.2253 57.3078 51.2357V40.0681H60.4985Z" fill="#0082D8"/>
<path d="M47.7356 113.455H41.3542V138.98H47.7356V113.455Z" fill="#FF9692"/>
<path d="M31.7821 40.0681V51.2357C31.7826 52.2253 31.476 53.1908 30.9045 53.9988C30.3329 54.8068 29.5247 55.4175 28.5913 55.7465V40.0681H31.7821Z" fill="#FF9692"/>
<path d="M60.4985 40.0681V55.7465C59.5651 55.4175 58.7569 54.8068 58.1854 53.9988C57.6139 53.1908 57.3072 52.2253 57.3078 51.2357V40.0681H60.4985Z" fill="#FF9692"/>
<path d="M31.7821 94.3103V105.478C31.7826 106.468 31.476 107.433 30.9045 108.241C30.3329 109.049 29.5247 109.66 28.5913 109.989V94.3103H31.7821Z" fill="#FF9692"/>
<path d="M60.4985 94.3103V109.989C59.5651 109.66 58.7569 109.049 58.1854 108.241C57.6139 107.433 57.3072 106.468 57.3078 105.478V94.3103H60.4985Z" fill="#FF9692"/>
<path d="M101.978 27.3053H101.969C103.75 24.9357 104.835 22.1169 105.103 19.1651C105.371 16.2132 104.812 13.245 103.488 10.5933C102.163 7.94162 100.126 5.71128 97.6053 4.15243C95.0843 2.59358 92.1789 1.76785 89.2149 1.76785C86.2509 1.76785 83.3455 2.59358 80.8245 4.15243C78.3035 5.71128 76.2667 7.94162 74.9423 10.5933C73.618 13.245 73.0586 16.2132 73.3268 19.1651C73.595 22.1169 74.6802 24.9357 76.4608 27.3053H76.4521C74.64 27.305 72.8487 27.6915 71.198 28.439C69.5472 29.1865 68.0751 30.2778 66.8799 31.6399C65.6847 30.2778 64.2126 29.1865 62.5619 28.439C60.9111 27.6915 59.1198 27.305 57.3078 27.3053H57.299C59.0796 24.9357 60.1648 22.1169 60.433 19.1651C60.7012 16.2132 60.1418 13.245 58.8175 10.5933C57.4931 7.94162 55.4563 5.71128 52.9353 4.15243C50.4143 2.59358 47.5089 1.76785 44.5449 1.76785C41.5809 1.76785 38.6755 2.59358 36.1545 4.15243C33.6335 5.71128 31.5966 7.94162 30.2723 10.5933C28.948 13.245 28.3885 16.2132 28.6568 19.1651C28.925 22.1169 30.0102 24.9357 31.7908 27.3053H31.782C28.3983 27.3091 25.1542 28.6549 22.7615 31.0476C20.3688 33.4403 19.023 36.6844 19.0192 40.0681V51.0761C19.0076 53.1847 19.8192 55.2147 21.2812 56.7342C22.7433 58.2536 24.7405 59.1428 26.848 59.2124C27.4331 59.2215 28.0175 59.1681 28.5913 59.0529V81.9499C25.8531 82.6609 23.4281 84.26 21.696 86.4967C19.9638 88.7333 19.0224 91.4814 19.0192 94.3103V105.318C18.9976 106.514 19.2446 107.699 19.7419 108.786C20.2393 109.874 20.9744 110.836 21.893 111.601C22.8117 112.367 23.8904 112.916 25.0497 113.21C26.2089 113.503 27.4192 113.532 28.5913 113.295V138.98C28.5913 139.827 28.9275 140.638 29.5258 141.237C30.1242 141.835 30.9358 142.171 31.782 142.171H57.3078C58.154 142.171 58.9656 141.835 59.5639 141.237C60.1623 140.638 60.4985 139.827 60.4985 138.98V113.295C61.0723 113.41 61.6567 113.462 62.2418 113.452C63.9255 113.416 65.5526 112.837 66.8799 111.8C68.2069 112.838 69.8339 113.418 71.518 113.455C72.1032 113.464 72.6876 113.411 73.2613 113.295V138.98C73.2613 139.827 73.5975 140.638 74.1959 141.237C74.7942 141.835 75.6058 142.171 76.4521 142.171H101.978C102.824 142.171 103.636 141.835 104.234 141.237C104.832 140.638 105.169 139.827 105.169 138.98V113.295C106.341 113.532 107.551 113.503 108.71 113.21C109.869 112.916 110.948 112.367 111.867 111.601C112.785 110.836 113.52 109.874 114.018 108.786C114.515 107.699 114.762 106.514 114.741 105.318V94.3103C114.737 91.4816 113.795 88.734 112.063 86.4976C110.331 84.2612 107.906 82.6624 105.169 81.9515V59.0529C106.341 59.2897 107.551 59.2605 108.71 58.9674C109.869 58.6742 110.948 58.1246 111.867 57.3591C112.785 56.5936 113.52 55.6317 114.018 54.5443C114.515 53.4569 114.762 52.2717 114.741 51.0761V40.0681C114.737 36.6844 113.391 33.4403 110.998 31.0476C108.606 28.6549 105.362 27.3091 101.978 27.3053ZM79.6428 17.7331C79.6428 15.8399 80.2042 13.9893 81.256 12.4151C82.3078 10.841 83.8027 9.61411 85.5518 8.88961C87.3009 8.16512 89.2255 7.97556 91.0824 8.3449C92.9392 8.71425 94.6448 9.6259 95.9834 10.9646C97.3221 12.3033 98.2338 14.0089 98.6031 15.8657C98.9725 17.7225 98.7829 19.6471 98.0584 21.3962C97.3339 23.1453 96.107 24.6403 94.5329 25.6921C92.9588 26.7439 91.1081 27.3053 89.2149 27.3053C86.6771 27.3023 84.2441 26.2929 82.4497 24.4984C80.6552 22.7039 79.6457 20.2709 79.6428 17.7331ZM89.2149 81.5475C87.3217 81.5475 85.4711 80.9861 83.8969 79.9343C82.3228 78.8825 81.0959 77.3875 80.3714 75.6384C79.6469 73.8893 79.4574 71.9647 79.8267 70.1079C80.196 68.2511 81.1077 66.5455 82.4464 65.2068C83.7851 63.8681 85.4907 62.9564 87.3475 62.5871C89.2043 62.2177 91.1289 62.4073 92.878 63.1318C94.6271 63.8563 96.1221 65.0832 97.1739 66.6573C98.2257 68.2314 98.7871 70.0821 98.7871 71.9753C98.7841 74.5131 97.7747 76.9461 95.9802 78.7406C94.1857 80.5351 91.7527 81.5445 89.2149 81.5475ZM73.2613 81.9515C70.7891 82.5943 68.5663 83.9634 66.8799 85.882C65.1935 83.9634 62.9707 82.5943 60.4985 81.9515V59.0529C61.0723 59.1675 61.6568 59.22 62.2418 59.2097C63.9255 59.174 65.5526 58.5946 66.8799 57.558C68.2069 58.5956 69.8339 59.176 71.518 59.2124C72.1031 59.2216 72.6876 59.1681 73.2613 59.0529V81.9515ZM34.9727 71.9753C34.9727 70.0821 35.5341 68.2314 36.5859 66.6573C37.6377 65.0832 39.1327 63.8563 40.8818 63.1318C42.6309 62.4073 44.5555 62.2177 46.4123 62.5871C48.2691 62.9564 49.9747 63.8681 51.3134 65.2068C52.6521 66.5455 53.5638 68.2511 53.9331 70.1079C54.3025 71.9647 54.1129 73.8893 53.3884 75.6384C52.6639 77.3875 51.437 78.8825 49.8629 79.9343C48.2888 80.9861 46.4381 81.5475 44.5449 81.5475C42.0071 81.5445 39.5741 80.5351 37.7796 78.7406C35.9851 76.9461 34.9757 74.5131 34.9727 71.9753ZM34.9727 17.7331C34.9727 15.8399 35.5341 13.9893 36.5859 12.4151C37.6377 10.841 39.1327 9.61411 40.8818 8.88961C42.6309 8.16512 44.5555 7.97556 46.4123 8.3449C48.2691 8.71425 49.9747 9.6259 51.3134 10.9646C52.6521 12.3033 53.5638 14.0089 53.9331 15.8657C54.3025 17.7225 54.1129 19.6471 53.3884 21.3962C52.6639 23.1453 51.437 24.6403 49.8629 25.6921C48.2888 26.7439 46.4381 27.3053 44.5449 27.3053C42.0071 27.3023 39.5741 26.2929 37.7796 24.4984C35.9851 22.7039 34.9757 20.2709 34.9727 17.7331ZM28.1127 52.3739C27.8151 52.6673 27.4138 52.8316 26.9959 52.831H26.9648C26.5292 52.7939 26.1243 52.5913 25.8334 52.2649C25.5425 51.9385 25.3876 51.5131 25.4006 51.0761V40.0681C25.4026 38.3763 26.0756 36.7543 27.2719 35.558C28.4682 34.3617 30.0902 33.6887 31.782 33.6867H57.3078C58.9996 33.6887 60.6216 34.3617 61.8179 35.558C63.0142 36.7543 63.6872 38.3763 63.6892 40.0681V51.0761C63.7022 51.5131 63.5473 51.9385 63.2564 52.2649C62.9655 52.5913 62.5606 52.7939 62.1249 52.831C61.9128 52.8345 61.7021 52.796 61.5049 52.7176C61.3078 52.6392 61.1281 52.5226 60.9763 52.3743C60.8245 52.2261 60.7041 52.049 60.622 51.8534C60.5399 51.6578 60.4979 51.4478 60.4985 51.2356V40.0681H54.117V59.2212C51.3578 57.1447 47.9982 56.0217 44.5449 56.0217C41.0916 56.0217 37.7319 57.1447 34.9727 59.2212V40.0681H28.5913V51.2356C28.5917 51.4478 28.5496 51.6578 28.4674 51.8533C28.3851 52.0488 28.2645 52.2259 28.1127 52.3739ZM62.1249 107.073C61.9122 107.081 61.7001 107.045 61.5023 106.966C61.3045 106.888 61.1253 106.769 60.9763 106.617C60.8245 106.468 60.7041 106.291 60.622 106.096C60.5399 105.9 60.4979 105.69 60.4985 105.478V94.3103H54.117V135.79H47.7356V113.455H41.3542V135.79H34.9727V94.3103H28.5913V105.478C28.5917 105.69 28.5496 105.9 28.4674 106.095C28.3851 106.291 28.2645 106.468 28.1127 106.616C27.9621 106.766 27.7827 106.884 27.5852 106.962C27.3878 107.041 27.1765 107.078 26.964 107.073C26.5286 107.035 26.124 106.833 25.8332 106.507C25.5425 106.18 25.3877 105.755 25.4006 105.318V94.3103C25.4026 92.6185 26.0756 90.9965 27.2719 89.8002C28.4682 88.6039 30.0902 87.9309 31.782 87.9289H57.3078C58.9996 87.9309 60.6216 88.6039 61.8179 89.8002C63.0142 90.9965 63.6872 92.6185 63.6892 94.3103V105.318C63.7022 105.755 63.5473 106.181 63.2564 106.507C62.9655 106.833 62.5606 107.036 62.1249 107.073ZM108.359 94.3103V105.318C108.372 105.755 108.217 106.181 107.926 106.507C107.635 106.833 107.231 107.036 106.795 107.073C106.582 107.081 106.37 107.045 106.172 106.966C105.975 106.888 105.795 106.768 105.646 106.617C105.495 106.468 105.374 106.291 105.292 106.096C105.21 105.9 105.168 105.69 105.169 105.478V94.3103H98.7871V135.79H92.4056V113.455H86.0242V135.79H79.6428V94.3103H73.2613V105.478C73.2614 105.69 73.2191 105.9 73.137 106.096C73.0549 106.291 72.9346 106.469 72.7831 106.617C72.6317 106.766 72.4521 106.882 72.2549 106.961C72.0578 107.039 71.847 107.077 71.6349 107.073C71.1992 107.036 70.7943 106.833 70.5034 106.507C70.2125 106.181 70.0576 105.755 70.0706 105.318V94.3103C70.0726 92.6185 70.7456 90.9965 71.9419 89.8002C73.1382 88.6039 74.7602 87.9309 76.4521 87.9289H101.978C103.67 87.9309 105.292 88.6039 106.488 89.8002C107.684 90.9965 108.357 92.6185 108.359 94.3103ZM108.359 51.0761C108.372 51.5131 108.217 51.9385 107.926 52.2649C107.635 52.5913 107.231 52.7939 106.795 52.831C106.583 52.8344 106.372 52.7958 106.175 52.7174C105.978 52.6391 105.798 52.5225 105.646 52.3743C105.495 52.2261 105.374 52.049 105.292 51.8534C105.21 51.6578 105.168 51.4478 105.169 51.2356V40.0681H98.7871V59.2212C96.0279 57.1447 92.6682 56.0217 89.2149 56.0217C85.7616 56.0217 82.402 57.1447 79.6428 59.2212V40.0681H73.2613V51.2356C73.2613 51.6588 73.0933 52.0646 72.7941 52.3637C72.4949 52.6629 72.0891 52.831 71.666 52.831H71.6349C71.1992 52.7939 70.7943 52.5913 70.5034 52.2649C70.2125 51.9385 70.0576 51.5131 70.0706 51.0761V40.0681C70.0726 38.3763 70.7456 36.7543 71.9419 35.558C73.1382 34.3617 74.7602 33.6887 76.4521 33.6867H101.978C103.67 33.6887 105.292 34.3617 106.488 35.558C107.684 36.7543 108.357 38.3763 108.359 40.0681V51.0761Z" fill="black"/>
</g>
<defs>
<clipPath id="clip0">
<rect width="142" height="142" fill="white" transform="translate(0 0.5)"/>
</clipPath>
</defs>
</svg>
