<svg width="69" height="48" viewBox="0 0 69 48" fill="none" xmlns="http://www.w3.org/2000/svg">
<mask id="mask0" mask-type="alpha" maskUnits="userSpaceOnUse" x="0" y="0" width="69" height="48">
<path d="M62.4286 0H6.57143C2.94213 0 0 2.86538 0 6.4V41.6C0 45.1346 2.94213 48 6.57143 48H62.4286C66.0579 48 69 45.1346 69 41.6V6.4C69 2.86538 66.0579 0 62.4286 0Z" fill="white"/>
</mask>
<g mask="url(#mask0)">
<path d="M62.4286 0H6.57143C2.94213 0 0 2.86538 0 6.4V41.6C0 45.1346 2.94213 48 6.57143 48H62.4286C66.0579 48 69 45.1346 69 41.6V6.4C69 2.86538 66.0579 0 62.4286 0Z" fill="#8F183C"/>
<path fill-rule="evenodd" clip-rule="evenodd" d="M16.4286 0L26.2857 3.2L16.4286 6.4L26.2857 9.6L16.4286 12.8L26.2857 16L16.4286 19.2L26.2857 22.4L16.4286 25.6L26.2857 28.8L16.4286 32L26.2857 35.2L16.4286 38.4L26.2857 41.6L16.4286 44.8L26.2857 48H0V0H16.4286Z" fill="white"/>
<path d="M62.4286 1.60001H6.57145C3.84948 1.60001 1.64288 3.74904 1.64288 6.40001V41.6C1.64288 44.251 3.84948 46.4 6.57145 46.4H62.4286C65.1506 46.4 67.3572 44.251 67.3572 41.6V6.40001C67.3572 3.74904 65.1506 1.60001 62.4286 1.60001Z" stroke="black" stroke-opacity="0.1"/>
</g>
</svg>
