<svg width="144" height="144" viewBox="0 0 144 144" fill="none" xmlns="http://www.w3.org/2000/svg">
<path d="M89.7879 72L89.8912 71.9243C92.7269 69.8465 96.0002 68.4445 99.4608 67.8255C102.921 67.2064 106.478 67.3867 109.858 68.3525L114.75 69.75L119.25 65.25L110.25 54L101.25 56.25L96.75 49.5L103.5 40.5L108.162 41.9344C115.55 44.2078 122.16 48.4936 127.25 54.3118C132.339 60.1299 135.708 67.2505 136.979 74.8755L137.013 75.0755C137.088 75.5257 137.071 75.9865 136.962 76.4299C136.854 76.8733 136.657 77.2902 136.383 77.6554L125.928 91.5964C123.267 95.1445 119.639 97.85 115.479 99.3888C111.32 100.928 106.804 101.234 102.475 100.272L92.25 99L89.7879 72Z" fill="#F5D3BD"/>
<path d="M54.2121 72L54.1088 71.9243C51.2731 69.8465 47.9998 68.4445 44.5392 67.8255C41.0786 67.2064 37.5223 67.3867 34.1421 68.3525L29.25 69.75L24.75 65.25L33.75 54L42.75 56.25L47.25 49.5L40.5 40.5L35.838 41.9344C28.4496 44.2078 21.8402 48.4936 16.7505 54.3118C11.6607 60.1299 8.29168 67.2505 7.02084 74.8755L6.98737 75.0755C6.91233 75.5257 6.9294 75.9865 7.03754 76.4299C7.14569 76.8733 7.34265 77.2902 7.61652 77.6554L18.0723 91.5964C20.7334 95.1445 24.3611 97.85 28.5208 99.3888C32.6805 100.928 37.1956 101.234 41.5252 100.272L51.75 99L54.2121 72Z" fill="#F5D3BD"/>
<path d="M112.5 87.75H101.25C100.653 87.75 100.081 87.5129 99.659 87.091C99.237 86.669 99 86.0967 99 85.5C99 84.9033 99.237 84.331 99.659 83.909C100.081 83.4871 100.653 83.25 101.25 83.25H111.568L115.409 79.409C115.831 78.987 116.403 78.7499 117 78.7499C117.597 78.7499 118.169 78.987 118.591 79.409C119.013 79.8309 119.25 80.4032 119.25 81C119.25 81.5968 119.013 82.1691 118.591 82.591L114.091 87.091C113.882 87.3 113.634 87.4657 113.361 87.5788C113.088 87.6918 112.795 87.75 112.5 87.75Z" fill="#E8C8B3"/>
<path d="M42.75 87.75H31.5C31.2045 87.75 30.9119 87.6918 30.6389 87.5788C30.366 87.4657 30.1179 87.3 29.909 87.091L25.409 82.591C24.987 82.1691 24.7499 81.5968 24.7499 81C24.7499 80.4032 24.987 79.8309 25.409 79.409C25.8309 78.987 26.4032 78.7499 27 78.7499C27.5967 78.7499 28.1691 78.987 28.591 79.409L32.4318 83.25H42.75C43.3467 83.25 43.919 83.4871 44.341 83.909C44.7629 84.331 45 84.9033 45 85.5C45 86.0967 44.7629 86.669 44.341 87.091C43.919 87.5129 43.3467 87.75 42.75 87.75Z" fill="#E8C8B3"/>
<path d="M72 117L58.7796 107.497C51.1983 102.047 44.9958 94.901 40.6671 86.6284L40.484 86.2782C39.6738 84.7299 39.2751 82.9994 39.326 81.2526C39.377 79.5059 39.876 77.8016 40.7751 76.3031L40.7838 76.2882C41.9422 74.3581 43.5806 72.7607 45.5395 71.6518C47.4985 70.5428 49.7113 69.96 51.9623 69.9601H52.6407C54.4832 69.9601 56.3047 70.3506 57.9852 71.1059C59.6657 71.8612 61.1671 72.9641 62.3902 74.342L72 85.5L81.61 74.3414C82.8332 72.9636 84.3346 71.8607 86.0151 71.1054C87.6956 70.3501 89.5171 69.9595 91.3596 69.9595H92.0379C94.289 69.9594 96.5018 70.5422 98.4607 71.6512C100.42 72.7602 102.058 74.3575 103.216 76.2877L103.225 76.3026C104.124 77.801 104.623 79.5053 104.674 81.2521C104.725 82.9988 104.326 84.7293 103.516 86.2777L103.333 86.6278C99.0045 94.9005 92.802 102.047 85.2207 107.497L72 117Z" fill="#F55648"/>
<path d="M61.875 94.5C63.739 94.5 65.25 92.989 65.25 91.125C65.25 89.261 63.739 87.75 61.875 87.75C60.011 87.75 58.5 89.261 58.5 91.125C58.5 92.989 60.011 94.5 61.875 94.5Z" fill="#A83B32"/>
<path d="M82.125 94.5C83.989 94.5 85.5 92.989 85.5 91.125C85.5 89.261 83.989 87.75 82.125 87.75C80.261 87.75 78.75 89.261 78.75 91.125C78.75 92.989 80.261 94.5 82.125 94.5Z" fill="#A83B32"/>
<path d="M76.5 101.25H67.5C66.9033 101.25 66.331 101.013 65.909 100.591C65.4871 100.169 65.25 99.5967 65.25 99C65.25 98.4033 65.4871 97.831 65.909 97.409C66.331 96.9871 66.9033 96.75 67.5 96.75H76.5C77.0967 96.75 77.669 96.9871 78.091 97.409C78.5129 97.831 78.75 98.4033 78.75 99C78.75 99.5967 78.5129 100.169 78.091 100.591C77.669 101.013 77.0967 101.25 76.5 101.25Z" fill="#A83B32"/>
<path d="M54 63C53.5277 62.9999 53.0674 62.8513 52.6844 62.5751C52.3013 62.2988 52.0148 61.9091 51.8656 61.461L49.6156 54.711C49.4269 54.1448 49.4708 53.5269 49.7377 52.9931C50.0046 52.4594 50.4726 52.0535 51.0387 51.8648C51.6049 51.676 52.2228 51.72 52.7566 51.9868C53.2904 52.2537 53.6963 52.7217 53.885 53.2879L56.135 60.0379C56.2478 60.3762 56.2787 60.7364 56.2249 61.089C56.1712 61.4416 56.0345 61.7763 55.8259 62.0656C55.6174 62.3549 55.3431 62.5905 55.0256 62.753C54.7082 62.9154 54.3566 63.0001 54 63Z" fill="#F7BA61"/>
<path d="M62.9978 65.25C62.5906 65.2496 62.1913 65.1388 61.8422 64.9293C61.4931 64.7198 61.2074 64.4196 61.0155 64.0605C60.8236 63.7015 60.7327 63.2971 60.7525 62.8905C60.7723 62.4839 60.9021 62.0902 61.128 61.7515L65.628 55.0015C65.9605 54.5085 66.4747 54.1672 67.0581 54.0522C67.6415 53.9372 68.2468 54.0578 68.7415 54.3877C69.2363 54.7176 69.5804 55.2299 69.6985 55.8127C69.8166 56.3955 69.6992 57.0014 69.372 57.4979L64.872 64.2479C64.6665 64.5566 64.3878 64.8096 64.0608 64.9845C63.7338 65.1593 63.3686 65.2505 62.9978 65.25Z" fill="#F7BA61"/>
<path d="M90 63C89.6434 63.0001 89.2918 62.9154 88.9744 62.753C88.6569 62.5905 88.3826 62.3549 88.1741 62.0656C87.9655 61.7763 87.8288 61.4416 87.775 61.089C87.7213 60.7364 87.7521 60.3762 87.865 60.0379L90.115 53.2879C90.3037 52.7217 90.7096 52.2537 91.2434 51.9868C91.7772 51.72 92.3951 51.676 92.9613 51.8648C93.5274 52.0535 93.9954 52.4594 94.2623 52.9931C94.5292 53.5269 94.5731 54.1448 94.3844 54.711L92.1344 61.461C91.9852 61.9091 91.6987 62.2988 91.3156 62.5751C90.9326 62.8513 90.4723 62.9999 90 63Z" fill="#F7BA61"/>
<path d="M81.0023 65.25C80.6314 65.2505 80.2662 65.1593 79.9392 64.9845C79.6122 64.8096 79.3335 64.5566 79.128 64.2479L74.628 57.4979C74.4622 57.2521 74.3466 56.976 74.2879 56.6854C74.2292 56.3947 74.2285 56.0954 74.2858 55.8045C74.3432 55.5136 74.4575 55.2369 74.6221 54.9904C74.7867 54.7438 74.9985 54.5322 75.2451 54.3677C75.4918 54.2032 75.7686 54.0891 76.0595 54.032C76.3504 53.9748 76.6498 53.9757 76.9403 54.0346C77.2309 54.0935 77.507 54.2092 77.7527 54.3752C77.9984 54.5411 78.2088 54.754 78.372 55.0015L82.872 61.7515C83.0979 62.0902 83.2277 62.4839 83.2475 62.8905C83.2673 63.2971 83.1764 63.7015 82.9845 64.0605C82.7926 64.4196 82.5069 64.7199 82.1578 64.9293C81.8087 65.1388 81.4094 65.2496 81.0023 65.25Z" fill="#F7BA61"/>
<path d="M24.75 27H20.25V31.5H24.75V27Z" fill="#8ED2FF"/>
<path d="M24.75 36H20.25V40.5H24.75V36Z" fill="#8ED2FF"/>
<path d="M20.25 31.5H15.75V36H20.25V31.5Z" fill="#8ED2FF"/>
<path d="M29.25 31.5H24.75V36H29.25V31.5Z" fill="#8ED2FF"/>
<path d="M87.75 24.75H83.25V29.25H87.75V24.75Z" fill="#8ED2FF"/>
<path d="M87.75 38.25H83.25V42.75H87.75V38.25Z" fill="#8ED2FF"/>
<path d="M81 31.5H76.5V36H81V31.5Z" fill="#8ED2FF"/>
<path d="M94.5 31.5H90V36H94.5V31.5Z" fill="#8ED2FF"/>
<path d="M61.875 94.5C63.739 94.5 65.25 92.989 65.25 91.125C65.25 89.261 63.739 87.75 61.875 87.75C60.011 87.75 58.5 89.261 58.5 91.125C58.5 92.989 60.011 94.5 61.875 94.5Z" fill="black"/>
<path d="M82.125 94.5C83.989 94.5 85.5 92.989 85.5 91.125C85.5 89.261 83.989 87.75 82.125 87.75C80.261 87.75 78.75 89.261 78.75 91.125C78.75 92.989 80.261 94.5 82.125 94.5Z" fill="black"/>
<path d="M139.232 74.7028L139.199 74.5059C137.859 66.4687 134.308 58.9633 128.943 52.8306C123.578 46.698 116.612 42.1805 108.824 39.7842L104.162 38.3498C103.719 38.2135 103.245 38.2172 102.804 38.3605C102.364 38.5037 101.978 38.7794 101.7 39.15L94.95 48.15C94.6707 48.5224 94.5138 48.9723 94.5009 49.4376C94.488 49.903 94.6197 50.3609 94.878 50.7482L99.378 57.4982C99.6351 57.8849 100.006 58.1824 100.439 58.3497C100.872 58.5171 101.346 58.5461 101.797 58.4328L109.396 56.5329L116.236 65.0829L114.096 67.223L110.475 66.1888C104.513 64.483 98.1326 65.0272 92.5459 67.718C92.3771 67.7123 92.2073 67.7094 92.0365 67.7093H91.3584C89.1981 67.71 87.0624 68.1683 85.092 69.0539C83.1216 69.9396 81.3611 71.2326 79.9265 72.8477L79.904 72.873L72 82.0522L64.0949 72.8719L64.0724 72.8466C62.6377 71.2314 60.8772 69.9385 58.9068 69.0528C56.9364 68.1672 54.8007 67.7089 52.6404 67.7081H51.9623C51.7876 67.7081 51.6133 67.7113 51.4395 67.7177C45.8582 65.0246 39.481 64.48 33.5239 66.1877L29.9045 67.2218L27.7647 65.0818L34.6047 56.5318L42.2041 58.4317C42.6544 58.5449 43.1288 58.5158 43.5619 58.3485C43.995 58.1811 44.3657 57.8837 44.6228 57.4971L49.1228 50.7471C49.3811 50.3597 49.5129 49.9019 49.5 49.4365C49.4871 48.9712 49.3301 48.5213 49.0508 48.1489L42.3008 39.1489C42.0228 38.7782 41.6372 38.5024 41.1966 38.3592C40.756 38.2159 40.2819 38.2122 39.8391 38.3484L35.1771 39.7828C27.3896 42.1789 20.4232 46.696 15.0583 52.8282C9.69343 58.9603 6.14205 66.4652 4.80206 74.502L4.76803 74.7045C4.64458 75.4549 4.67383 76.2224 4.85404 76.9612C5.03425 77.7 5.36171 78.3948 5.81681 79.004L16.2723 92.9453C19.1877 96.8281 23.1575 99.7914 27.7091 101.482C32.2607 103.173 37.2023 103.52 41.9456 102.483L48.4897 101.439C51.2217 104.349 54.2279 106.99 57.4667 109.323L70.6868 118.828C71.0695 119.103 71.5288 119.251 72 119.251C72.4712 119.251 72.9305 119.103 73.3131 118.828L86.5339 109.325C89.7726 106.992 92.7787 104.352 95.5105 101.441L102.055 102.485C106.798 103.523 111.74 103.175 116.291 101.485C120.843 99.7936 124.813 96.8304 127.728 92.9475L138.183 79.0065C138.639 78.3967 138.966 77.7012 139.146 76.9616C139.327 76.2221 139.356 75.4538 139.232 74.7028ZM41.1708 98.0502C41.1261 98.0573 41.0813 98.066 41.0372 98.0758C37.13 98.9393 33.0569 98.6602 29.304 97.2719C25.5511 95.8836 22.2769 93.4447 19.8723 90.2464L9.41625 76.3051C9.32555 76.1836 9.26021 76.0451 9.22412 75.8978C9.18803 75.7505 9.18192 75.5975 9.20615 75.4479L9.24019 75.2456C10.4423 68.0328 13.6292 61.2971 18.4438 55.7935C23.2584 50.2898 29.5105 46.2356 36.4995 44.0851L39.6495 43.1159L44.4949 49.5762L41.7575 53.6825L34.2956 51.8172C33.8777 51.7127 33.4386 51.7303 33.0305 51.8679C32.6223 52.0056 32.2622 52.2575 31.993 52.5938L22.993 63.8438C22.6472 64.2761 22.4728 64.8208 22.5035 65.3737C22.5341 65.9265 22.7675 66.4487 23.159 66.8402L27.659 71.3402C27.9426 71.6241 28.297 71.8268 28.6854 71.9275C29.0738 72.0281 29.4821 72.023 29.8679 71.9125L34.7617 70.515C37.7422 69.662 40.876 69.4874 43.9329 70.004C41.8512 71.2869 40.1071 73.0498 38.8465 75.1452C37.3953 77.5822 36.8157 80.4402 37.2026 83.25H32.4318L28.591 79.409C28.1691 78.987 27.5967 78.7499 27 78.7499C26.4032 78.7499 25.8309 78.987 25.409 79.409C24.987 79.8309 24.7499 80.4033 24.7499 81C24.7499 81.5968 24.987 82.1691 25.409 82.591L29.909 87.091C30.1179 87.3 30.3659 87.4657 30.6389 87.5788C30.9119 87.6918 31.2045 87.75 31.5 87.75H38.25C38.3984 87.7499 38.5464 87.7352 38.6918 87.7061C40.496 91.1399 42.6181 94.397 45.0304 97.4346L41.1708 98.0502ZM83.9073 105.67L72 114.229L60.093 105.67C52.8038 100.418 46.8359 93.5419 42.6608 85.5864L42.4772 85.2356C41.8494 84.0246 41.5415 82.6732 41.5828 81.3097C41.6241 79.9462 42.0132 78.6158 42.7132 77.445C43.6754 75.8514 45.0319 74.5324 46.6519 73.6152C48.2719 72.698 50.1007 72.2134 51.9623 72.2081H52.6404C54.1624 72.2091 55.667 72.5318 57.0555 73.1551C58.444 73.7785 59.685 74.6883 60.6971 75.825L70.2951 86.9698C70.5063 87.2151 70.7679 87.4119 71.0622 87.5468C71.3564 87.6817 71.6763 87.7516 72 87.7516C72.3237 87.7516 72.6436 87.6817 72.9378 87.5468C73.232 87.4119 73.4937 87.2151 73.7049 86.9698L83.3029 75.825C84.3152 74.6888 85.5563 73.7794 86.9448 73.1565C88.3333 72.5336 89.8378 72.2113 91.3596 72.2107H92.0376C93.9021 72.2167 95.7336 72.7031 97.3553 73.6231C98.9771 74.543 100.334 75.8655 101.296 77.4627C101.992 78.6324 102.378 79.9604 102.418 81.321C102.457 82.6815 102.148 84.0296 101.521 85.2376L101.339 85.5869C97.1636 93.5421 91.196 100.418 83.9073 105.67ZM134.583 76.3054L124.128 90.2464C121.723 93.4448 118.449 95.8837 114.696 97.272C110.943 98.6604 106.87 98.9394 102.963 98.0758C102.919 98.066 102.874 98.0573 102.829 98.0502L98.9696 97.4346C101.371 94.41 103.485 91.1677 105.284 87.75H112.5C112.795 87.75 113.088 87.6918 113.361 87.5788C113.634 87.4657 113.882 87.3 114.091 87.091L118.591 82.591C119.013 82.1691 119.25 81.5968 119.25 81C119.25 80.4033 119.013 79.8309 118.591 79.409C118.169 78.987 117.597 78.7499 117 78.7499C116.403 78.7499 115.831 78.987 115.409 79.409L111.568 83.25H106.797C107.183 80.4347 106.601 77.5718 105.146 75.1309C103.888 73.0415 102.148 71.2838 100.071 70.0048C103.127 69.4896 106.26 69.6642 109.24 70.5159L114.132 71.9134C114.518 72.0236 114.926 72.0286 115.314 71.928C115.703 71.8274 116.057 71.6247 116.341 71.341L120.841 66.841C121.233 66.4495 121.466 65.9274 121.497 65.3745C121.527 64.8217 121.353 64.277 121.007 63.8446L112.007 52.5946C111.738 52.2582 111.378 52.0061 110.97 51.8683C110.561 51.7305 110.122 51.7128 109.704 51.8172L102.243 53.6825L99.5051 49.5762L104.35 43.1159L107.5 44.0851C114.49 46.2356 120.742 50.29 125.557 55.7941C130.372 61.2981 133.558 68.0343 134.76 75.2476L134.793 75.4445C134.818 75.5947 134.812 75.7484 134.776 75.8963C134.74 76.0442 134.675 76.1834 134.583 76.3054Z" fill="black"/>
<path d="M76.5 96.75H67.5C66.9033 96.75 66.331 96.9871 65.909 97.409C65.4871 97.831 65.25 98.4033 65.25 99C65.25 99.5967 65.4871 100.169 65.909 100.591C66.331 101.013 66.9033 101.25 67.5 101.25H76.5C77.0967 101.25 77.669 101.013 78.091 100.591C78.5129 100.169 78.75 99.5967 78.75 99C78.75 98.4033 78.5129 97.831 78.091 97.409C77.669 96.9871 77.0967 96.75 76.5 96.75Z" fill="black"/>
<path d="M51.8653 61.4616C52.054 62.0277 52.4599 62.4957 52.9937 62.7626C53.5275 63.0295 54.1454 63.0734 54.7116 62.8847C55.2777 62.696 55.7457 62.2901 56.0126 61.7563C56.2795 61.2225 56.3234 60.6046 56.1347 60.0384L53.8847 53.2884C53.7912 53.0081 53.6435 52.7489 53.4499 52.5257C53.2563 52.3024 53.0206 52.1195 52.7563 51.9874C52.492 51.8552 52.2043 51.7764 51.9095 51.7555C51.6148 51.7345 51.3188 51.7719 51.0384 51.8653C50.7581 51.9587 50.4989 52.1065 50.2757 52.3001C50.0525 52.4937 49.8696 52.7294 49.7374 52.9937C49.6053 53.258 49.5265 53.5457 49.5055 53.8405C49.4846 54.1352 49.5219 54.4312 49.6153 54.7116L51.8653 61.4616Z" fill="black"/>
<path d="M61.7518 64.872C62.2483 65.203 62.856 65.3233 63.4411 65.2063C64.0262 65.0893 64.541 64.7447 64.872 64.2482L69.372 57.4982C69.6993 57.0017 69.8166 56.3958 69.6985 55.813C69.5804 55.2302 69.2363 54.7178 68.7416 54.3879C68.2468 54.0581 67.6415 53.9374 67.0581 54.0525C66.4747 54.1675 65.9605 54.5088 65.628 55.0018L61.128 61.7518C60.797 62.2483 60.6767 62.856 60.7937 63.4411C60.9107 64.0262 61.2553 64.541 61.7518 64.872Z" fill="black"/>
<path d="M89.2884 62.8847C89.5688 62.9781 89.8648 63.0155 90.1595 62.9945C90.4543 62.9736 90.742 62.8948 91.0063 62.7627C91.2706 62.6305 91.5063 62.4476 91.6999 62.2243C91.8935 62.0011 92.0413 61.7419 92.1347 61.4616L94.3847 54.7116C94.5734 54.1454 94.5295 53.5275 94.2626 52.9937C93.9957 52.4599 93.5277 52.054 92.9616 51.8653C92.3954 51.6766 91.7775 51.7205 91.2437 51.9874C90.7099 52.2543 90.304 52.7223 90.1153 53.2884L87.8653 60.0384C87.7718 60.3188 87.7345 60.6148 87.7555 60.9095C87.7764 61.2043 87.8552 61.492 87.9873 61.7563C88.1195 62.0206 88.3024 62.2563 88.5257 62.4499C88.7489 62.6435 89.0081 62.7913 89.2884 62.8847Z" fill="black"/>
<path d="M79.128 64.2482C79.4605 64.7412 79.9747 65.0825 80.5581 65.1975C81.1415 65.3126 81.7468 65.1919 82.2416 64.862C82.7363 64.5322 83.0804 64.0198 83.1985 63.437C83.3166 62.8542 83.1993 62.2483 82.872 61.7518L78.372 55.0018C78.2088 54.7543 77.9984 54.5414 77.7527 54.3755C77.507 54.2095 77.2309 54.0938 76.9403 54.0349C76.6498 53.976 76.3504 53.9751 76.0595 54.0322C75.7686 54.0894 75.4918 54.2035 75.2451 54.368C74.9985 54.5325 74.7867 54.7441 74.6221 54.9907C74.4575 55.2372 74.3432 55.5139 74.2858 55.8048C74.2285 56.0957 74.2292 56.395 74.2879 56.6856C74.3466 56.9763 74.4622 57.2524 74.628 57.4982L79.128 64.2482Z" fill="black"/>
<path d="M24.75 27H20.25V31.5H24.75V27Z" fill="black"/>
<path d="M24.75 36H20.25V40.5H24.75V36Z" fill="black"/>
<path d="M20.25 31.5H15.75V36H20.25V31.5Z" fill="black"/>
<path d="M29.25 31.5H24.75V36H29.25V31.5Z" fill="black"/>
<path d="M87.75 24.75H83.25V29.25H87.75V24.75Z" fill="black"/>
<path d="M87.75 38.25H83.25V42.75H87.75V38.25Z" fill="black"/>
<path d="M81 31.5H76.5V36H81V31.5Z" fill="black"/>
<path d="M94.5 31.5H90V36H94.5V31.5Z" fill="black"/>
</svg>
