<svg width="69" height="48" viewBox="0 0 69 48" fill="none" xmlns="http://www.w3.org/2000/svg">
<mask id="mask0" mask-type="alpha" maskUnits="userSpaceOnUse" x="0" y="0" width="69" height="48">
<path d="M62.4286 0H6.57143C2.94213 0 0 2.86538 0 6.4V41.6C0 45.1346 2.94213 48 6.57143 48H62.4286C66.0579 48 69 45.1346 69 41.6V6.4C69 2.86538 66.0579 0 62.4286 0Z" fill="white"/>
</mask>
<g mask="url(#mask0)">
<path d="M62.4286 0H6.57143C2.94213 0 0 2.86538 0 6.4V41.6C0 45.1346 2.94213 48 6.57143 48H62.4286C66.0579 48 69 45.1346 69 41.6V6.4C69 2.86538 66.0579 0 62.4286 0Z" fill="#00773C"/>
<path fill-rule="evenodd" clip-rule="evenodd" d="M52.5714 32V28.8H16.4285L23 32H42.7142C42.7142 33.7664 44.9222 35.2 47.6428 35.2C50.3634 35.2 52.5714 33.7664 52.5714 32ZM28.6842 12.4992C28.6448 12.4992 28.5857 12.5184 28.5101 12.5632C28.3327 12.6784 27.9844 13.0336 27.9712 13.4432C27.9614 13.6768 27.9154 13.6768 28.0698 13.8272C28.1815 13.9808 28.2998 13.968 28.5232 13.8496C28.6547 13.7536 28.6974 13.6992 28.7434 13.5424C28.7959 13.2864 28.4575 13.6704 28.4148 13.376C28.3392 13.1072 28.5561 12.992 28.7598 12.736C28.7664 12.608 28.7664 12.512 28.6842 12.5056V12.4992ZM31.9798 12.5152C31.9141 12.528 31.8385 12.6112 31.7301 12.7968C31.6545 12.9952 31.3227 13.296 31.5658 13.9168C31.7564 14.3104 31.8385 14.9472 31.7498 15.6608C31.6118 15.8624 31.5855 15.9328 31.4048 16.1344C31.1551 16.4 30.8791 16.3328 30.6754 16.2304C30.4782 16.1024 30.3271 16.0384 30.2384 15.6352C30.2548 14.9952 30.2942 13.9328 30.1727 13.7088C29.9952 13.3632 29.6995 13.4848 29.5747 13.5904C28.9734 14.1344 28.6744 15.04 28.4904 15.7664C28.3261 16.2912 28.1454 16.1376 28.0205 15.9264C27.7149 15.6448 27.6919 13.4624 27.3239 13.824C26.7325 15.4688 27.6624 17.2704 28.3097 17.0944C28.7697 17.2864 29.0654 16.4224 29.256 15.4784C29.3874 15.2128 29.486 15.1808 29.5517 15.3184C29.5352 16.5728 29.6502 16.8544 29.9788 17.232C30.7148 17.7888 31.3259 17.3024 31.3752 17.2576L31.9502 16.7008C32.0817 16.5728 32.246 16.56 32.4267 16.6752C32.6041 16.8352 32.5811 17.1008 32.9524 17.2832C33.2744 17.4112 33.9479 17.3152 34.1024 17.0496C34.3159 16.6976 34.3652 16.576 34.4638 16.4416C34.615 16.2496 34.8745 16.336 34.8745 16.3968C34.8515 16.5088 34.7004 16.6208 34.8022 16.8128C34.9829 16.9408 35.0257 16.8576 35.1308 16.8288C35.5054 16.656 35.7879 15.8624 35.7879 15.8624C35.8044 15.568 35.6335 15.5904 35.5251 15.6512C35.3772 15.7376 35.3707 15.7664 35.2294 15.8528C35.0421 15.8784 34.6872 15.9968 34.5131 15.7312C34.3324 15.4112 34.3324 14.9696 34.1944 14.6432C34.1944 14.624 33.9545 14.1408 34.1747 14.112C34.2831 14.1312 34.5262 14.192 34.5624 13.9968C34.6807 13.8048 34.3094 13.2608 34.0564 12.992C33.8395 12.7584 33.5372 12.7296 33.2448 12.9664C33.0378 13.152 33.0707 13.3568 33.0279 13.552C32.9787 13.776 32.9885 14.0544 33.2251 14.352C33.4288 14.7424 33.8001 15.248 33.6752 15.9584C33.6752 15.9584 33.4617 16.2976 33.0838 16.2528C32.9195 16.2208 32.6632 16.1568 32.5252 15.1648C32.4267 14.4192 32.5515 13.3728 32.2295 12.8832C32.1539 12.7008 32.0915 12.5216 31.9864 12.5312L31.9798 12.5152ZM30.9349 12.5984C30.8364 12.608 30.7279 12.72 30.6392 12.9344C30.5637 13.1008 30.4684 13.9584 30.4848 13.9584C30.4191 14.2144 30.7575 14.3232 30.9119 13.9968C31.1419 13.3888 31.142 13.1328 31.1551 12.8832C31.1222 12.6912 31.0335 12.5952 30.9349 12.6016V12.5984ZM34.7891 12.6624C34.6905 12.6752 34.6084 12.7328 34.5788 12.88C34.5361 13.2192 34.5591 13.408 34.6182 13.6928C34.6609 13.8848 34.9468 14.1984 35.0848 14.384C35.7518 15.2576 36.3991 16.1344 37.0168 17.04C37.1154 17.7184 37.1811 18.3776 37.2304 19.0368C37.3355 20.4768 37.3618 22.2688 37.2731 23.7888C37.5491 23.7984 37.9959 23.3504 38.1504 22.7008C38.2489 21.792 38.1175 19.9488 38.1044 19.4112L38.0715 18.6496C38.7944 19.8016 39.4909 21.0176 40.1744 22.3488C40.4274 22.2336 40.3715 20.8608 40.2269 20.6688C39.6749 19.5168 38.9127 18.3776 38.6728 17.9392C38.5841 17.7792 38.2851 17.3408 37.9335 16.832C37.8678 16.1024 37.7955 15.488 37.7495 15.3024C37.6345 14.5344 38.0715 15.3888 38.0124 14.944C37.8678 14.176 37.4341 13.6576 36.9215 12.9536C36.7572 12.7296 36.7572 12.6784 36.5042 13.0112C36.3564 13.3472 36.3564 13.6288 36.4057 13.8912C36.3334 13.7952 36.2512 13.6864 36.1329 13.5456L35.2951 12.8544C35.1801 12.7744 34.9567 12.6528 34.7891 12.6624ZM46.2102 12.7808C46.1609 12.7744 46.1117 12.7968 46.0459 12.8832C45.9309 12.9792 45.8094 13.1616 45.8159 13.3952C45.8389 13.7952 45.9145 14.208 45.9408 14.6112L45.9737 14.7712C45.9277 14.72 45.8882 14.6752 45.8652 14.656C45.0537 13.824 46.2365 14.5152 45.7075 13.8784C45.2639 13.3984 45.1325 13.2512 44.7547 12.9632C44.5575 12.848 44.4458 12.6176 44.3834 13.008C44.3571 13.3504 44.3308 13.7504 44.3505 14.0384C44.3505 14.1984 44.5247 14.5024 44.6725 14.6784C45.2114 15.328 45.7634 16.016 46.3154 16.7328C46.4337 18.1952 46.4632 19.536 46.5782 21.0016C46.5651 21.6288 46.3679 22.4608 46.1839 22.5376C46.1839 22.5376 45.8948 22.6976 45.7042 22.5216C45.5629 22.4672 45.0077 21.616 45.0077 21.616C44.7218 21.36 44.5312 21.4336 44.3308 21.616C43.7722 22.1408 43.5159 23.1264 43.1381 23.8048C43.0395 23.9552 42.7668 24.0864 42.4612 23.792C41.6825 22.7552 42.1327 21.28 42.0407 21.6608C41.3507 22.4224 41.6529 23.6832 41.8107 23.9552C42.0407 24.4032 42.2247 24.6912 42.6649 24.9056C43.0757 25.1936 43.3878 25.0176 43.5652 24.8096C43.9727 24.4 43.9792 23.3472 44.1698 23.1392C44.3012 22.7552 44.6397 22.8192 44.8039 22.992C44.9682 23.216 45.1522 23.36 45.3855 23.4816C45.7667 23.808 46.2201 23.8656 46.6669 23.568C46.9725 23.4016 47.1729 23.184 47.3504 22.7552C47.5475 22.256 47.4489 19.632 47.4062 18.1728L48.2605 19.376C48.3788 20.656 48.4347 21.92 48.3919 23.1296C48.3657 23.3696 49.2561 22.4128 49.2462 21.9584C49.2462 21.5648 49.2528 21.2032 49.2462 20.8704C49.6832 21.5424 50.1005 22.224 50.4948 22.9184C50.7412 22.7904 50.6591 21.4368 50.5047 21.2544C50.0907 20.576 49.5584 19.8464 49.1477 19.2768C49.0655 18.5632 48.9571 17.7216 48.9045 17.4624C48.8289 17.0592 48.7501 16.4544 48.6318 15.9776C48.5989 15.7952 48.5004 15.2 48.5332 15.1456C48.5792 15.008 48.7632 15.1456 48.8519 14.992C48.9834 14.848 48.3854 13.328 48.0798 12.8992C47.9714 12.7072 47.7709 12.7712 47.5278 13.0912C47.2978 13.296 47.3832 13.7696 47.4687 14.2208C47.6921 15.3728 47.8958 16.5376 48.0535 17.7088C47.7578 17.2768 47.3964 16.7584 47.0415 16.2624L46.9955 16.0384C46.9955 16.0128 46.9495 15.0944 46.9068 14.8768C46.8969 14.7872 46.8739 14.7616 46.9725 14.7744C47.0711 14.8576 47.0842 14.8608 47.1467 14.8896C47.2518 14.9024 47.3438 14.736 47.2781 14.5792L46.3252 12.8704C46.2924 12.8288 46.2464 12.7904 46.1938 12.784L46.2102 12.7808ZM16.7374 12.8128C16.5567 12.8064 16.3661 12.9088 16.4417 13.1168C16.3957 13.2288 16.7834 13.6064 16.8524 13.8144C16.9082 13.9648 16.7867 14.4384 16.9181 14.4864C17.0331 14.5344 17.1941 14.1536 17.2532 13.8048C17.2861 13.6128 17.2631 12.9536 16.8031 12.8192C16.7801 12.8128 16.7571 12.8128 16.7308 12.8096L16.7374 12.8128ZM50.3174 12.8128C50.2747 12.8192 50.2254 12.8768 50.1531 13.0368C49.9724 13.3248 49.9099 13.8368 49.9822 14.2848C50.4094 17.1328 50.7379 19.8912 50.8037 22.4128C50.7642 22.656 50.7511 22.784 50.6394 23.0848C50.3831 23.4048 50.1005 23.8016 49.8344 23.9936C49.5715 24.1856 49.0064 24.3712 48.8224 24.512C48.2309 24.8384 48.2309 25.216 48.7041 25.232C49.5189 25.136 50.4849 25.072 51.1487 24.096C51.3261 23.824 51.5364 23.0816 51.5429 22.624C51.6087 19.968 51.5101 17.36 51.0994 15.4368C51.0731 15.2448 50.9877 14.8192 51.0205 14.7648C51.0698 14.6304 51.3359 14.7744 51.4312 14.624C51.5725 14.4832 50.7412 13.4496 50.4521 13.008C50.3929 12.8992 50.3535 12.8064 50.3075 12.816L50.3174 12.8128ZM41.7647 12.8576C41.7318 12.864 41.6858 12.9152 41.5938 13.0336C41.3638 13.7568 41.2849 14.3456 41.3737 14.8C41.9651 17.776 42.5565 20.48 42.4645 23.312C42.7405 23.312 43.0625 22.6944 43.2005 22.08C43.2761 21.232 43.1479 20.7168 43.1282 20.224C43.1052 19.7248 42.5499 15.6928 42.4382 15.3184C42.3002 14.608 42.9771 15.2224 42.9048 14.8128C42.6682 14.288 42.0834 13.5328 41.9059 13.0752C41.8402 12.9536 41.8271 12.8416 41.7745 12.8512L41.7647 12.8576ZM20.953 12.9152C20.8872 12.928 20.8117 12.9856 20.7887 13.0752C20.7722 13.1392 20.815 13.2448 20.7558 13.2768C20.723 13.3088 20.5981 13.2864 20.6047 13.1168C20.6047 13.0592 20.562 13.0016 20.539 12.9664C20.5127 12.9536 20.4962 12.9504 20.4502 12.9504C20.3944 12.9504 20.3944 12.9664 20.3648 13.0144C20.3517 13.0592 20.332 13.104 20.332 13.1552C20.3254 13.2192 20.2991 13.2352 20.2564 13.2448C20.2038 13.2448 20.2137 13.2512 20.1742 13.2224C20.1414 13.2 20.1151 13.1904 20.1151 13.1456C20.1151 13.0976 20.102 13.0176 20.0888 12.992C20.0658 12.96 20.0297 12.9472 19.9902 12.9376C19.7734 12.9376 19.7602 13.1872 19.7701 13.2768C19.7537 13.296 19.7471 13.7248 20.0428 13.8464C20.4371 14.032 21.1862 13.952 21.16 13.328C21.16 13.2736 21.1435 13.088 21.137 13.04C21.0975 12.944 21.022 12.912 20.9497 12.9216L20.953 12.9152ZM26.2955 12.9216C26.1575 12.928 26.0327 12.9664 25.9341 13.0176C25.6712 13.264 25.6055 13.6576 25.8158 13.904C26.0129 14 26.22 14.192 26.0852 14.304C25.5135 14.896 24.0251 15.8912 23.9495 16.0736V16.0928H23.9627V16.0992C24.0382 16.1472 24.9714 16.1472 25.0732 16.0992H25.0798C25.4018 15.9808 26.9198 14.2912 26.9198 14.2912C26.841 14.2272 26.7687 14.176 26.6898 14.1088C26.6044 14.0384 26.6142 13.968 26.6898 13.8976C27.0644 13.6864 26.9461 13.216 26.7489 13.0016C26.5847 12.9312 26.4335 12.9056 26.2955 12.9152V12.9216ZM40.2598 12.9216C40.2204 12.9312 40.1711 12.9856 40.0955 13.1456C39.9148 13.4336 39.7932 13.9296 39.8097 14.3936C40.1974 17.0176 40.3157 19.312 40.5719 21.936C40.5917 22.192 40.5522 22.5568 40.3814 22.704C39.7374 23.3568 38.8141 24.1568 37.8087 24.528C37.7002 24.6464 38.0781 25.1488 38.5644 25.1488C39.3792 25.0528 40.0955 24.6112 40.7658 23.4368C40.9399 23.1648 41.2521 22.5792 41.2587 22.1248C41.3244 19.4624 41.1272 17.3888 40.7132 15.4688C40.6902 15.2768 40.7067 15.0528 40.7395 15.0016C40.7921 14.9376 40.9695 15.0016 41.0681 14.8512C41.2061 14.7104 40.6935 13.5616 40.4044 13.1232C40.3452 13.0112 40.3124 12.9216 40.2598 12.9248V12.9216ZM18.6267 13.008C18.515 13.0208 18.4098 13.104 18.3572 13.232C18.3408 13.648 18.3375 14.064 18.3901 14.4544C18.5872 15.136 18.6431 15.7344 18.7384 16.4288C18.7712 17.3632 18.1864 16.832 18.2127 16.3712C18.3441 15.7696 18.3112 14.8256 18.193 14.5856C18.0944 14.3456 17.9892 14.288 17.7592 14.3296C17.5785 14.3168 17.1087 14.8096 16.9772 15.6416C16.9772 15.6416 16.8655 16.064 16.8195 16.4416C16.7538 16.8672 16.4647 17.1712 16.261 16.384C16.0868 15.808 15.9817 14.4 15.6892 14.7264C15.6038 15.8272 15.5052 17.7664 16.4647 17.9648C17.6278 18.0736 16.9838 16.0512 17.4044 15.6832C17.4865 15.5072 17.6344 15.504 17.6442 15.7312V17.4496C17.6311 18.0064 18.0057 18.1728 18.3014 18.288C18.607 18.2656 18.8074 18.2752 18.9257 18.5632L19.0735 21.5392C19.0735 21.5392 19.7767 21.7312 19.8095 19.8656C19.8424 18.768 19.5795 17.8496 19.734 17.6352C19.7405 17.424 20.0165 17.4112 20.2071 17.5168C20.5127 17.7248 20.6474 17.9808 21.1205 17.8784C21.8434 17.6864 22.2705 17.3472 22.2804 16.8096C22.2475 16.2976 22.1818 15.7856 21.9518 15.2736C21.9847 15.184 21.8204 14.944 21.8532 14.8512C21.9781 15.0432 22.1752 15.0304 22.2147 14.8512C22.0964 14.4576 21.9058 14.0832 21.597 13.9232C21.344 13.6992 20.9727 13.7472 20.8347 14.2016C20.769 14.7264 21.0318 15.3472 21.4261 15.856C21.505 16.0544 21.6232 16.384 21.5707 16.6816C21.3637 16.7968 21.1567 16.7456 20.9792 16.5696C20.9792 16.5696 20.4108 16.1536 20.4108 16.0576C20.5652 15.1136 20.4437 15.0016 20.3615 14.7456C20.3024 14.3808 20.125 14.2656 19.9837 14.016C19.8391 13.8656 19.6452 13.8656 19.5565 14.016C19.3002 14.4416 19.4185 15.36 19.6025 15.7664C19.734 16.144 19.9377 16.3808 19.8424 16.3808C19.7635 16.5888 19.5992 16.5408 19.481 16.2944C19.3167 15.7824 19.2772 15.0272 19.2772 14.6848C19.228 14.2624 19.1721 13.3568 18.883 13.1264C18.8074 13.024 18.7187 12.9888 18.63 12.9984L18.6267 13.008ZM22.7075 13.008C22.6517 13.0208 22.586 13.0528 22.5104 13.072C22.264 13.1456 22.034 13.3536 22.1062 13.7568C22.402 15.4848 22.5892 16.8064 22.8817 18.5344C22.9244 18.7392 22.7502 19.0048 22.5268 18.9824C22.1457 18.7264 22.0504 18.2144 21.3998 18.24C20.9267 18.24 20.3878 18.7456 20.3221 19.2256C20.2432 19.6096 20.217 20.0256 20.3221 20.3584C20.6507 20.7424 21.0515 20.704 21.3998 20.6144C21.6857 20.5024 21.9255 20.2304 22.0241 20.2944C22.0898 20.4 22.0175 21.2992 20.677 21.9904C19.849 22.3552 19.1918 22.4384 18.837 21.7856C18.6201 21.376 18.8567 19.8144 18.3178 20.1728C16.721 24.1792 22.0537 24.736 22.6484 20.3392C22.6878 20.2112 22.8028 20.0896 22.8882 20.1216C22.9211 20.1376 22.9539 20.1856 22.9671 20.2752C22.8422 24.256 18.8402 24.5312 18.1634 23.2768C17.9925 22.9824 17.9432 22.3232 17.9268 21.9328C17.894 21.6928 17.8348 21.5552 17.7625 21.5008C17.5982 21.3824 17.3814 21.6928 17.3354 22.2272C17.2697 22.6592 17.2861 22.7776 17.2861 23.1936C17.503 26.3392 22.6517 24.9856 23.4895 22.3936C23.9035 21.0496 23.4797 20.0352 23.621 19.9104L23.6308 19.904H23.6407L23.6571 19.8976C24.1697 20.4352 24.886 19.9616 25.0437 19.7792C25.1094 19.6832 25.2802 19.6192 25.3985 19.7472C25.7928 20.0224 26.4959 19.8912 26.6405 19.3952C26.7259 18.9152 26.7982 18.4224 26.8147 17.9072C26.5518 17.9872 26.3415 18.0448 26.2561 18.1312C26.2364 18.1536 26.2232 18.1792 26.2167 18.2048L26.151 18.6304C26.151 18.6464 26.1444 18.656 26.1378 18.6624C26.1279 18.6848 26.1049 18.7008 26.0918 18.7104C25.9998 18.7584 25.8388 18.7328 25.829 18.6016C25.7074 18.0576 25.1981 17.9872 24.8892 18.8352C24.6822 18.9952 24.2978 19.0272 24.265 18.784C24.3142 18.2144 24.0777 18.1376 23.6078 18.4064L23.1544 15.0784C23.3515 15.0688 23.529 15.2064 23.713 14.9888C23.5158 14.4 23.1051 13.2032 22.8718 13.088H22.8652L22.8324 13.056C22.8324 13.0496 22.8225 13.0464 22.816 13.0432L22.8028 13.024C22.7897 13.024 22.7765 13.0176 22.77 13.0144C22.747 13.008 22.7272 13.008 22.7042 13.008H22.7075ZM38.6169 13.0208C38.4132 13.0144 38.1898 13.1392 38.2752 13.3888C38.2227 13.5264 38.7122 13.9872 38.7911 14.2368C38.9324 14.6208 38.6827 14.9952 38.8305 15.0496C38.9685 15.1072 39.1591 14.6496 39.2248 14.224C39.3102 13.8784 39.0605 13.1744 38.6991 13.0304L38.6169 13.024V13.0208ZM26.22 13.44C26.312 13.4336 26.4237 13.5168 26.4828 13.632C26.5387 13.76 26.5091 13.8784 26.4171 13.9008C26.3185 13.9232 26.1937 13.8432 26.1345 13.7152C26.0754 13.5872 26.1017 13.4688 26.2002 13.4464H26.22V13.44ZM49.2101 14.0224C49.0228 14.016 48.8158 14.1504 48.9012 14.4224C48.8552 14.5696 49.2955 15.0688 49.3711 15.344C49.4368 15.536 49.2725 16.1632 49.4039 16.2208C49.5288 16.2848 49.6997 15.7856 49.7654 15.3248C49.8048 15.0688 49.6142 14.1888 49.2889 14.032C49.2659 14.0256 49.2397 14.0192 49.2134 14.0192L49.2101 14.0224ZM36.4944 14.3296C36.5174 14.4032 36.5338 14.4768 36.5437 14.5536C36.5831 14.7136 36.6159 14.8736 36.6488 15.04C36.5042 14.8416 36.3859 14.6816 36.3301 14.624C36.0015 14.24 36.3367 14.3744 36.4944 14.3296ZM39.4285 15.7312C39.3562 15.744 39.2872 15.8048 39.2642 15.9008C39.2445 15.9584 39.2905 16.0608 39.2314 16.0928C39.1985 16.1248 39.0671 16.1056 39.0769 15.9328C39.0769 15.8752 39.0342 15.8144 39.0112 15.7824C38.9849 15.7664 38.9685 15.76 38.9225 15.76C38.8667 15.76 38.8667 15.776 38.8371 15.824C38.8239 15.8688 38.8042 15.9136 38.8042 15.968C38.8042 16.032 38.7779 16.0512 38.7319 16.064C38.6794 16.064 38.6892 16.064 38.6465 16.0416C38.6202 16.0096 38.5907 16.0032 38.5907 15.9584C38.5907 15.9104 38.5808 15.8368 38.5644 15.8048C38.5414 15.7728 38.5085 15.7632 38.4658 15.7504C38.2522 15.7504 38.2358 15.9936 38.2489 16.0832C38.2358 16.1024 38.2259 16.5376 38.5217 16.6592C38.9225 16.8416 39.6717 16.7552 39.6388 16.1344C39.6388 16.08 39.6224 15.8944 39.6191 15.8464C39.5764 15.7504 39.5008 15.7184 39.4318 15.728L39.4285 15.7312ZM26.0557 15.8592C26.0097 15.8592 25.944 15.872 25.8684 15.9168C25.5168 16.1024 25.3821 16.6528 25.6055 16.9728C25.8027 17.2608 26.1312 17.1552 26.174 17.1552C26.519 17.2 26.7227 16.528 26.7227 16.528C26.7227 16.528 26.7325 16.336 26.3284 16.6944C26.1509 16.7264 26.1312 16.6624 26.0852 16.5664C26.0458 16.3968 26.0524 16.2144 26.1345 16.0448C26.174 15.9392 26.1345 15.872 26.0557 15.8656V15.8592ZM44.9584 15.9456C44.7612 15.936 44.5542 16.0608 44.4984 16.32C44.4984 16.4736 44.5707 16.5568 44.5575 16.6976C44.5411 16.7776 44.4589 16.8256 44.2552 16.736C44.2881 16.704 44.1238 16.4864 44.1238 16.4864C43.9694 16.3904 43.7624 16.4864 43.6244 16.576C43.5488 16.7104 43.4929 16.9376 43.5784 17.168C43.8018 17.5744 44.5739 18.2656 44.9419 18.272C44.9485 17.9072 44.9847 17.4208 45.0077 17.12C45.0142 17.0048 45.0405 16.88 45.1555 16.8512C45.2672 16.8192 45.4611 16.96 45.4611 16.8416C45.4414 16.6112 45.3954 16.2656 45.2639 16.1056C45.1917 16.0096 45.0767 15.952 44.9617 15.9456H44.9584ZM29.3085 17.216L29.2987 17.2256C29.2987 17.2256 29.2921 17.2256 29.2888 17.232C29.2494 17.264 29.2034 17.328 29.1015 17.392C28.9274 17.584 28.8978 17.7216 28.9044 18.1056C28.9175 18.1472 29.2329 19.0112 29.5057 19.616C29.6897 20.2464 29.8572 20.9696 29.7357 21.6512C29.3085 22.5536 28.4542 23.3632 27.6229 23.8048C27.1958 23.9328 26.8344 23.888 26.7358 23.7984C26.4927 23.6384 26.4894 23.3504 26.5058 23.3056V23.296C27.2024 22.8224 28.0008 22.4384 28.6251 21.1616C28.8091 20.672 28.8682 20.3776 28.6842 19.6256C28.6119 19.3376 28.5199 19.1136 28.3228 18.9088H28.3294C28.4477 18.8544 28.7565 19.0752 28.8058 18.9408C28.7302 18.576 28.4772 18.0928 28.1979 17.8432C27.9482 17.6192 27.6722 17.5968 27.4488 17.7984C27.1925 17.9392 27.1399 18.4384 27.2615 18.8736C27.3995 19.2 27.7708 19.2576 28.0337 19.92C28.0402 19.9648 28.1224 20.416 27.991 20.6016C27.8792 20.928 26.496 21.9904 26.3974 22.0544L26.3875 22.0608L26.381 22.0672H26.3744H26.3678V22.0576C26.3612 22.032 26.3678 21.9616 26.3678 21.856C26.3579 21.6576 26.4434 21.2064 26.4335 21.1264V21.12C25.9735 21.408 25.8191 22.288 25.737 22.5504C24.5771 23.328 23.2628 23.9072 22.5038 24.6944C22.1095 25.3024 25.2244 24.0096 25.5858 23.8528L25.5957 23.8624C25.668 23.936 25.6712 24.192 25.8782 24.4256C26.2068 24.8512 26.8902 25.1136 27.5605 24.9504C28.6842 24.5568 29.3348 23.8112 29.992 22.9824C30.084 22.8544 30.2318 22.7456 30.3698 22.848C30.8199 23.8336 32.1277 24.5376 33.8132 24.608C34.2075 24.1472 34.0202 23.92 33.8625 23.824C33.8132 23.792 33.0247 23.4912 32.8998 23.1936C32.8242 22.9184 33.0115 22.672 33.3861 22.4896C34.4704 22.3616 35.5349 22.2176 36.5667 21.8944C36.5765 21.5552 36.7802 21.0528 36.9182 20.832C37.0168 20.6816 37.0727 20.6656 37.0957 20.6464V20.64H37.1022V20.6304V20.5984L36.9248 20.496L33.465 20.4832C33.4222 20.4672 33.3927 20.4512 33.3729 20.4352L33.3664 20.4256C33.3664 20.4256 33.3598 20.4256 33.3598 20.4192C33.3598 20.4128 33.3532 20.4128 33.3532 20.4128V20.416V20.4096V20.4032V20.3968L33.3598 20.3872C33.3762 20.368 33.4189 20.3456 33.4682 20.3232C34.2962 20.2176 35.7617 19.984 35.8602 18.6112C35.8438 17.8944 35.5448 17.4272 34.6445 17.2992C33.9808 17.3472 33.5077 17.9712 33.5832 18.656C33.5504 18.8384 33.6489 19.2 33.4518 19.2416C32.1835 19.3568 30.797 20.1312 30.7509 20.688H30.7444H30.7378H30.7312C30.7312 20.6944 30.7247 20.6944 30.7214 20.6944H30.7082H30.7017H30.6885C30.6064 20.6688 30.5012 20.5344 30.5177 20.352C30.4684 19.392 30.1464 18.304 29.6469 17.472C29.4662 17.296 29.3841 17.2256 29.3381 17.216H29.3282H29.3184H29.3118H29.3085ZM32.6205 17.7216C32.5548 17.7344 32.4792 17.792 32.4562 17.888C32.4398 17.952 32.4891 18.0544 32.4299 18.0864C32.3971 18.1184 32.2657 18.0992 32.2722 17.9264C32.2722 17.872 32.2295 17.8112 32.2065 17.776C32.1802 17.76 32.1638 17.7568 32.1211 17.7568C32.0652 17.7568 32.0619 17.7696 32.0324 17.8144C32.0159 17.8592 31.9995 17.9104 31.9995 17.9584C31.993 18.0224 31.9667 18.0416 31.9239 18.048C31.8714 18.048 31.8845 18.0576 31.8418 18.032C31.8155 18.0064 31.7827 17.9936 31.7827 17.9488C31.7827 17.9008 31.7728 17.8208 31.7597 17.7888C31.7367 17.7664 31.7005 17.7568 31.6611 17.744C31.4409 17.744 31.4311 17.984 31.441 18.0768C31.4245 18.0928 31.4147 18.5248 31.7104 18.6464C32.1047 18.832 33.0575 18.7232 32.8275 18.1248C32.8275 18.0704 32.8111 17.8848 32.8078 17.8368C32.7651 17.7408 32.6895 17.7088 32.6172 17.7184L32.6205 17.7216ZM45.9769 18.256H45.9441C45.9441 18.256 44.0975 19.536 44.0548 19.5808C43.8708 19.7408 43.9628 20.2944 44.0548 20.2304C44.1862 20.2784 46.0427 19.0528 46.0065 18.9088C46.0887 18.9152 46.1281 18.2784 45.9737 18.2528L45.9769 18.256ZM34.3652 18.448C34.4375 18.4384 34.5361 18.464 34.6281 18.512C34.7694 18.5952 34.8581 18.7104 34.8417 18.8V18.8128C34.8351 18.8128 34.8351 18.8128 34.8351 18.8192V18.8256C34.8351 18.8256 34.8285 18.8256 34.8285 18.832C34.8285 18.8384 34.8187 18.8448 34.8121 18.8512C34.7464 18.9152 34.5952 18.9024 34.4507 18.8192C34.3127 18.7456 34.2305 18.6272 34.2371 18.544V18.5344L34.2535 18.5024C34.2535 18.5024 34.2535 18.496 34.2601 18.4928L34.2765 18.4736C34.2995 18.4576 34.3291 18.4416 34.3652 18.4416V18.448ZM18.2061 18.768C17.2532 18.7872 15.8502 19.9904 15.8141 20.656L18.837 19.248C18.6727 19.0048 18.8271 18.7872 18.2061 18.768ZM21.3045 19.184C21.3965 19.1904 21.4951 19.2352 21.5477 19.3632C21.5937 19.4816 21.5477 19.6032 21.4918 19.664V19.6736C21.4458 19.7248 21.3078 19.7056 21.206 19.7056C21.0844 19.6992 21.0252 19.68 20.953 19.584C20.9135 19.472 21.0187 19.3664 21.068 19.2896L21.091 19.2576C21.1238 19.2256 21.1895 19.2 21.2552 19.1936L21.298 19.1872L21.3045 19.184ZM45.6188 19.5584C45.4447 19.5776 45.2837 19.7344 45.3559 19.984C45.3099 20.1312 45.5859 20.6464 45.6615 20.9184C45.7272 21.1104 45.5761 21.664 45.7108 21.7184C45.8357 21.7824 46.1609 21.3984 46.1511 20.9056C46.1839 20.6496 46.0591 19.7216 45.7338 19.568C45.6944 19.5584 45.6549 19.5552 45.6155 19.5584H45.6188ZM24.9714 20.4672C24.8202 20.4768 24.6855 20.5536 24.748 20.7616C24.7381 20.9088 25.1751 21.0912 25.1981 21.4336C25.2572 21.5808 25.0995 22.0416 25.231 22.08C25.3492 22.128 25.5135 21.76 25.576 21.4272C25.6088 21.2416 25.4248 20.5952 25.116 20.4768C25.0667 20.464 25.0174 20.4608 24.9681 20.464L24.9714 20.4672ZM31.1485 21.2864H31.1879C31.5757 21.3888 32.1408 21.4016 32.6337 21.4464C33.0378 21.4784 33.2349 21.7792 32.8637 21.9104C32.4891 22.032 32.131 22.1344 32.131 22.6528C32.177 22.9088 32.1638 23.0432 32.1244 23.1008C32.1244 23.1104 32.1145 23.1168 32.1112 23.12C32.1112 23.12 32.1112 23.1264 32.1047 23.1264V23.1328H32.0948L32.0718 23.1424H32.0554C31.9667 23.1584 31.8385 23.0784 31.7432 23.0272C31.5132 22.8672 30.8725 22.4832 30.7805 21.6512C30.7674 21.4592 30.9119 21.2992 31.1419 21.2832L31.1485 21.2864ZM16.054 21.9264C16.031 21.9264 15.9882 21.9968 15.9225 22.0768C15.3508 22.9568 15.2982 24.272 15.6137 24.6688C15.778 24.8512 16.054 24.9344 16.2577 24.8768C16.6191 24.7264 16.7735 24.0192 16.6848 23.7632C16.5698 23.5808 16.4745 23.552 16.3562 23.7056C16.1032 24.2016 15.9948 23.8592 15.9784 23.5776C15.939 23.056 15.9915 22.5696 16.0507 22.1856C16.0835 21.9936 16.0835 21.92 16.0507 21.92L16.054 21.9264ZM35.4298 23.0848C35.3871 23.0848 35.3444 23.0912 35.2984 23.1168C35.2885 23.1168 34.8909 23.3728 34.7628 23.5584C34.6839 23.616 34.6971 23.664 34.7168 23.7664C34.7759 23.904 34.8811 23.8624 35.0059 23.7984C35.1702 23.7728 35.2458 23.8784 35.2359 24.0672C35.1604 24.3072 35.2688 24.3936 35.2688 24.4096C35.2688 24.4224 35.4232 24.5536 35.6072 24.4512C35.9917 24.3072 36.2315 24.1632 36.7737 24.0512C36.9149 24.0512 36.9051 23.68 36.6817 23.6672C36.3859 23.68 36.1231 23.6992 35.8274 23.9232C35.6467 23.9616 35.6171 23.8528 35.5744 23.7568C35.5284 23.52 35.6795 23.3536 35.6467 23.1744C35.6532 23.184 35.5547 23.0976 35.4265 23.0912L35.4298 23.0848ZM47.8367 23.5328L47.5738 23.5584C47.4555 23.5808 47.4161 23.632 47.3931 23.7728C47.4029 23.9808 47.5344 23.9712 47.6724 24.0544C47.7512 24.1504 47.8038 24.24 47.6658 24.4064C47.5344 24.5184 47.4457 24.5824 47.3142 24.6944C47.2584 24.7968 47.2157 24.9504 47.4062 25.0016C47.7512 25.0976 48.5497 24.592 48.5497 24.5856C48.6811 24.4896 48.6351 24.3072 48.6252 24.3072C48.5464 24.224 48.3755 24.2752 48.2638 24.2592C48.2079 24.2592 48.0338 24.2336 48.1127 24.08C48.1849 23.984 48.2112 23.9296 48.2605 23.8112C48.3098 23.696 48.2605 23.6192 48.0699 23.5552C47.9714 23.536 47.9057 23.5296 47.8301 23.5328H47.8367ZM43.0625 35.8848C43.9497 35.9264 44.7777 35.8944 45.6582 35.936C45.8028 36.0512 45.7338 36.32 45.6418 36.3648L45.6254 36.3712H45.6155H45.6024L44.8598 36.352V36.3104C44.7875 36.112 44.2947 36.1248 44.1764 36.2784V36.288C44.1698 36.288 44.1665 36.2976 44.1665 36.3008L44.1599 36.3168V36.3552C43.7657 36.4032 43.4207 36.3424 43.0329 36.3296C42.9179 36.192 42.9344 35.9456 43.0658 35.8816L43.0625 35.8848Z" fill="white"/>
<path d="M62.4286 1.60004H6.57145C3.84948 1.60004 1.64288 3.74907 1.64288 6.40004V41.6C1.64288 44.251 3.84948 46.4 6.57145 46.4H62.4286C65.1506 46.4 67.3572 44.251 67.3572 41.6V6.40004C67.3572 3.74907 65.1506 1.60004 62.4286 1.60004Z" stroke="black" stroke-opacity="0.1"/>
</g>
</svg>
