<svg width="255" height="255" viewBox="0 0 255 255" fill="none" xmlns="http://www.w3.org/2000/svg">
<path d="M67.7344 119.531L67.8938 119.77L40.2023 139.931L39.8438 139.453H29.8828C27.241 139.453 24.7074 138.404 22.8394 136.536C20.9713 134.668 19.9219 132.134 19.9219 129.492C19.9219 126.85 20.9713 124.317 22.8394 122.449C24.7074 120.581 27.241 119.531 29.8828 119.531H67.7344Z" fill="#F2B59D"/>
<path d="M95.625 99.6094L67.8938 119.77L67.7344 119.531H41.8359C39.1941 119.531 36.6605 118.482 34.7925 116.614C32.9245 114.746 31.875 112.212 31.875 109.57C31.875 106.929 32.9245 104.395 34.7925 102.527C36.6605 100.659 39.1941 99.6094 41.8359 99.6094H95.625Z" fill="#F2B59D"/>
<path d="M219.141 79.6873V81.2811L175.034 83.4725L160.969 73.8702C157.843 71.1909 155.871 67.4094 155.462 63.3127C155.054 59.2161 156.242 55.1198 158.777 51.8764C160.416 49.7894 162.776 48.3908 165.393 47.9558C168.011 47.5208 170.696 48.0808 172.922 49.5256L219.141 79.6873Z" fill="#F2B59D"/>
<path d="M251.016 151.406V175.312H243.047L240.696 177.066C231.88 183.681 221.158 187.26 210.136 187.266H208.263C204.904 187.276 201.553 186.942 198.262 186.27L164.116 179.456C172.376 174.678 179.586 168.282 185.313 160.65L195.234 147.422L251.016 151.406Z" fill="#F2B59D"/>
<path d="M219.141 81.2812L175.034 83.4727L171.328 83.6719L135.469 67.7344L107.578 63.75H51.7969C49.6854 63.7563 47.6622 64.5979 46.1691 66.091C44.676 67.584 43.8344 69.6072 43.8281 71.7188C43.8255 73.8124 44.236 75.8861 45.036 77.8209C45.836 79.7557 47.0098 81.5137 48.4903 82.9941C49.9707 84.4746 51.7287 85.6484 53.6635 86.4484C55.5983 87.2484 57.6719 87.6589 59.7656 87.6562H95.625V99.6094L67.8938 119.77L40.2023 139.931L13.3875 159.415C11.1371 161.056 9.46326 163.366 8.60559 166.016C7.74791 168.666 7.75032 171.519 8.61245 174.167C9.47459 176.815 11.1523 179.123 13.4055 180.76C15.6587 182.397 18.3719 183.28 21.157 183.281H23.4281C24.9679 183.285 26.495 183.002 27.9305 182.445L29.9227 181.054C29.3543 181.641 28.6779 182.114 27.9305 182.445L9.08437 195.673C7.51098 196.769 6.22564 198.229 5.33769 199.928C4.44974 201.628 3.98547 203.517 3.98438 205.434V207.227C3.98649 210.386 5.24231 213.415 7.47603 215.649C9.70974 217.883 12.7387 219.139 15.8977 219.141C18.5046 219.153 21.0417 218.298 23.1094 216.71L25.1813 215.116L25.2211 215.156C24.3631 216.748 23.9115 218.527 23.9062 220.336C23.9062 223.189 25.0397 225.925 27.0571 227.943C29.0746 229.96 31.8109 231.094 34.6641 231.094H36.2977C38.5968 231.109 40.837 230.367 42.6727 228.982L64.6664 212.766C63.9699 214.312 63.6713 216.008 63.7978 217.7C63.9242 219.391 64.4718 221.024 65.3905 222.449C66.3093 223.875 67.5701 225.048 69.0581 225.862C70.5461 226.676 72.2141 227.105 73.9102 227.109H76.5C78.5742 227.103 80.5994 226.479 82.3172 225.316L122.241 197.625C128.37 193.407 135.118 190.168 142.242 188.023L148.976 185.991C154.262 184.416 159.344 182.223 164.116 179.456C172.376 174.678 179.586 168.282 185.313 160.65L195.234 147.422L251.016 151.406V79.6875L219.141 81.2812Z" fill="#F2C4B2"/>
<path d="M103.594 152.247C103.595 151.065 103.265 149.906 102.642 148.901C102.02 147.896 101.129 147.086 100.07 146.56C99.0106 146.035 97.826 145.816 96.6492 145.928C95.4725 146.04 94.3504 146.479 93.4097 147.195L6.06025 213.562C7.54121 215.916 9.7951 217.681 12.4352 218.555C12.6703 218.627 12.9014 218.714 13.1405 218.774C13.559 218.863 13.9819 218.929 14.4075 218.973C14.8036 219.035 15.2025 219.076 15.6028 219.097C15.9813 219.097 16.3599 219.097 16.7344 219.057C17.0173 219.057 17.3042 219.029 17.5831 218.989C17.9856 218.926 18.3846 218.843 18.7784 218.738C19.0374 218.674 19.3003 218.627 19.5513 218.547C19.9722 218.403 20.3846 218.235 20.7865 218.045C20.9897 217.953 21.2049 217.881 21.4001 217.778C21.9996 217.472 22.5715 217.115 23.1094 216.71L25.1813 215.116L101.092 157.295C101.87 156.703 102.5 155.94 102.934 155.064C103.368 154.188 103.594 153.224 103.594 152.247Z" fill="#F2B59D"/>
<path d="M115.547 172.097C115.541 170.918 115.209 169.764 114.587 168.763C113.965 167.761 113.077 166.952 112.023 166.425C110.969 165.898 109.789 165.673 108.614 165.776C107.44 165.879 106.317 166.306 105.371 167.009L26.0379 226.508C26.6535 227.34 27.3785 228.085 28.1934 228.723C30.3362 230.306 32.9407 231.139 35.6044 231.094H36.2977C38.5968 231.109 40.837 230.367 42.6727 228.982L64.6664 212.766L112.957 177.221C113.759 176.629 114.412 175.857 114.861 174.967C115.311 174.077 115.546 173.094 115.547 172.097Z" fill="#F2B59D"/>
<path d="M93.0989 133.417C93.7752 132.909 94.3448 132.273 94.7753 131.545C95.2058 130.817 95.4887 130.011 95.6078 129.174C95.7269 128.337 95.68 127.484 95.4696 126.665C95.2593 125.846 94.8897 125.076 94.3819 124.4C93.8741 123.724 93.238 123.154 92.5101 122.724C91.7822 122.293 90.9765 122.01 90.1393 121.891C89.302 121.772 88.4495 121.819 87.6303 122.029C86.8112 122.24 86.0415 122.609 85.3652 123.117L10.8415 178.213C11.1483 178.631 11.4796 179.03 11.8336 179.408C13.0559 180.636 14.5088 181.611 16.1088 182.275C17.7088 182.94 19.4244 183.282 21.157 183.281H23.4281C24.9679 183.285 26.495 183.002 27.9305 182.444L40.2023 173.878L93.0989 133.417Z" fill="#F2B59D"/>
<path d="M235.078 80.4844V119.531C235.078 123.758 233.399 127.812 230.41 130.801C227.421 133.79 223.368 135.469 219.141 135.469H191.063C189.885 135.466 188.721 135.726 187.656 136.23C186.591 136.734 185.652 137.469 184.907 138.381C180.03 144.35 168.539 158.18 159.375 167.344C147.422 179.297 127.5 183.281 127.5 183.281L68.0651 225.237C69.7678 226.461 71.8133 227.116 73.9102 227.109H76.5C78.5742 227.103 80.5994 226.479 82.3172 225.316L122.241 197.625C128.37 193.407 135.118 190.168 142.242 188.023L148.976 185.991C154.262 184.416 159.344 182.223 164.116 179.456C172.376 174.678 179.586 168.282 185.313 160.65L195.234 147.422L251.016 151.406V79.6875L235.078 80.4844Z" fill="#F2B59D"/>
<path d="M111.562 75.7031H63.75C60.5798 75.7031 57.5395 74.4438 55.2979 72.2021C53.0562 69.9605 51.7969 66.9202 51.7969 63.75C49.6854 63.7563 47.6621 64.5979 46.1691 66.091C44.676 67.584 43.8344 69.6072 43.8281 71.7188C43.8255 73.8124 44.2359 75.8861 45.036 77.8209C45.836 79.7557 47.0098 81.5137 48.4903 82.9941C49.9707 84.4746 51.7287 85.6484 53.6635 86.4484C55.5983 87.2484 57.6719 87.6589 59.7656 87.6562H95.625V99.6094L119.531 83.6719C119.531 81.5584 118.692 79.5315 117.197 78.0371C115.703 76.5427 113.676 75.7031 111.562 75.7031Z" fill="#F2B59D"/>
<path d="M195.234 147.422L185.313 160.65C179.586 168.282 172.376 174.678 164.116 179.456L186.25 183.871C192.979 180.285 202.645 174.277 205.992 167.81C206.607 166.51 207.57 165.407 208.774 164.621C209.978 163.835 211.376 163.399 212.813 163.359H235.596C237.572 163.359 239.467 164.144 240.865 165.542C242.262 166.939 243.047 168.834 243.047 170.81V175.312H251.016V151.406L195.234 147.422Z" fill="#ED9776"/>
<path d="M80.4844 99.6094L65.8298 110.076C64.478 111.043 62.8578 111.562 61.196 111.562H39.8438C38.2353 111.558 36.6658 111.067 35.3417 110.154C34.0175 109.241 33.0007 107.948 32.4248 106.447C32.0728 107.451 31.8871 108.506 31.875 109.57C31.8708 110.88 32.1256 112.177 32.6247 113.387C33.1238 114.598 33.8573 115.697 34.7831 116.623C35.7089 117.549 36.8087 118.283 38.0191 118.782C39.2295 119.281 40.5267 119.535 41.8359 119.531H67.7344L67.8938 119.77L95.625 99.6094H80.4844Z" fill="#ED9776"/>
<path d="M67.7344 119.531H57.7734L40.8478 130.815C40.1964 131.249 39.4314 131.482 38.6484 131.484H23.9062C22.9757 131.476 22.0783 131.138 21.3736 130.53C20.6689 129.922 20.2025 129.085 20.0573 128.165C19.9818 128.604 19.9366 129.047 19.9219 129.492C19.9177 130.801 20.1724 132.099 20.6715 133.309C21.1706 134.519 21.9042 135.619 22.83 136.545C23.7558 137.471 24.8555 138.204 26.0659 138.703C27.2764 139.203 28.5735 139.457 29.8828 139.453H39.8437L40.2023 139.931L67.8937 119.77L67.7344 119.531Z" fill="#ED9776"/>
<path d="M186.23 75.703C184.329 75.7009 182.492 75.0198 181.05 73.7825L164.503 59.6061C162.92 58.2438 161.937 56.3121 161.77 54.2301C161.602 52.1482 162.262 50.084 163.606 48.4857C161.707 49.1337 160.032 50.3099 158.777 51.8764C156.242 55.1198 155.054 59.2161 155.462 63.3128C155.871 67.4094 157.843 71.1909 160.969 73.8702L175.034 83.4725L219.141 81.2811V79.6874L213.037 75.703H186.23Z" fill="#ED9776"/>
<path d="M155.231 221.451C155.343 222.002 155.397 222.563 155.391 223.125C155.399 223.7 155.345 224.274 155.231 224.838C155.271 224.918 155.231 224.998 155.191 225.117C155.129 225.647 155.009 226.168 154.833 226.671C154.808 226.857 154.74 227.034 154.634 227.189C154.547 227.582 154.399 227.958 154.195 228.305C154.163 228.401 154.123 228.494 154.076 228.584C153.797 229.101 153.478 229.58 153.159 230.058C152.808 230.537 152.421 230.99 152.004 231.412C151.591 231.852 151.137 232.252 150.649 232.608C149.692 233.333 148.631 233.911 147.502 234.321C146.209 234.836 144.829 235.093 143.438 235.078C141.143 235.086 138.895 234.434 136.961 233.198C135.028 231.963 133.49 230.198 132.533 228.113C131.576 226.027 131.239 223.711 131.562 221.439C131.886 219.168 132.856 217.037 134.358 215.303C135.859 213.568 137.828 212.302 140.03 211.656C142.232 211.009 144.573 211.011 146.774 211.659C148.974 212.307 150.942 213.575 152.442 215.312C153.942 217.048 154.91 219.18 155.231 221.451Z" fill="#B3F5FF"/>
<path d="M163.359 219.141C166.512 219.141 169.593 220.075 172.214 221.827C174.835 223.578 176.877 226.067 178.084 228.979C179.29 231.891 179.606 235.096 178.991 238.187C178.376 241.279 176.858 244.119 174.629 246.348C172.4 248.577 169.56 250.094 166.469 250.709C163.377 251.324 160.173 251.009 157.26 249.802C154.348 248.596 151.859 246.553 150.108 243.933C148.357 241.312 147.422 238.23 147.422 235.078C147.422 234.839 147.502 234.56 147.502 234.321C148.648 233.951 149.716 233.369 150.649 232.608C151.163 232.287 151.621 231.883 152.004 231.413C152.433 231 152.82 230.546 153.159 230.058C153.502 229.591 153.808 229.098 154.076 228.584C154.123 228.494 154.163 228.401 154.195 228.305C154.399 227.958 154.547 227.582 154.634 227.189C154.74 227.034 154.808 226.857 154.833 226.671C155.009 226.168 155.129 225.647 155.191 225.117C155.231 224.998 155.271 224.918 155.231 224.838C155.345 224.275 155.399 223.7 155.391 223.125C155.397 222.563 155.343 222.002 155.231 221.452C157.679 219.953 160.49 219.154 163.359 219.141Z" fill="#81D2F5"/>
<path d="M144.195 187.425C143.695 186.1 143.439 184.697 143.437 183.281C143.425 181.337 143.89 179.419 144.792 177.696C145.694 175.974 147.005 174.499 148.61 173.401C150.215 172.303 152.065 171.617 153.998 171.401C155.93 171.186 157.886 171.448 159.694 172.165C160.103 170.019 160.955 167.983 162.194 166.184C163.433 164.386 165.033 162.865 166.891 161.718C168.75 160.572 170.827 159.824 172.99 159.524C175.153 159.223 177.355 159.376 179.456 159.972C179.787 156.543 181.382 153.359 183.93 151.039C186.478 148.72 189.797 147.43 193.242 147.422C193.897 147.414 194.55 147.467 195.195 147.581C198.659 148.108 201.797 149.92 203.986 152.656C206.175 155.392 207.254 158.852 207.008 162.347C206.762 165.842 205.209 169.117 202.658 171.519C200.108 173.922 196.746 175.276 193.242 175.312C192.562 175.285 191.883 175.219 191.21 175.113C191.242 175.174 191.256 175.243 191.25 175.312C191.25 179.539 189.571 183.593 186.582 186.582C183.593 189.571 179.539 191.25 175.312 191.25C172.043 191.251 168.854 190.235 166.188 188.341C165.195 190.477 163.592 192.271 161.58 193.496C159.568 194.721 157.239 195.322 154.886 195.224C152.532 195.126 150.261 194.333 148.358 192.945C146.455 191.557 145.006 189.636 144.195 187.425Z" fill="#96E0FF"/>
<path d="M143.437 15.9375C144.879 15.9405 146.293 16.3345 147.528 17.0774C148.763 17.8203 149.774 18.8845 150.452 20.1564C151.131 21.4283 151.451 22.8604 151.38 24.3001C151.309 25.7399 150.848 27.1333 150.048 28.332C149.247 29.5308 148.136 30.4899 146.834 31.1072C145.531 31.7246 144.085 31.977 142.651 31.8377C141.216 31.6983 139.846 31.1724 138.686 30.316C137.527 29.4595 136.621 28.3046 136.066 26.9742C134.617 27.587 133.058 27.8987 131.484 27.8906C129.12 27.8906 126.809 27.1896 124.844 25.8762C122.878 24.5627 121.346 22.6959 120.441 20.5118C119.536 18.3276 119.3 15.9242 119.761 13.6056C120.222 11.2869 121.361 9.15704 123.032 7.48537C124.704 5.8137 126.834 4.67527 129.152 4.21406C131.471 3.75284 133.874 3.98955 136.059 4.89426C138.243 5.79896 140.11 7.33102 141.423 9.29671C142.736 11.2624 143.437 13.5734 143.437 15.9375Z" fill="#81D2F5"/>
<path d="M73.5914 115.627C74.9799 118.024 75.7085 120.746 75.7031 123.516C75.7031 127.743 74.024 131.797 71.0351 134.785C68.0463 137.774 63.9925 139.453 59.7656 139.453C59.5266 139.453 59.2875 139.374 59.0484 139.374C58.3288 141.471 57.0384 143.326 55.3222 144.73C53.606 146.134 51.5321 147.031 49.3338 147.321C47.1355 147.611 44.8999 147.282 42.8785 146.37C40.857 145.459 39.13 144.002 37.8914 142.163C37.2843 141.254 36.8144 140.26 36.4969 139.214C36.0599 138.015 35.8439 136.746 35.8594 135.469C35.8721 132.993 36.6533 130.583 38.095 128.57C39.5367 126.557 41.5678 125.042 43.9078 124.233C43.9078 123.994 43.8281 123.755 43.8281 123.516C43.8226 122.212 43.9832 120.914 44.3062 119.651C45.0827 116.57 46.7623 113.792 49.1295 111.672C51.4966 109.553 54.4432 108.189 57.5909 107.757C60.7386 107.324 63.9437 107.842 66.7948 109.245C69.6458 110.647 72.0127 112.869 73.5914 115.627Z" fill="#81D2F5"/>
<path d="M23.9062 63.75C34.9088 63.75 43.8281 54.8307 43.8281 43.8281C43.8281 32.8256 34.9088 23.9062 23.9062 23.9062C12.9037 23.9062 3.98438 32.8256 3.98438 43.8281C3.98438 54.8307 12.9037 63.75 23.9062 63.75Z" fill="#B3F5FF"/>
<path d="M27.8906 51.797C22.6242 51.7971 17.5721 49.7118 13.8388 45.9973C10.1056 42.2827 7.99508 37.2411 7.96875 31.9747C6.08978 34.5022 4.83771 37.4396 4.31552 40.5453C3.79334 43.6511 4.01597 46.8365 4.9651 49.8394C5.91424 52.8423 7.56275 55.577 9.77502 57.8185C11.9873 60.06 14.7001 61.7442 17.6904 62.7327C20.6806 63.7211 23.8627 63.9855 26.9751 63.5041C30.0874 63.0227 33.041 61.8092 35.5929 59.9636C38.1447 58.1179 40.2219 55.6928 41.6536 52.8877C43.0853 50.0825 43.8306 46.9776 43.8281 43.8282C43.8281 43.7924 43.8281 43.7605 43.8281 43.7286C41.9877 46.2263 39.5871 48.2573 36.8191 49.6586C34.0511 51.0599 30.9931 51.7923 27.8906 51.797Z" fill="#96E0FF"/>
<path d="M59.7656 35.8594C66.3672 35.8594 71.7188 30.5078 71.7188 23.9062C71.7188 17.3047 66.3672 11.9531 59.7656 11.9531C53.1641 11.9531 47.8125 17.3047 47.8125 23.9062C47.8125 30.5078 53.1641 35.8594 59.7656 35.8594Z" fill="#81D2F5"/>
<path d="M47.8125 147.422C54.414 147.422 59.7656 142.07 59.7656 135.469C59.7656 128.867 54.414 123.516 47.8125 123.516C41.211 123.516 35.8594 128.867 35.8594 135.469C35.8594 142.07 41.211 147.422 47.8125 147.422Z" fill="#B3F5FF"/>
<path d="M47.8125 139.453C45.3477 139.449 42.945 138.68 40.9355 137.253C38.926 135.825 37.4086 133.81 36.5925 131.484C36.1203 132.76 35.8723 134.108 35.8594 135.469C35.8594 138.639 37.1187 141.679 39.3604 143.921C41.602 146.163 44.6423 147.422 47.8125 147.422C50.9827 147.422 54.023 146.163 56.2646 143.921C58.5063 141.679 59.7656 138.639 59.7656 135.469C59.7527 134.108 59.5047 132.76 59.0325 131.484C58.2164 133.81 56.699 135.825 54.6895 137.253C52.68 138.68 50.2773 139.449 47.8125 139.453Z" fill="#96E0FF"/>
<path d="M175.312 191.25C184.115 191.25 191.25 184.115 191.25 175.312C191.25 166.51 184.115 159.375 175.312 159.375C166.51 159.375 159.375 166.51 159.375 175.312C159.375 184.115 166.51 191.25 175.312 191.25Z" fill="#B3F5FF"/>
<path d="M175.312 183.281C171.787 183.274 168.364 182.097 165.581 179.933C162.798 177.769 160.813 174.743 159.937 171.328C159.292 173.692 159.201 176.174 159.671 178.579C160.141 180.984 161.159 183.248 162.647 185.196C164.134 187.144 166.051 188.722 168.247 189.808C170.444 190.895 172.862 191.46 175.312 191.46C177.763 191.46 180.181 190.895 182.378 189.808C184.574 188.722 186.491 187.144 187.978 185.196C189.466 183.248 190.484 180.984 190.954 178.579C191.424 176.174 191.333 173.692 190.688 171.328C189.812 174.743 187.827 177.769 185.044 179.933C182.261 182.097 178.838 183.274 175.312 183.281Z" fill="#96E0FF"/>
<path d="M32.5125 151.167C32.8301 152.213 33.3 153.207 33.907 154.116C35.1456 155.955 36.8727 157.412 38.8941 158.323C40.9155 159.235 43.1511 159.564 45.3494 159.274C47.5477 158.984 49.6216 158.087 51.3378 156.683C53.054 155.279 54.3444 153.424 55.0641 151.327C55.3031 151.327 55.5422 151.406 55.7812 151.406C60.0081 151.406 64.0619 149.727 67.0508 146.738C70.0396 143.749 71.7188 139.696 71.7188 135.469C71.7188 134.995 71.667 134.532 71.6271 134.07C70.145 135.758 68.3208 137.11 66.2757 138.038C64.2306 138.966 62.0114 139.449 59.7656 139.453C59.5266 139.453 59.2875 139.374 59.0484 139.374C58.3288 141.471 57.0384 143.326 55.3222 144.73C53.606 146.134 51.5321 147.031 49.3338 147.321C47.1355 147.611 44.8999 147.281 42.8785 146.37C40.857 145.459 39.13 144.002 37.8914 142.163C37.8077 142.035 37.748 141.9 37.6683 141.764L31.9985 145.892C31.9249 146.399 31.8837 146.91 31.875 147.422C31.8596 148.699 32.0755 149.968 32.5125 151.167Z" fill="#F2AA8F"/>
<path d="M169.336 247.585C167.322 247.336 165.396 246.612 163.716 245.474C162.036 244.335 160.651 242.814 159.673 241.036C158.696 239.258 158.154 237.273 158.093 235.244C158.033 233.216 158.454 231.202 159.323 229.368C160.634 226.277 160.73 222.805 159.59 219.646C158.059 220.035 156.592 220.643 155.235 221.451C155.346 222.002 155.398 222.563 155.391 223.125C155.399 223.7 155.345 224.274 155.231 224.838C155.271 224.918 155.231 224.998 155.191 225.117C155.129 225.647 155.009 226.168 154.833 226.671C154.808 226.857 154.74 227.034 154.634 227.189C154.547 227.581 154.399 227.958 154.195 228.305C154.163 228.4 154.123 228.494 154.076 228.583C153.808 229.098 153.502 229.59 153.159 230.058C152.82 230.546 152.433 231 152.004 231.412C151.621 231.883 151.163 232.286 150.649 232.608C149.716 233.369 148.648 233.95 147.502 234.321C147.502 234.56 147.422 234.839 147.422 235.078C147.406 238.093 148.25 241.049 149.854 243.601C151.459 246.154 153.758 248.195 156.482 249.487C159.205 250.779 162.241 251.267 165.233 250.895C168.224 250.523 171.048 249.306 173.372 247.386C172.039 247.606 170.685 247.672 169.336 247.585Z" fill="#66B9DE"/>
<path d="M181.385 173.268C183.516 173.759 184.7 170.703 184.62 168.758C184.684 167.409 184.361 166.069 183.69 164.897C183.019 163.725 182.027 162.768 180.831 162.14C179.155 161.365 177.272 161.158 175.468 161.55C174.707 161.649 173.991 161.967 173.408 162.467C173.102 162.754 172.881 163.119 172.768 163.523C172.655 163.927 172.654 164.354 172.766 164.758C172.951 165.204 173.236 165.6 173.599 165.917L179.695 172.073C180.137 172.621 180.722 173.034 181.385 173.268Z" fill="white"/>
<path d="M65.8378 121.472C67.9694 121.962 69.1528 118.906 69.0731 116.961C69.137 115.612 68.8143 114.272 68.1431 113.1C67.4719 111.928 66.48 110.971 65.284 110.343C63.6081 109.569 61.7252 109.362 59.921 109.754C59.1597 109.852 58.4437 110.17 57.8611 110.67C57.5554 110.957 57.334 111.322 57.2209 111.726C57.1079 112.13 57.1074 112.557 57.2196 112.961C57.4038 113.407 57.6889 113.804 58.0523 114.12L64.1484 120.276C64.5899 120.824 65.1748 121.237 65.8378 121.472Z" fill="#B0E8FF"/>
<path d="M200.414 159.339C201.836 159.666 202.625 157.63 202.57 156.331C202.613 155.431 202.398 154.538 201.95 153.757C201.503 152.976 200.841 152.338 200.044 151.92C198.924 151.4 197.664 151.26 196.458 151.522C195.95 151.589 195.472 151.802 195.083 152.135C194.88 152.328 194.733 152.572 194.658 152.841C194.583 153.111 194.583 153.396 194.657 153.665C194.781 153.96 194.971 154.223 195.21 154.434L199.271 158.542C199.57 158.909 199.966 159.185 200.414 159.339Z" fill="#B0E8FF"/>
<path d="M52.9922 135.433C54.4146 135.76 55.2035 133.724 55.1477 132.425C55.1907 131.525 54.9758 130.632 54.5282 129.851C54.0807 129.069 53.4192 128.432 52.6216 128.014C51.5018 127.494 50.2425 127.354 49.0357 127.616C48.5278 127.683 48.0503 127.896 47.6611 128.229C47.4583 128.422 47.3115 128.666 47.2364 128.935C47.1613 129.205 47.1608 129.489 47.2348 129.759C47.3596 130.054 47.5488 130.316 47.7886 130.528L51.8487 134.636C52.148 135.003 52.5441 135.279 52.9922 135.433Z" fill="white"/>
<path d="M155.347 188.967C155.713 190.393 153.729 191.262 152.446 191.25C151.555 191.32 150.662 191.132 149.875 190.708C149.088 190.284 148.44 189.642 148.008 188.859C147.462 187.74 147.286 186.476 147.506 185.25C147.552 184.735 147.745 184.246 148.063 183.839C148.243 183.628 148.478 183.47 148.742 183.384C149.005 183.299 149.288 183.288 149.558 183.353C149.861 183.468 150.134 183.652 150.354 183.891L154.538 187.875C154.9 188.16 155.179 188.537 155.347 188.967Z" fill="#B0E8FF"/>
<path d="M31.5443 43.7565C34.3812 44.4139 35.963 40.3379 35.8554 37.744C35.9403 35.9453 35.51 34.1596 34.6151 32.5969C33.7201 31.0343 32.3977 29.7596 30.8032 28.9226C28.5704 27.8876 26.0612 27.6078 23.6552 28.1258C22.6393 28.257 21.6837 28.6822 20.906 29.349C20.4989 29.7324 20.204 30.2195 20.0531 30.758C19.9022 31.2964 19.9009 31.8658 20.0494 32.405C20.2968 32.9985 20.6771 33.5274 21.161 33.9509L29.2772 42.1587C29.8699 42.8914 30.6549 43.4447 31.5443 43.7565Z" fill="white"/>
<path d="M64.9453 23.8704C66.3677 24.1971 67.1566 22.1611 67.1008 20.8622C67.1412 19.9598 66.9221 19.0647 66.4695 18.283C66.0168 17.5012 65.3496 16.8657 64.5469 16.4515C63.427 15.9311 62.1677 15.7912 60.9609 16.053C60.453 16.1203 59.9756 16.3335 59.5863 16.6666C59.3835 16.8592 59.2367 17.1032 59.1616 17.3727C59.0866 17.6421 59.086 17.9269 59.16 18.1966C59.2848 18.4911 59.4741 18.7539 59.7138 18.9656L63.7739 23.0735C64.0808 23.4449 64.4871 23.7213 64.9453 23.8704Z" fill="white"/>
<path d="M137.557 17.8779C139.688 18.368 140.872 15.3119 140.792 13.3676C140.856 12.0182 140.533 10.6786 139.862 9.50629C139.191 8.33396 138.199 7.37757 137.003 6.74953C135.327 5.97483 133.444 5.7678 131.64 6.15984C130.878 6.25794 130.162 6.57647 129.58 7.07624C129.274 7.3633 129.053 7.7285 128.94 8.13232C128.827 8.53614 128.826 8.9632 128.938 9.36726C129.123 9.81291 129.408 10.2098 129.771 10.5267L135.867 16.6826C136.309 17.2299 136.894 17.6437 137.557 17.8779Z" fill="white"/>
<path d="M148.617 223.089C150.04 223.416 150.829 221.38 150.773 220.081C150.816 219.181 150.601 218.288 150.153 217.507C149.706 216.726 149.044 216.088 148.247 215.67C147.127 215.15 145.867 215.01 144.661 215.272C144.153 215.339 143.675 215.552 143.286 215.885C143.083 216.078 142.936 216.322 142.861 216.591C142.786 216.861 142.786 217.146 142.86 217.415C142.985 217.71 143.174 217.973 143.414 218.184L147.474 222.292C147.773 222.659 148.169 222.935 148.617 223.089Z" fill="white"/>
<path d="M173.416 237.018C175.548 237.509 176.731 234.453 176.651 232.508C176.715 231.159 176.392 229.819 175.721 228.647C175.05 227.475 174.058 226.518 172.862 225.89C171.186 225.115 169.303 224.908 167.499 225.3C166.738 225.399 166.022 225.717 165.439 226.217C165.134 226.504 164.912 226.869 164.799 227.273C164.686 227.677 164.686 228.104 164.798 228.508C164.982 228.954 165.267 229.35 165.63 229.667L171.727 235.823C172.168 236.371 172.753 236.784 173.416 237.018Z" fill="white"/>
</svg>
